<svg width="15" height="10" viewBox="0 0 15 10" fill="none" xmlns="http://www.w3.org/2000/svg">
<path fill-rule="evenodd" clip-rule="evenodd" d="M0.25 4.99951C0.25 4.5853 0.585786 4.24951 1 4.24951L14.1429 4.24951C14.5571 4.24951 14.8929 4.5853 14.8929 4.99951C14.8929 5.41373 14.5571 5.74951 14.1429 5.74951L1 5.74951C0.585786 5.74951 0.25 5.41373 0.25 4.99951Z" fill="#0E95E0"/>
<path fill-rule="evenodd" clip-rule="evenodd" d="M9.61253 0.469182C9.90542 0.176288 10.3803 0.176288 10.6732 0.469182L14.6732 4.46918C14.9661 4.76207 14.9661 5.23695 14.6732 5.52984L10.6732 9.52984C10.3803 9.82274 9.90542 9.82274 9.61253 9.52984C9.31963 9.23695 9.31963 8.76208 9.61253 8.46918L13.0822 4.99951L9.61253 1.52984C9.31963 1.23695 9.31963 0.762075 9.61253 0.469182Z" fill="#0E95E0"/>
</svg>
