<svg width="35" height="35" viewBox="0 0 35 35" fill="none" xmlns="http://www.w3.org/2000/svg">
<circle cx="17.5" cy="17.5" r="17.5" fill="#E04E39"/>
<path fill-rule="evenodd" clip-rule="evenodd" d="M10 17.75C10 17.3358 10.3358 17 10.75 17L23.8929 17C24.3071 17 24.6429 17.3358 24.6429 17.75C24.6429 18.1642 24.3071 18.5 23.8929 18.5L10.75 18.5C10.3358 18.5 10 18.1642 10 17.75Z" fill="white"/>
<path fill-rule="evenodd" clip-rule="evenodd" d="M19.3626 13.2197C19.6554 12.9268 20.1303 12.9268 20.4232 13.2197L24.4232 17.2197C24.7161 17.5126 24.7161 17.9874 24.4232 18.2803L20.4232 22.2803C20.1303 22.5732 19.6554 22.5732 19.3626 22.2803C19.0697 21.9874 19.0697 21.5126 19.3626 21.2197L22.8322 17.75L19.3626 14.2803C19.0697 13.9874 19.0697 13.5126 19.3626 13.2197Z" fill="white"/>
</svg>
