<svg width="60" height="60" viewBox="0 0 60 60" fill="none" xmlns="http://www.w3.org/2000/svg">
<rect width="60" height="60" rx="12" fill="#FFF7F7"/>
<path d="M25.5524 43.2003C21.7249 43.2003 17.8974 43.2003 14.0807 43.2003C14.0053 43.2003 13.919 43.2003 13.8435 43.2003C12.6468 43.1574 12.0107 42.5357 12.0107 41.3567C11.9999 39.2236 12.0107 37.1014 12.0107 34.9683C12.0107 32.4602 12.0107 29.9627 12.0107 27.4546C12.0107 27.2188 12.0322 26.9722 12.0753 26.7364C12.1939 26.0504 12.6576 25.5895 13.3584 25.4824C13.6602 25.4395 13.9729 25.4073 14.2856 25.4073C21.8651 25.4073 29.4554 25.4073 37.0349 25.4073C37.2505 25.4073 37.4662 25.418 37.6818 25.4502C38.6198 25.6003 39.1158 26.1469 39.1158 27.0902C39.1266 28.8587 39.1266 30.6273 39.1266 32.3959C39.1266 35.3542 39.1158 38.3126 39.1158 41.2709C39.1158 42.5786 38.512 43.1788 37.1858 43.1788C33.3044 43.1895 29.4338 43.1895 25.5524 43.2003C25.5524 43.1895 25.5524 43.1895 25.5524 43.2003ZM25.6171 27.4546C21.9406 27.4546 18.264 27.4653 14.5875 27.4546C14.2425 27.4546 14.1131 27.5403 14.1131 27.9048C14.1239 32.1815 14.1239 36.4475 14.1131 40.7243C14.1131 41.0458 14.2101 41.1744 14.5443 41.1744C21.8974 41.1637 29.2505 41.1637 36.6036 41.1744C36.9271 41.1744 37.0565 41.0887 37.0565 40.7457C37.0457 36.469 37.0457 32.2029 37.0565 27.9262C37.0565 27.5832 36.9594 27.4546 36.6036 27.4653C32.9379 27.4546 29.2829 27.4546 25.6171 27.4546Z" fill="#E04E39"/>
<path d="M29.9837 21.1306C33.8543 21.1306 37.7142 21.1306 41.5848 21.1306C42.8894 21.1306 43.5686 21.8059 43.5686 23.1135C43.5686 27.7333 43.5686 32.353 43.5686 36.9727C43.5686 38.1839 43.0834 38.752 41.8651 38.8806C41.4662 38.9235 41.0565 38.9021 40.6576 38.9021C40.6144 38.9021 40.5821 38.8914 40.539 38.8806C40.1508 38.8056 39.9999 38.5805 40.0214 38.1518C40.0969 36.9084 40.1077 36.8977 40.6468 36.8548C40.7546 36.8441 40.8624 36.8334 40.9702 36.8334C41.5093 36.7905 41.5201 36.7905 41.4985 36.2653C41.3907 32.1172 41.477 27.9584 41.4554 23.8102C41.4554 23.1671 41.4554 23.1671 40.8193 23.1671C33.5956 23.1671 26.3718 23.1671 19.1589 23.1671C18.5228 23.1671 18.5228 23.1671 18.512 23.7995C18.5012 24.4319 18.3503 24.582 17.7249 24.6034C16.4635 24.6356 16.4419 24.6034 16.4419 23.3493C16.4419 23.2207 16.4419 23.0814 16.4419 22.9528C16.4527 21.763 17.0996 21.1306 18.3071 21.1306C22.1885 21.1413 26.0807 21.1413 29.9837 21.1306C29.9837 21.1413 29.9837 21.1413 29.9837 21.1306Z" fill="#E04E39"/>
<path d="M47.9891 25.6967C47.9891 28.0763 47.9567 30.4665 47.9998 32.8461C48.0214 33.8214 47.202 34.6146 46.2532 34.6039C45.8759 34.5932 45.4985 34.6039 45.1211 34.6039C44.9702 34.6039 44.8085 34.6146 44.7007 34.5074C44.2263 34.0787 44.4527 33.532 44.4742 33.039C44.4958 32.6638 44.8085 32.5781 45.1535 32.5674C45.8866 32.5459 45.8866 32.5459 45.8866 31.8171C45.8866 27.7118 45.8866 23.5959 45.8866 19.4906C45.8866 18.9011 45.8866 18.9011 45.3044 18.8797C44.6791 18.8582 44.4635 18.6439 44.4419 18.0222C44.3988 16.961 44.5174 16.8431 45.5848 16.8324C45.9513 16.8324 46.3071 16.8324 46.6737 16.8967C47.45 17.0361 47.9998 17.7006 48.0106 18.4831C47.9891 20.8733 47.9891 23.285 47.9891 25.6967Z" fill="#E04E39"/>
<path d="M29.3476 18.9011C27.3961 18.9011 25.4446 18.9011 23.4931 18.9011C22.954 18.9011 22.954 18.9011 22.9433 19.4263C22.9325 20.1659 22.8139 20.2838 22.0699 20.2838C20.884 20.2838 20.884 20.2838 20.8732 19.1262C20.8732 18.9225 20.8732 18.7296 20.8732 18.526C20.8947 17.5077 21.5093 16.886 22.5443 16.8646C26.7923 16.7681 31.0511 16.8217 35.2991 16.811C36.0753 16.811 36.1939 16.9503 36.2047 17.7328C36.2155 18.8154 36.14 18.8904 35.0511 18.8904C33.1535 18.9011 31.2451 18.9011 29.3476 18.9011Z" fill="#E04E39"/>
<path d="M40.3449 18.8475C39.946 18.8475 39.5363 18.8582 39.1373 18.8475C38.7384 18.8368 38.5444 18.6331 38.5659 18.2366C38.5767 17.9686 38.5875 17.7006 38.5767 17.4327C38.5551 17.0789 38.7492 16.8646 39.0942 16.8431C39.9244 16.7895 40.7654 16.7788 41.5955 16.8431C42.0915 16.886 42.1993 17.2397 42.1131 18.2901C42.0807 18.6975 41.9082 18.8475 41.4446 18.8475C41.0672 18.8582 40.7007 18.8475 40.3449 18.8475Z" fill="#E04E39"/>
<path d="M25.6279 29.7377C28.2694 29.7484 30.3071 31.7528 30.3071 34.3574C30.3071 36.887 28.1724 38.9235 25.5524 38.9342C22.9756 38.9342 20.8193 36.8119 20.8408 34.3038C20.8516 31.7099 22.9325 29.7269 25.6279 29.7377ZM28.1832 34.3038C28.1724 32.8568 27.0619 31.7742 25.574 31.7849C24.0861 31.7849 22.954 32.8782 22.954 34.3145C22.954 35.7508 24.0861 36.8548 25.5632 36.8655C27.0619 36.8548 28.1832 35.7722 28.1832 34.3038Z" fill="#E04E39"/>
<path d="M16.7654 28.2906C17.1643 28.2906 17.574 28.2799 17.9729 28.2906C18.3071 28.3014 18.5012 28.4729 18.5012 28.8159C18.5012 29.1267 18.5012 29.4268 18.5012 29.7377C18.5012 30.1021 18.3071 30.3057 17.9621 30.3057C17.1427 30.3272 16.3233 30.3379 15.5039 30.3057C14.9972 30.2843 14.8894 29.9949 14.9217 29.0302C14.9433 28.505 15.0942 28.3121 15.5578 28.2906C15.7627 28.2799 15.9567 28.2906 16.1616 28.2906C16.3664 28.2799 16.5713 28.2799 16.7654 28.2906Z" fill="#E04E39"/>
<path d="M34.415 38.334C34.8139 38.334 35.2236 38.334 35.6225 38.334C35.9999 38.3447 36.1939 38.5377 36.1939 38.9021C36.1939 39.1808 36.1939 39.4595 36.1939 39.7381C36.1939 40.1347 35.9783 40.3384 35.6009 40.3491C34.8139 40.3598 34.016 40.3598 33.229 40.3491C32.8516 40.3384 32.6468 40.1133 32.6144 39.7381C32.6144 39.7274 32.6144 39.7167 32.6144 39.6953C32.6036 38.3554 32.5821 38.2804 33.8867 38.3233C34.0699 38.334 34.2425 38.334 34.415 38.334Z" fill="#E04E39"/>
</svg>
