<svg width="60" height="60" viewBox="0 0 60 60" fill="none" xmlns="http://www.w3.org/2000/svg">
<rect width="60" height="60" rx="12" fill="#FFF7F7"/>
<path d="M30.7952 32.1735C31.7929 32.2346 32.9942 32.092 34.2158 32.2549C38.0436 32.7436 40.5887 35.5737 40.6294 39.4422C40.6294 39.8902 40.6294 40.3585 40.5684 40.8064C40.4869 41.4172 40.0593 41.743 39.4485 41.743C38.8581 41.743 38.4916 41.3765 38.4101 40.8064C38.3287 40.2567 38.349 39.6866 38.3287 39.1368C38.288 36.5103 36.313 34.4946 33.6864 34.4539C31.5689 34.4335 29.4718 34.4335 27.3543 34.4539C24.8092 34.515 22.8546 36.4696 22.7731 39.035C22.7528 39.5644 22.7731 40.0938 22.7324 40.6435C22.6917 41.3154 22.3252 41.743 21.6329 41.7837C21.0425 41.8244 20.5742 41.3765 20.5131 40.6639C20.0244 35.6144 23.2414 32.3364 27.6597 32.1735C28.6166 32.1531 29.594 32.1735 30.7952 32.1735Z" fill="#E04E39"/>
<path d="M25.0128 24.4771C25.0128 21.3823 27.4154 19.0001 30.5305 19.0001C33.6864 19.0001 36.089 21.4027 36.089 24.5382C36.089 27.5516 33.5032 30.0763 30.5102 30.0356C27.4357 29.9949 25.0128 27.5312 25.0128 24.4771ZM30.5509 27.7552C32.4444 27.7552 33.8901 26.3707 33.8901 24.5382C33.8901 22.6447 32.4444 21.2194 30.5509 21.2194C28.6777 21.2194 27.2321 22.6243 27.2118 24.4568C27.1914 26.3707 28.5963 27.7552 30.5509 27.7552Z" fill="#E04E39"/>
<path d="M43.5614 24.4568C43.541 27.4294 41.1995 29.8931 38.288 30.0356C37.5753 30.0763 37.0256 29.6691 36.9442 29.0583C36.8627 28.4067 37.2496 27.8774 38.064 27.7959C39.3671 27.6534 40.4055 27.1444 40.9959 25.9227C41.9936 23.8663 40.6702 21.4434 38.3694 21.2194C38.2269 21.1991 38.064 21.1991 37.9215 21.1787C37.2699 21.0769 36.9034 20.6901 36.9442 20.0385C36.9645 19.3666 37.3717 19.0612 38.0436 19.0205C40.2019 18.878 42.4823 20.4661 43.256 22.665C43.4596 23.2555 43.5817 23.8663 43.5614 24.4568Z" fill="#E04E39"/>
<path d="M22.7528 19.0001C23.669 18.9798 24.1373 19.3259 24.1576 20.0182C24.178 20.7104 23.7504 21.0973 22.8546 21.1991C21.0017 21.423 19.7394 22.7261 19.7394 24.4364C19.719 26.1874 20.9203 27.5109 22.7731 27.7552C22.8953 27.7756 23.0175 27.7959 23.1396 27.8163C23.8522 27.9792 24.2187 28.4067 24.1373 29.0176C24.0762 29.6284 23.5265 30.056 22.8342 30.0356C20.3298 29.9542 18.0902 28.0199 17.6015 25.4952C17.1332 23.0315 18.5177 20.4661 20.8389 19.4481C21.4497 19.2037 22.0809 19.0001 22.7528 19.0001Z" fill="#E04E39"/>
<path d="M13 40.0123C13 36.1642 14.8528 33.4969 18.1105 32.4992C18.9657 32.2346 19.8412 32.1327 20.7371 32.1938C21.47 32.2549 21.9587 32.7232 21.9383 33.334C21.918 34.0467 21.4293 34.3521 20.7981 34.4335C20.4724 34.4742 20.1466 34.4742 19.8208 34.4742C17.3775 34.5557 15.3618 36.5917 15.3008 39.0554C15.2804 39.5033 15.3008 39.9716 15.2804 40.4195C15.2397 41.234 14.8528 41.7226 14.2216 41.7837C13.5905 41.8448 13.1425 41.3765 13.0407 40.5621C13 40.3381 13 40.0938 13 40.0123Z" fill="#E04E39"/>
<path d="M48 39.6051C48 39.9105 48 40.2974 48 40.6639C47.9796 41.3358 47.5928 41.7226 46.9616 41.7634C46.3101 41.8041 45.9232 41.3765 45.8418 40.7453C45.7807 40.2363 45.8011 39.7273 45.8011 39.2183C45.7807 36.551 43.7446 34.515 41.0774 34.4742C40.772 34.4742 40.4666 34.4742 40.1611 34.4335C39.5503 34.3521 39.1635 34.0059 39.1431 33.3748C39.1227 32.7029 39.53 32.3364 40.1408 32.2346C41.0163 32.092 41.8714 32.2346 42.7062 32.4382C46.025 33.2119 48.224 36.3474 48 39.6051Z" fill="#E04E39"/>
</svg>
