<svg width="60" height="60" viewBox="0 0 60 60" fill="none" xmlns="http://www.w3.org/2000/svg">
<rect width="60" height="60" rx="12" fill="#FFF7F7"/>
<path d="M26.8638 31.5276C23.2348 31.5276 19.6058 31.5418 15.9626 31.5135C15.4523 31.5135 15.2397 31.6269 15.2397 32.1797C15.268 35.7379 15.2538 39.296 15.2538 42.8683C15.2538 43.6196 15.3956 43.7755 16.0902 43.9031C16.6856 44.0165 17.0967 44.5127 17.04 45.0513C16.9833 45.6609 16.4163 46.1003 15.7642 46.0578C14.1481 45.9444 13.0282 44.6402 13.0282 42.8399C13.0141 39.0975 13.0141 35.3693 13.0282 31.6269C13.0282 29.9258 12.9148 28.2247 13.0849 26.5236C13.2409 24.9359 14.4316 23.9153 16.0477 23.9153C19.0388 23.9153 22.0299 23.9153 25.0351 23.9153C25.7723 23.9153 25.7723 23.9153 25.7723 23.1781C25.7723 20.8249 25.7723 18.4718 25.7723 16.1044C25.7723 14.375 26.8496 13.17 28.5082 13.0141C29.1319 12.9574 29.6281 13.2976 29.7273 13.8646C29.8407 14.5309 29.5289 14.9845 28.8484 15.1546C28.0971 15.3247 27.9412 15.5232 27.9412 16.2887C27.9412 16.7848 27.9412 17.281 27.9412 17.7771C27.9412 18.4859 27.9412 18.4859 28.6358 18.4859C31.5276 18.4859 34.4053 18.4859 37.2972 18.4859C39.9055 18.4859 42.4997 18.4718 45.108 18.5001C45.6325 18.5001 45.8026 18.3442 45.7743 17.8338C45.7459 17.2668 45.7743 16.6998 45.7601 16.1328C45.7459 15.4098 45.5758 15.2255 44.8387 15.2255C42.1595 15.2255 39.4944 15.2255 36.8152 15.2255C36.4608 15.2255 36.1064 15.2113 35.752 15.1546C35.2559 15.0696 34.9156 14.6301 34.9015 14.134C34.8873 13.6236 35.1708 13.2267 35.6811 13.0708C35.9647 12.9857 36.2482 12.9999 36.5317 12.9999C39.2534 12.9999 41.9894 12.9999 44.7111 12.9999C46.7241 12.9999 47.9715 14.1765 47.9857 16.1753C48.0141 20.2154 48.0141 24.2555 47.9857 28.2956C47.9715 30.0534 47.0785 31.1874 45.59 31.4709C45.4483 31.4993 45.3065 31.5135 45.1647 31.5135C44.4985 31.5276 44.059 31.1591 43.9881 30.5353C43.9314 30.0108 44.2858 29.543 44.8812 29.3871C45.7318 29.1603 45.7743 29.1036 45.7743 28.2389C45.7743 25.9424 45.7601 23.6317 45.7885 21.3353C45.7885 20.8249 45.6325 20.6548 45.1222 20.669C39.6078 20.6832 34.1076 20.6832 28.5933 20.669C28.1254 20.669 27.9128 20.7966 27.9412 21.3069C27.9837 22.0015 27.9695 22.6961 27.9412 23.3766C27.927 23.8302 28.1113 23.9436 28.5365 23.9436C31.4993 23.9294 34.4478 23.9436 37.4106 23.9294C39.5653 23.9294 40.6994 25.0351 40.6994 27.1899C40.6994 32.4491 40.6994 37.7083 40.6994 42.9817C40.6994 44.8387 39.4519 46.072 37.5949 46.0862C32.931 46.0862 28.2814 46.0862 23.6176 46.0862C23.4616 46.0862 23.2915 46.0862 23.1356 46.072C22.5685 45.9869 22.1291 45.4624 22.1716 44.9238C22.2 44.3709 22.6252 43.9456 23.2206 43.9456C24.6382 43.9315 26.0558 43.9315 27.4734 43.9315C30.7621 43.9315 34.0651 43.9315 37.3539 43.9315C38.3037 43.9315 38.5163 43.7188 38.5163 42.7832C38.5163 39.2818 38.5163 35.7662 38.5163 32.2648C38.5163 31.556 38.5163 31.556 37.8075 31.556C34.1643 31.5276 30.507 31.5276 26.8638 31.5276ZM26.8922 29.3588C27.3883 29.3588 27.8845 29.3588 28.3806 29.3588C31.556 29.3588 34.7172 29.3588 37.8926 29.3729C38.3462 29.3729 38.5446 29.2453 38.5163 28.7775C38.4879 28.2814 38.5163 27.7852 38.5021 27.2891C38.5021 26.2968 38.3178 26.1125 37.3255 26.1125C33.1862 26.1125 29.0327 26.1125 24.8934 26.1125C21.9873 26.1125 19.0813 26.1125 16.1753 26.1125C15.4665 26.1125 15.268 26.3251 15.2538 27.0339C15.2538 27.5868 15.2538 28.1255 15.2538 28.6783C15.2538 29.3446 15.2822 29.3588 15.9485 29.3588C19.5916 29.3588 23.249 29.3588 26.8922 29.3588Z" fill="#E04E39"/>
</svg>
