<svg width="60" height="60" viewBox="0 0 60 60" fill="none" xmlns="http://www.w3.org/2000/svg">
<rect width="60" height="60" rx="12" fill="#FFF7F7"/>
<path d="M41.931 47.9937C41.931 47.6311 41.9466 47.2685 41.9216 46.9058C41.8997 46.5526 42.0404 46.4494 42.3875 46.4307C43.9039 46.3494 45.1108 45.7085 45.8643 44.3518C46.2144 43.7203 46.4145 43.0356 46.4145 42.3041C46.4208 39.6594 46.4208 37.0147 46.4208 34.3699C46.4208 34.2918 46.4489 34.2074 46.3645 34.1261C46.1613 34.3168 45.9674 34.5137 45.758 34.695C44.6386 35.6548 43.3098 36.0393 41.8653 36.0487C39.5141 36.0643 37.1598 36.0612 34.8086 36.0455C34.399 36.0424 34.177 36.1487 33.9832 36.5457C32.67 39.2311 29.1338 39.8814 26.9358 37.8587C26.4918 37.4523 26.1323 36.9709 25.9134 36.4051C25.804 36.1237 25.6351 36.0518 25.3537 36.0518C22.9181 36.0612 20.4856 36.0674 18.05 36.0518C16.6149 36.0424 15.3048 35.636 14.1949 34.6857C13.9916 34.5106 13.8041 34.3199 13.6039 34.1323C13.507 34.223 13.5508 34.3355 13.5508 34.4324C13.5477 36.9959 13.5352 39.5594 13.5508 42.1228C13.5664 44.5581 15.4518 46.44 17.8843 46.4463C22.6586 46.4588 27.436 46.4494 32.2104 46.4494C33.1515 46.4494 32.9983 46.3963 33.017 47.2622C33.0233 47.5092 33.0077 47.753 33.0045 48C27.7112 48 22.421 48 17.1276 48C17.0151 47.9687 16.9056 47.9343 16.7931 47.9093C14.7389 47.4373 13.2882 46.2337 12.4315 44.3111C12.2251 43.8485 12.147 43.3514 12 42.8731C12 37.2991 12 31.7283 12 26.1544C12.0406 25.9949 12.0875 25.8386 12.1219 25.6792C12.6879 23.0313 15.1485 21.0243 17.8561 21.0087C18.7816 21.0024 19.7071 21.0024 20.6294 21.0087C20.8514 21.0087 20.9702 20.9618 20.9796 20.7023C21.089 18.0263 22.1834 15.8224 24.2219 14.103C26.1448 12.4868 28.3928 11.8021 30.8816 12.0491C33.3203 12.2898 35.3432 13.3934 36.919 15.2722C38.1916 16.7915 38.8826 18.5515 38.9889 20.5335C39.0139 21.0024 39.0014 20.9993 39.4891 21.0024C40.5553 21.0087 41.6308 20.9243 42.6814 21.0431C45.8486 21.3995 48.0279 24.163 47.9997 27.1141C47.9528 32.0284 47.9778 36.9459 47.9904 41.8633C47.9966 43.8891 47.118 45.4616 45.586 46.7151C44.7606 47.3873 43.7944 47.7593 42.7689 47.9969C42.4938 47.9938 42.2124 47.9937 41.931 47.9937ZM38.7075 34.4887C39.8299 34.4449 41.1869 34.5637 42.5438 34.4293C44.7074 34.2136 46.3864 32.4067 46.4208 30.2309C46.4396 29.0617 46.4364 27.8894 46.4177 26.7202C46.3802 24.5131 44.476 22.6062 42.2624 22.578C40.3208 22.553 38.376 22.5686 36.4344 22.5686C30.2531 22.5686 24.0749 22.5624 17.8937 22.5718C15.4612 22.5749 13.5789 24.4694 13.557 26.8953C13.5477 28.0301 13.532 29.168 13.5664 30.2997C13.6039 31.5689 14.1386 32.6255 15.1078 33.4508C15.9989 34.2105 17.0588 34.4856 18.2032 34.4856C20.3574 34.4918 22.5116 34.4856 24.6659 34.4856C25.3975 34.4856 25.4069 34.4856 25.5163 33.7759C25.8634 31.4938 27.8488 29.9089 30.1499 29.9808C32.448 30.0496 34.374 31.8252 34.4991 34.1167C34.5147 34.4106 34.6179 34.4918 34.8993 34.4918C36.0842 34.4825 37.2786 34.4887 38.7075 34.4887ZM29.9717 20.9993C32.3229 20.9993 34.6741 20.9931 37.0253 21.0056C37.3661 21.0087 37.4631 20.8805 37.4256 20.571C37.3943 20.3147 37.3912 20.0583 37.3474 19.8051C36.9503 17.5011 35.7778 15.6942 33.7362 14.5563C31.2474 13.1714 28.6804 13.1651 26.2042 14.5782C23.9405 15.8724 22.7586 17.9107 22.5554 20.5054C22.5179 20.9931 22.5398 20.9993 23.0244 20.9993C25.3412 21.0024 27.6549 20.9993 29.9717 20.9993ZM29.9874 37.4492C31.6976 37.4336 32.942 36.155 32.9357 34.4199C32.9264 32.8193 31.5851 31.5439 29.9217 31.5595C28.3178 31.5751 27.0327 32.8975 27.0421 34.5231C27.0484 36.1675 28.3553 37.4648 29.9874 37.4492Z" fill="#E04E39"/>
<path d="M35.9585 47.9943C35.9553 47.5973 35.9585 47.2034 35.9428 46.8064C35.9335 46.5594 36.0241 46.4437 36.2836 46.4437C37.0747 46.45 37.8688 46.45 38.6599 46.4437C38.8881 46.4437 39.0069 46.5219 39.0007 46.7689C38.985 47.1753 38.985 47.5848 38.9788 47.9912C37.972 47.9943 36.9652 47.9943 35.9585 47.9943Z" fill="#E04E39"/>
<path d="M41.931 47.9937C41.931 47.6311 41.9466 47.2685 41.9216 46.9058C41.8997 46.5526 42.0404 46.4494 42.3875 46.4307C43.9039 46.3494 45.1108 45.7085 45.8643 44.3518C46.2144 43.7203 46.4145 43.0356 46.4145 42.3041C46.4208 39.6594 46.4208 37.0147 46.4208 34.3699C46.4208 34.2918 46.4489 34.2074 46.3645 34.1261C46.1613 34.3168 45.9674 34.5137 45.758 34.695C44.6386 35.6548 43.3098 36.0393 41.8653 36.0487C39.5141 36.0643 37.1598 36.0612 34.8086 36.0455C34.399 36.0424 34.177 36.1487 33.9832 36.5457C32.67 39.2311 29.1338 39.8814 26.9358 37.8587C26.4918 37.4523 26.1323 36.9709 25.9134 36.4051C25.804 36.1237 25.6351 36.0518 25.3537 36.0518C22.9181 36.0612 20.4856 36.0674 18.05 36.0518C16.6149 36.0424 15.3048 35.636 14.1949 34.6857C13.9916 34.5106 13.8041 34.3199 13.6039 34.1323C13.507 34.223 13.5508 34.3355 13.5508 34.4324C13.5477 36.9959 13.5352 39.5594 13.5508 42.1228C13.5664 44.5581 15.4518 46.44 17.8843 46.4463C22.6586 46.4588 27.436 46.4494 32.2104 46.4494C33.1515 46.4494 32.9983 46.3963 33.017 47.2622C33.0233 47.5092 33.0077 47.753 33.0045 48C27.7112 48 22.421 48 17.1276 48C17.0151 47.9687 16.9056 47.9343 16.7931 47.9093C14.7389 47.4373 13.2882 46.2337 12.4315 44.3111C12.2251 43.8485 12.147 43.3514 12 42.8731C12 37.2991 12 31.7283 12 26.1544C12.0406 25.9949 12.0875 25.8386 12.1219 25.6792C12.6879 23.0313 15.1485 21.0243 17.8561 21.0087C18.7816 21.0024 19.7071 21.0024 20.6294 21.0087C20.8514 21.0087 20.9702 20.9618 20.9796 20.7023C21.089 18.0263 22.1834 15.8224 24.2219 14.103C26.1448 12.4868 28.3928 11.8021 30.8816 12.0491C33.3203 12.2898 35.3432 13.3934 36.919 15.2722C38.1916 16.7915 38.8826 18.5515 38.9889 20.5335C39.0139 21.0024 39.0014 20.9993 39.4891 21.0024C40.5553 21.0087 41.6308 20.9243 42.6814 21.0431C45.8486 21.3995 48.0279 24.163 47.9997 27.1141C47.9528 32.0284 47.9778 36.9459 47.9904 41.8633C47.9966 43.8891 47.118 45.4616 45.586 46.7151C44.7606 47.3873 43.7944 47.7593 42.7689 47.9969C42.4938 47.9938 42.2124 47.9937 41.931 47.9937ZM38.7075 34.4887C39.8299 34.4449 41.1869 34.5637 42.5438 34.4293C44.7074 34.2136 46.3864 32.4067 46.4208 30.2309C46.4396 29.0617 46.4364 27.8894 46.4177 26.7202C46.3802 24.5131 44.476 22.6062 42.2624 22.578C40.3208 22.553 38.376 22.5686 36.4344 22.5686C30.2531 22.5686 24.0749 22.5624 17.8937 22.5718C15.4612 22.5749 13.5789 24.4694 13.557 26.8953C13.5477 28.0301 13.532 29.168 13.5664 30.2997C13.6039 31.5689 14.1386 32.6255 15.1078 33.4508C15.9989 34.2105 17.0588 34.4856 18.2032 34.4856C20.3574 34.4918 22.5116 34.4856 24.6659 34.4856C25.3975 34.4856 25.4069 34.4856 25.5163 33.7759C25.8634 31.4938 27.8488 29.9089 30.1499 29.9808C32.448 30.0496 34.374 31.8252 34.4991 34.1167C34.5147 34.4106 34.6179 34.4918 34.8993 34.4918C36.0842 34.4825 37.2786 34.4887 38.7075 34.4887ZM29.9717 20.9993C32.3229 20.9993 34.6741 20.9931 37.0253 21.0056C37.3661 21.0087 37.4631 20.8805 37.4256 20.571C37.3943 20.3147 37.3912 20.0583 37.3474 19.8051C36.9503 17.5011 35.7778 15.6942 33.7362 14.5563C31.2474 13.1714 28.6804 13.1651 26.2042 14.5782C23.9405 15.8724 22.7586 17.9107 22.5554 20.5054C22.5179 20.9931 22.5398 20.9993 23.0244 20.9993C25.3412 21.0024 27.6549 20.9993 29.9717 20.9993ZM29.9874 37.4492C31.6976 37.4336 32.942 36.155 32.9357 34.4199C32.9264 32.8193 31.5851 31.5439 29.9217 31.5595C28.3178 31.5751 27.0327 32.8975 27.0421 34.5231C27.0484 36.1675 28.3553 37.4648 29.9874 37.4492Z" stroke="#E04E39" stroke-width="0.5"/>
<path d="M35.9585 47.9943C35.9553 47.5973 35.9585 47.2034 35.9428 46.8064C35.9335 46.5594 36.0241 46.4437 36.2836 46.4437C37.0747 46.45 37.8688 46.45 38.6599 46.4437C38.8881 46.4437 39.0069 46.5219 39.0007 46.7689C38.985 47.1753 38.985 47.5848 38.9788 47.9912C37.972 47.9943 36.9652 47.9943 35.9585 47.9943Z" stroke="#E04E39" stroke-width="0.5"/>
</svg>
