<svg width="60" height="60" viewBox="0 0 60 60" fill="none" xmlns="http://www.w3.org/2000/svg">
<rect width="60" height="60" rx="12" fill="#FFF7F7"/>
<path d="M30.0151 14.3999C33.8678 14.3999 37.7204 14.3999 41.573 14.3999C42.6737 14.3999 43.004 14.8072 42.8058 15.8969C42.7068 16.4253 42.6297 16.9536 42.5196 17.482C42.4536 17.8232 42.4976 17.9663 42.9159 17.9553C44.2919 17.9223 45.6678 17.9443 47.0437 17.9443C47.6601 17.9443 48.0014 18.1865 48.0784 18.7809C48.5958 23.371 47.5501 27.3887 43.7085 30.3388C42.982 30.8891 42.1894 31.3184 41.3418 31.6817C40.7474 31.9348 40.2411 31.7807 40.0099 31.2744C39.7788 30.7791 39.9879 30.2727 40.5823 30.0085C42.1784 29.293 43.5764 28.3134 44.5891 26.8604C46.02 24.824 46.4603 22.5234 46.3503 20.0798C46.3392 19.8706 46.2512 19.7826 46.042 19.7826C44.8422 19.7826 43.6534 19.7826 42.4536 19.7826C42.2114 19.7826 42.1234 19.8926 42.0904 20.1238C41.8262 21.6428 41.595 23.1619 41.2758 24.6699C40.6043 27.785 39.4486 30.691 37.4782 33.2337C36.2454 34.8298 34.7484 36.0957 32.8441 36.8442C32.6459 36.9212 32.5028 37.0093 32.5469 37.2625C32.778 38.6604 33.1523 40.0033 34.1209 41.0931C34.9465 42.0177 35.9922 42.48 37.214 42.5351C37.9956 42.5681 38.7771 42.5461 39.5696 42.5681C40.2081 42.5791 40.6043 42.9203 40.6264 43.4377C40.6594 43.944 40.3181 44.3513 39.8118 44.4063C39.7458 44.4173 39.6797 44.4173 39.6027 44.4173C33.2073 44.4173 26.8119 44.4173 20.4166 44.4173C19.7672 44.4173 19.3599 43.955 19.4479 43.3606C19.514 42.8983 19.8882 42.6011 20.4606 42.5791C21.1101 42.5571 21.7485 42.5571 22.3979 42.5571C24.6435 42.5791 26.1075 41.4783 26.944 39.453C27.2302 38.7595 27.3843 38.033 27.5054 37.3065C27.5495 37.0753 27.4614 36.9543 27.2412 36.8662C24.4563 35.7765 22.6071 33.674 21.1761 31.1643C19.6351 28.4675 18.8315 25.5175 18.3582 22.4684C18.2371 21.6979 18.083 20.9273 17.9619 20.1568C17.9179 19.8926 17.8078 19.8046 17.5546 19.8046C16.3879 19.8046 15.2211 19.8046 14.0433 19.8046C13.8011 19.8046 13.702 19.8926 13.691 20.1458C13.5919 22.8096 14.1313 25.2863 15.8595 27.3998C16.7401 28.4675 17.8408 29.26 19.0847 29.8434C19.2388 29.9095 19.3819 29.9755 19.536 30.0526C20.0644 30.3277 20.2625 30.8011 20.0423 31.2854C19.8222 31.7587 19.3158 31.9458 18.7875 31.7257C17.7418 31.2854 16.7731 30.724 15.8925 29.9975C13.4709 28.0052 12.26 25.3964 11.9188 22.3363C11.7977 21.2356 11.8087 20.1458 11.9298 19.0451C12.0179 18.2415 12.3261 17.9553 13.1296 17.9553C14.4725 17.9553 15.8265 17.9443 17.1694 17.9663C17.5326 17.9773 17.5877 17.8342 17.5326 17.537C17.4115 16.8986 17.3015 16.2712 17.2024 15.6327C17.0923 14.8622 17.4776 14.4219 18.2591 14.4219C20.3726 14.4219 22.497 14.4219 24.6104 14.4219C26.4157 14.3999 28.2099 14.3999 30.0151 14.3999ZM29.9821 16.2602C26.5258 16.2602 23.0804 16.2712 19.6241 16.2492C19.2168 16.2492 19.1727 16.3813 19.2388 16.7225C19.492 18.1314 19.7341 19.5404 19.9653 20.9494C20.3175 23.0518 20.6478 25.1542 21.3742 27.1686C22.2659 29.6343 23.4657 31.9018 25.469 33.652C27.1972 35.171 29.1676 35.9196 31.4791 35.3362C33.2293 34.8959 34.5722 33.8171 35.706 32.4632C37.6323 30.1516 38.7331 27.4438 39.3825 24.5378C39.9549 22.0061 40.2851 19.4303 40.7364 16.8766C40.8465 16.2712 40.8465 16.2602 40.2521 16.2602C36.8288 16.2602 33.4054 16.2602 29.9821 16.2602ZM30.0482 42.5681C30.8737 42.5681 31.6993 42.5681 32.5248 42.5681C32.6129 42.5681 32.734 42.6121 32.789 42.502C32.833 42.403 32.734 42.3259 32.6679 42.2599C31.6552 41.1041 31.1379 39.7281 30.8297 38.2531C30.6536 37.3835 30.6646 37.3946 29.762 37.3835C29.4648 37.3835 29.3327 37.4496 29.2776 37.7798C29.0245 39.4199 28.4851 40.95 27.3843 42.2379C27.3183 42.3149 27.1752 42.392 27.2522 42.513C27.3183 42.6121 27.4504 42.5681 27.5605 42.5681C28.397 42.5681 29.2226 42.5681 30.0482 42.5681Z" fill="#E04E39"/>
<path d="M21.5834 20.3774C21.5834 19.8711 21.9357 19.4638 22.398 19.3978C22.8713 19.3317 23.3006 19.6399 23.4107 20.1683C23.5868 21.0379 23.7519 21.9185 23.906 22.7991C24.1152 24.0649 24.4564 25.2978 24.9077 26.4976C24.9847 26.7067 25.0728 26.9049 25.0288 27.136C24.9627 27.5543 24.6435 27.8735 24.2472 27.9286C23.829 27.9946 23.4217 27.7525 23.2456 27.3122C22.7612 26.0903 22.409 24.8355 22.1558 23.5586C21.9687 22.5789 21.7926 21.5883 21.6165 20.5976C21.6165 20.5095 21.5944 20.4325 21.5834 20.3774Z" fill="#E04E39"/>
<path d="M27.1422 30.658C27.1312 31.1974 26.713 31.6267 26.2066 31.6046C25.6232 31.5826 25.1059 31.0873 25.1279 30.5699C25.1499 30.0636 25.6452 29.5793 26.1516 29.5903C26.6909 29.6013 27.1533 30.1076 27.1422 30.658Z" fill="#E04E39"/>
</svg>
