<svg width="60" height="60" viewBox="0 0 60 60" fill="none" xmlns="http://www.w3.org/2000/svg">
<rect width="60" height="60" rx="12" fill="#FFF7F7"/>
<path d="M36.8059 29.5186C36.8059 33.9407 35.9679 37.9075 34.6457 40.7407C33.2951 43.6348 31.5789 45.0876 29.9404 45.0876C28.3019 45.0876 26.5856 43.6348 25.2351 40.7407C23.9129 37.9075 23.0749 33.9407 23.0749 29.5186C23.0749 25.0966 23.9129 21.1298 25.2351 18.2966C26.5856 15.4024 28.3019 13.9497 29.9404 13.9497C31.5789 13.9497 33.2951 15.4024 34.6457 18.2966C35.9679 21.1298 36.8059 25.0966 36.8059 29.5186Z" stroke="#E04E39" stroke-width="1.5"/>
<path d="M26.5077 23.5726C30.3373 21.3616 34.1916 20.1039 37.3064 19.8323C40.4881 19.5549 42.6043 20.3148 43.4235 21.7338C44.2428 23.1528 43.8428 25.3655 42.0117 27.9822C40.2191 30.5438 37.2028 33.253 33.3732 35.464C29.5436 37.675 25.6893 38.9327 22.5745 39.2042C19.3928 39.4817 17.2766 38.7217 16.4574 37.3027C15.6381 35.8838 16.0381 33.6711 17.8692 31.0544C19.6618 28.4927 22.6781 25.7836 26.5077 23.5726Z" stroke="#E04E39" stroke-width="1.5"/>
<path d="M33.3731 23.5727C37.2027 25.7837 40.219 28.4928 42.0116 31.0544C43.8427 33.6712 44.2427 35.8838 43.4234 37.3028C42.6042 38.7218 40.488 39.4817 37.3063 39.2043C34.1915 38.9327 30.3372 37.6751 26.5076 35.464C22.678 33.253 19.6617 30.5439 17.8691 27.9823C16.038 25.3655 15.638 23.1529 16.4573 21.7339C17.2765 20.3149 19.3927 19.555 22.5744 19.8324C25.6892 20.104 29.5435 21.3616 33.3731 23.5727Z" stroke="#E04E39" stroke-width="1.5"/>
<circle cx="29.9404" cy="29.5187" r="2.51378" stroke="#E04E39" stroke-width="1.5"/>
</svg>
