<svg width="40" height="40" viewBox="0 0 40 40" fill="none" xmlns="http://www.w3.org/2000/svg">
<circle cx="20" cy="20" r="20" fill="#E04E39"/>
<path d="M28.4025 14H11.5975C11.4391 14.0002 11.2872 14.0544 11.1751 14.1509C11.0631 14.2474 11.0001 14.3782 11 14.5147V15.55C11 15.5977 11.0601 15.6524 11.1092 15.6746L19.9423 20.0186C19.9649 20.0298 19.9905 20.0355 20.0166 20.0353C20.0432 20.0354 20.0694 20.0293 20.0923 20.0176L28.6585 15.6788C28.7066 15.6557 28.8343 15.5945 28.8822 15.5663C28.9402 15.5323 29 15.5015 29 15.4405V14.5144C28.9998 14.3781 28.9368 14.2473 28.8248 14.1509C28.7128 14.0544 28.5609 14.0002 28.4025 14Z" fill="white"/>
<path d="M28.9254 17.1111C28.9024 17.0998 28.8764 17.0939 28.8499 17.094C28.8234 17.0942 28.7975 17.1003 28.7747 17.1119L23.927 19.5676C23.9077 19.5773 23.8912 19.5906 23.8787 19.6065C23.8661 19.6225 23.8579 19.6406 23.8547 19.6597C23.8514 19.6787 23.8532 19.6981 23.8599 19.7165C23.8665 19.7349 23.8779 19.7517 23.8931 19.7658L28.7415 24.2656C28.7553 24.2786 28.7722 24.289 28.791 24.2961C28.8098 24.3031 28.8301 24.3068 28.8506 24.3067C28.8902 24.3067 28.9282 24.2931 28.9562 24.269C28.9842 24.2449 28.9999 24.2122 29 24.1781V17.2228C29.0001 17.2001 28.9933 17.1779 28.9802 17.1583C28.9671 17.1387 28.9482 17.1224 28.9254 17.1111Z" fill="white"/>
<path d="M22.5301 20.3922C22.507 20.3706 22.4761 20.3565 22.4425 20.3521C22.4088 20.3478 22.3745 20.3536 22.3451 20.3684L20.4021 21.3528C20.2882 21.4095 20.1592 21.4397 20.0278 21.4404C19.8963 21.4411 19.7669 21.4124 19.6522 21.3571L17.9422 20.516C17.9146 20.5024 17.8827 20.4968 17.8511 20.4999C17.8195 20.503 17.7899 20.5147 17.7666 20.5333L11.273 25.7192C11.256 25.7329 11.2429 25.7499 11.2349 25.7687C11.2268 25.7875 11.2239 25.8077 11.2265 25.8276C11.2291 25.8476 11.2371 25.8667 11.2498 25.8835C11.2625 25.9004 11.2796 25.9144 11.2997 25.9245C11.4007 25.9756 11.4982 26 11.5973 26H28.2304C28.2595 26.0001 28.288 25.9927 28.3123 25.979C28.3367 25.9652 28.3557 25.9455 28.3672 25.9225C28.3789 25.8996 28.3825 25.8743 28.3776 25.8496C28.3727 25.825 28.3595 25.8021 28.3396 25.7838L22.5301 20.3922Z" fill="white"/>
<path d="M16.3378 19.9198C16.355 19.9061 16.3682 19.8891 16.3764 19.8702C16.3846 19.8513 16.3875 19.831 16.3849 19.811C16.3822 19.7909 16.3742 19.7717 16.3613 19.7549C16.3485 19.738 16.3312 19.724 16.3109 19.7139L11.2228 17.2117C11.2001 17.2006 11.1744 17.1948 11.1483 17.1949C11.1222 17.1951 11.0965 17.2011 11.074 17.2124C11.0514 17.2238 11.0327 17.24 11.0197 17.2595C11.0068 17.279 11 17.3011 11 17.3236V23.8891C10.9998 23.9141 11.0082 23.9387 11.0241 23.9597C11.04 23.9807 11.0627 23.9973 11.0894 24.0073C11.1161 24.0173 11.1456 24.0204 11.1743 24.0161C11.203 24.0119 11.2296 24.0004 11.2508 23.9833L16.3378 19.9198Z" fill="white"/>
</svg>
