<svg width="40" height="40" viewBox="0 0 40 40" fill="none" xmlns="http://www.w3.org/2000/svg">
<circle cx="20" cy="20" r="20" fill="#E04E39"/>
<path d="M28.7499 25.1361L26.2121 27.5137C25.8375 27.8765 25.3409 27.9994 24.8573 28C22.7188 27.9395 20.6974 26.9474 19.0376 25.9286C16.3133 24.0568 13.8136 21.7358 12.2448 18.931C11.6431 17.7548 10.937 16.2541 11.0045 14.9413C11.0105 14.4474 11.1514 13.9628 11.5197 13.6444L14.0575 11.2488C14.5844 10.8255 15.0941 10.9719 15.4313 11.465L17.473 15.1214C17.6879 15.5546 17.5646 16.0187 17.244 16.3283L16.309 17.2108C16.2513 17.2855 16.2145 17.3705 16.2136 17.463C16.5721 18.7737 17.6583 19.9818 18.6178 20.8132C19.5773 21.6446 20.6087 22.771 21.9475 23.0377C22.1129 23.0813 22.3156 23.0966 22.434 22.9927L23.5217 21.948C23.8966 21.6796 24.438 21.5484 24.8383 21.7679H24.8573L28.54 23.8212C29.0806 24.1413 29.137 24.7598 28.7499 25.1361Z" fill="white"/>
</svg>
