<svg width="364" height="435" viewBox="0 0 364 435" fill="none" xmlns="http://www.w3.org/2000/svg">
<path d="M177.829 432.488C275.727 432.488 355.09 352.997 355.09 254.941C355.09 156.885 275.727 77.395 177.829 77.395C79.9307 77.395 0.568359 156.885 0.568359 254.941C0.568359 352.997 79.9307 432.488 177.829 432.488Z" fill="#D34A36"/>
<path d="M209.082 415.543C210.351 415.174 220.819 385.914 205.899 375.346C190.98 364.776 209.082 415.543 209.082 415.543Z" fill="#94D29D"/>
<path d="M208.464 416.276C208.464 416.276 197.936 394.035 188.119 392.506C178.302 390.977 208.464 416.276 208.464 416.276Z" fill="#94D29D"/>
<path d="M174.668 368.507L173.437 368.909C168.589 358.207 161.137 350.275 153.885 343.622C146.12 336.495 130.724 327.651 111.29 328.849C103.278 329.341 97.3321 330.873 94.4351 331.763L93.8345 330.34C131.645 315.485 153.398 332.933 164.62 348.814C171.802 358.983 174.668 368.507 174.668 368.507Z" fill="#67B375"/>
<path d="M217.68 346.387L174.666 368.506C171.539 361.753 166.76 355.426 162.765 350.788C158.768 346.15 155.553 343.2 155.553 343.2C129.946 319.681 93.832 330.337 93.832 330.337L125.432 298.441C144.489 292.001 161.2 295.39 174.979 302.7C201.963 317.022 217.68 346.387 217.68 346.387Z" fill="#EC6A57"/>
<path d="M176.024 365.076C175.996 364.952 172.65 353.879 162.321 342.676C156.27 336.115 148.876 331.264 140.344 328.262C129.657 324.498 117.135 323.636 103.127 325.696L100.969 326.015L126.651 300.605L126.767 300.551C127.098 300.402 135.002 296.909 147.276 297.415C154.471 297.713 161.665 299.338 168.661 302.25C177.389 305.882 185.831 311.534 193.75 319.051C194.368 319.625 209.66 334.79 213.554 345.108L176.024 365.076ZM176.403 363.469L211.578 344.155C210.021 340.035 206.281 334.573 200.762 328.36C196.568 323.641 192.803 320.128 192.768 320.095C184.988 312.709 176.711 307.159 168.161 303.595C161.33 300.746 154.309 299.149 147.294 298.85C139.68 298.524 133.71 299.818 130.356 300.812C128.594 301.332 126.989 302.28 125.685 303.572L107.886 321.182C106.958 322.099 107.689 323.674 108.992 323.558C120.819 322.501 131.517 323.628 140.861 326.924C149.618 330.016 157.206 335.003 163.417 341.754C168.938 347.754 172.322 354.061 174.187 358.297C175.636 361.586 176.067 362.235 176.403 363.469Z" fill="#D34A36"/>
<path d="M175.092 314.783C177.853 321.311 175.703 326.877 169.182 329.642C162.664 332.407 154.245 331.326 151.484 324.794C148.724 318.266 150.684 312.829 157.203 310.063C163.721 307.298 172.331 308.251 175.092 314.783Z" fill="#D34A36"/>
<path d="M203.914 289.236C203.914 289.236 208.57 303.873 214.972 311.519L182.022 327.42C182.022 327.42 170.189 263.141 186.274 215.321C190.89 201.591 192.873 184.257 193.931 165.745C196.553 119.78 193.456 66.5543 210.768 43.27C210.768 43.27 197.418 132.598 207.225 175.661C217.034 218.723 185.517 232.567 203.914 289.236Z" fill="#DC5946"/>
<path d="M196.322 180.926C195.277 176.338 194.494 171.222 193.932 165.748C192.874 184.26 190.891 201.594 186.275 215.324C183.906 222.368 182.142 229.772 180.857 237.271C180.741 237.087 173.388 225.422 162.337 215.301C151.355 205.239 136.723 196.706 121.928 202.489C121.928 202.489 169.214 212.326 177.832 275.129C177.733 304.116 182.023 327.423 182.023 327.423L204.069 316.784C197.664 309.138 193.011 294.501 193.011 294.501C174.614 237.83 206.128 223.989 196.322 180.926Z" fill="#F27968"/>
<path d="M180.86 237.273C180.86 237.273 180.853 237.377 180.835 237.559C180.658 239.51 179.563 250.571 177.502 245.089C175.245 239.091 158.355 220.528 158.355 220.528L162.338 215.298C173.476 225.502 180.86 237.273 180.86 237.273Z" fill="#DC5946"/>
<path d="M289.974 63.076C289.979 63.0785 289.979 63.081 289.984 63.0785L289.729 65.002C285.924 64.8908 278.222 65.0172 268.357 67.0923C250.476 70.8509 237.189 80.6479 228.685 90.0404C225.811 93.2126 223.481 96.3417 221.707 99.1752C215.144 109.647 208.754 121.731 206.445 136.303L204.82 136.227L155.8 125.965L145.408 123.791C145.408 123.791 147.414 114.95 152.381 102.848C158.076 88.9485 167.668 70.7523 182.58 56.6811C191.18 48.565 201.554 41.8239 213.968 38.0704C222.119 35.6111 231.148 34.4357 241.136 35.007L289.981 63.0785C289.981 63.076 289.979 63.0785 289.974 63.076Z" fill="#EC6A57"/>
<path d="M191.421 367.091L192.527 367.475C197.099 357.89 203.978 350.859 210.653 344.977C217.797 338.676 231.871 330.961 249.415 332.395C256.647 332.986 261.992 334.477 264.594 335.334L265.164 334.06C231.263 319.951 211.289 335.327 200.859 349.476C194.185 358.535 191.421 367.091 191.421 367.091Z" fill="#67B375"/>
<path d="M152.949 346.321L191.423 367.088C194.371 361.042 198.802 355.411 202.499 351.291C206.196 347.171 209.153 344.562 209.153 344.562C232.718 323.77 265.163 334.055 265.163 334.055L237.182 304.661C220.078 298.497 204.911 301.257 192.329 307.616C167.684 320.07 152.949 346.321 152.949 346.321Z" fill="#EC6A57"/>
<path d="M156.704 345.242C160.408 335.988 174.502 322.559 175.07 322.051C182.36 315.404 190.09 310.447 198.044 307.323C204.419 304.818 210.952 303.478 217.458 303.339C228.559 303.102 235.637 306.403 235.935 306.544L236.041 306.595L258.791 330.023L256.845 329.697C244.222 327.582 232.892 328.138 223.166 331.343C215.404 333.903 208.633 338.152 203.046 343.973C193.509 353.909 190.287 363.855 190.259 363.966L156.704 345.242ZM192.041 357.875C193.805 354.081 196.977 348.439 202.072 343.119C207.805 337.131 214.753 332.761 222.722 330.127C231.226 327.316 240.911 326.49 251.583 327.66C252.757 327.789 253.446 326.378 252.626 325.532L236.859 309.294C235.703 308.104 234.27 307.217 232.687 306.714C229.674 305.756 224.302 304.479 217.415 304.636C211.068 304.78 204.696 306.094 198.471 308.546C190.68 311.615 183.1 316.48 175.935 323.014C175.9 323.045 172.435 326.151 168.562 330.339C163.462 335.854 159.984 340.723 158.503 344.418L189.944 362.505C190.269 361.398 190.673 360.82 192.041 357.875Z" fill="#D34A36"/>
<path d="M192.006 318.531C189.394 324.382 191.238 329.45 197.078 332.066C202.92 334.682 210.546 333.855 213.158 328.007C215.77 322.155 214.097 317.209 208.255 314.59C202.415 311.974 194.617 312.679 192.006 318.531Z" fill="#D34A36"/>
<path d="M228.685 90.0408C225.811 93.2129 223.481 96.3421 221.707 99.1755C215.144 109.647 208.754 121.732 206.445 136.303L204.82 136.228L155.8 125.966C154.089 117.718 152.971 110.001 152.381 102.848C158.076 88.9489 167.668 70.7527 182.58 56.6815C191.18 48.5654 201.554 41.8243 213.968 38.0708C214.477 38.134 214.75 38.177 214.75 38.177C214.75 38.177 207.285 68.7559 228.685 90.0408Z" fill="#E86452"/>
<path d="M177.26 101.756L125.929 134.195L124.435 134.835C121.735 130.048 118.628 125.784 115.277 121.929C109.642 115.438 103.338 110.102 97.1832 105.388C93.4357 102.515 88.4417 99.4738 82.476 96.9184C71.7333 92.3207 57.8186 89.2977 42.2837 91.6509C32.3208 93.1573 25.058 95.7304 21.5327 97.1661L20.6191 95.4549L20.6217 95.4524L56.5972 52.0586C65.3993 48.1863 73.9263 46.1313 82.1152 45.4944C95.4394 44.4555 107.85 47.1626 119.024 51.8766C135.339 58.7592 149.001 69.9186 158.987 79.9456C170.623 91.6256 177.26 101.756 177.26 101.756Z" fill="#EC6A57"/>
<path d="M158.987 79.948C163.065 90.4325 161.892 101.157 152.731 109.286C142.713 118.17 128.654 121.739 115.274 121.931C109.639 115.441 103.336 110.105 97.1807 105.391C93.4333 102.517 88.4392 99.4762 82.4736 96.9208C103.787 79.7054 82.1152 45.4968 82.1152 45.4968C95.4395 44.458 107.85 47.165 119.024 51.879C135.337 58.7617 149.002 69.921 158.987 79.948Z" fill="#E86452"/>
<path d="M92.0779 104.539C92.0779 104.539 86.1375 94.7045 68.9043 108.154C68.9043 108.154 80.9819 113.805 92.0779 104.539Z" fill="#FCB222"/>
<path d="M288.399 132.57C288.404 132.57 288.414 132.57 288.414 132.57L239.566 104.499C214.358 103.055 195.257 112.728 181.01 126.173C153.104 152.5 143.838 193.283 143.838 193.283L203.249 205.719V205.721L204.875 205.797C207.186 191.228 213.573 179.144 220.139 168.672C227.17 157.457 242.866 141.619 266.79 136.589C276.654 134.516 284.356 134.387 288.161 134.499L288.416 132.575C288.409 132.573 288.404 132.573 288.399 132.57Z" fill="#D34A36"/>
<path d="M54.2177 187.578C54.2152 187.58 54.2076 187.591 54.2076 187.591L62.7296 131.834C77.3106 111.191 96.7695 102.256 116.145 99.4734C154.092 94.0239 191.713 112.18 191.713 112.18L164.395 166.465V166.467L163.441 167.787C150.624 160.517 137.209 157.99 124.94 156.607C111.802 155.124 89.6532 157.55 70.8175 173.155C63.0526 179.591 58.1519 185.543 55.8656 188.592L54.2051 187.593C54.2126 187.588 54.2152 187.583 54.2177 187.578Z" fill="#D34A36"/>
<path d="M137.171 120.503L135.546 120.448C134.41 105.74 129.01 93.1801 123.304 82.2153C117.194 70.4696 102.815 53.4235 79.3742 46.4902C69.7091 43.6315 62.0401 42.8859 58.2396 42.6887L58.1387 40.7501C109.109 39.4635 127.304 69.3928 133.744 92.9501C137.865 108.032 137.171 120.503 137.171 120.503Z" fill="#D34A36"/>
<path d="M197.387 112.878L137.171 120.501C136.373 111.192 133.443 101.673 130.713 94.4844C127.983 87.2959 125.451 82.4328 125.451 82.4328C105.309 43.6872 58.1387 40.7476 58.1387 40.7476L109.076 16.6899C134.317 17.2763 152.584 28.4534 165.709 42.9947C191.414 71.4833 197.387 112.878 197.387 112.878Z" fill="#EC6A57"/>
<path d="M140.237 117.036C140.257 116.876 141.052 102.375 133.658 84.7252C129.328 74.3848 122.681 65.4851 113.902 58.2789C102.904 49.2503 88.4996 42.853 71.0897 39.2663L68.4072 38.7128L109.584 19.7633L109.745 19.7507C110.2 19.7178 121.02 18.9899 135.283 24.859C143.644 28.2991 151.437 33.3088 158.444 39.7491C167.189 47.7843 174.726 58.0767 180.851 70.3457C181.333 71.2885 192.883 95.7506 193.06 109.594L140.237 117.036ZM141.375 115.302L191.144 107.625C191.071 102.095 188.997 94.0445 185.146 84.3461C182.219 76.9756 179.281 71.2177 179.251 71.1596C173.232 59.1029 165.843 49.0001 157.284 41.1216C150.445 34.8253 142.844 29.9268 134.695 26.5601C125.853 22.9077 118.255 21.8688 113.871 21.5984C111.57 21.4568 109.271 21.8865 107.176 22.8495L78.6376 35.983C77.1488 36.6679 77.338 38.8391 78.9228 39.2613C93.3322 43.0931 105.468 49.0178 115.083 56.9216C124.092 64.3275 130.91 73.4749 135.347 84.1034C139.291 93.5541 140.583 102.449 140.972 108.25C141.274 112.751 141.504 113.704 141.375 115.302Z" fill="#D34A36"/>
<path d="M141.585 44.0485C132.71 44.5111 128.071 50.0819 128.531 58.9715C128.992 67.8611 138.461 72.7545 147.336 72.2919C156.211 71.8294 161.132 66.1878 160.67 57.2982C160.211 48.4086 150.46 43.586 141.585 44.0485Z" fill="#D34A36"/>
<path d="M136.826 188.855L135.65 189.979C124.347 180.521 111.603 175.62 99.78 172.054C87.122 168.229 64.8972 166.632 43.5708 178.593C34.7788 183.524 28.8889 188.501 26.0928 191.089L24.6367 189.807C59.3177 152.371 93.4106 160.232 114.74 172.069C128.399 179.647 136.826 188.855 136.826 188.855Z" fill="#D34A36"/>
<path d="M173.435 140.363L136.824 188.852C129.614 182.92 120.769 178.375 113.726 175.309C106.683 172.246 101.439 170.664 101.439 170.664C59.6845 158.041 24.6401 189.803 24.6401 189.803L43.0266 136.486C61.0749 118.802 81.8184 113.512 101.376 114.263C139.683 115.734 173.435 140.363 173.435 140.363Z" fill="#EC6A57"/>
<path d="M136.49 184.234C136.392 184.108 126.585 173.411 108.81 166.382C98.3949 162.264 87.3948 160.814 76.1146 162.075C61.9803 163.652 47.3513 169.509 32.629 179.485L30.3604 181.022L45.5798 138.27L45.6833 138.146C45.976 137.797 53.0141 129.532 67.1686 123.408C75.466 119.818 84.4877 117.731 93.9837 117.205C105.832 116.548 118.452 118.335 131.496 122.513C132.506 122.824 158.051 131.63 168.067 141.174L136.49 184.234ZM136.046 182.21L165.322 141.172C161.319 137.36 154.12 133.225 144.497 129.211C137.189 126.16 131.019 124.244 130.959 124.227C118.142 120.122 105.761 118.363 94.1528 118.994C84.8788 119.5 76.0692 121.527 67.9711 125.018C59.1842 128.804 53.1353 133.528 49.8824 136.48C48.174 138.03 46.8744 139.979 46.1022 142.152L35.5538 171.781C35.0037 173.325 36.6894 174.708 38.095 173.866C50.8969 166.215 63.6079 161.653 75.9682 160.28C87.5538 158.996 98.8491 160.498 109.544 164.739C119.05 168.513 126.31 173.798 130.724 177.572C134.153 180.499 134.994 180.999 136.046 182.21Z" fill="#D34A36"/>
<path d="M108.078 127.864C101.406 121.987 91.148 125.607 85.2808 132.29C79.4136 138.975 80.153 146.191 86.8277 152.071C93.5025 157.947 103.609 154.578 109.479 147.895C115.346 141.209 114.751 133.74 108.078 127.864Z" fill="#D34A36"/>
<path d="M199.254 111.96L200.758 111.338C196.692 97.1585 197.371 83.5019 198.895 71.2304C200.523 58.0894 208.051 37.0825 227.598 22.3845C235.658 16.3233 242.583 12.9414 246.075 11.4274L245.492 9.57715C197.285 26.2062 190.673 60.6144 192.856 84.9426C194.254 100.518 199.254 111.96 199.254 111.96Z" fill="#D34A36"/>
<path d="M140.172 125.884L199.256 111.957C196.755 102.957 196.182 93.013 196.233 85.3215C196.283 77.6301 196.959 72.1881 196.959 72.1881C202.319 28.8347 245.492 9.57694 245.492 9.57694L189.374 4.85791C165.927 14.2378 152.709 31.102 145.484 49.3235C131.332 85.0056 140.172 125.884 140.172 125.884Z" fill="#EC6A57"/>
<path d="M143.079 121.295C138.416 108.26 140.707 81.2979 140.831 80.2464C142.292 66.6075 145.764 54.3259 151.154 43.7377C155.475 35.2526 161.029 27.8316 167.663 21.6819C178.979 11.1924 189.373 8.08847 189.81 7.95956L189.964 7.91406L235.155 11.2631L232.836 12.719C217.776 22.1723 206.508 33.2052 199.354 45.5146C193.641 55.3394 190.517 66.0034 190.065 77.2082C189.295 96.3346 195.097 109.645 195.17 109.786L143.079 121.295ZM191.42 101.809C189.762 96.241 187.869 87.4526 188.271 77.2183C188.72 65.7051 191.92 54.7505 197.777 44.6578C204.028 33.8877 213.334 24.0907 225.498 15.4589C226.835 14.5111 226.255 12.4081 224.622 12.2868L193.303 9.96647C191.004 9.79712 188.7 10.199 186.595 11.1368C182.583 12.9238 175.825 16.5534 168.814 23.0721C162.354 29.0777 156.941 36.3268 152.727 44.6199C147.452 54.9982 144.053 67.0498 142.617 80.4511C142.61 80.5143 141.865 86.9395 141.694 94.8686C141.469 105.305 142.332 113.573 144.195 118.78L193.504 108.558C192.821 107.105 192.707 106.132 191.42 101.809Z" fill="#D34A36"/>
<path d="M168.451 41.8646C159.974 44.5363 152.52 52.4679 155.19 60.9581C157.857 69.4483 164.436 73.0122 172.913 70.3405C181.389 67.6689 188.556 59.7701 185.886 51.2799C183.219 42.7922 176.93 39.1929 168.451 41.8646Z" fill="#D34A36"/>
<path d="M149.368 138.11L29.9473 243.896L74.2394 294.058L193.66 188.273L149.368 138.11Z" fill="#EC6A57"/>
<path d="M40.7251 242.41L76.042 282.404L181.518 188.966L146.201 148.969L40.7251 242.41ZM173.241 182.632C176.247 186.036 175.929 191.226 172.529 194.236L81.7174 274.682C78.6766 277.374 74.0358 277.091 71.3457 274.045L48.9241 248.653C45.9614 245.299 46.2744 240.18 49.6256 237.213L140.097 157.065C143.37 154.166 148.374 154.472 151.271 157.75L173.241 182.632Z" fill="#D34A36"/>
<path d="M123.741 204.508C117.67 197.633 107.182 196.988 100.315 203.07C93.4488 209.151 92.8053 219.656 98.8795 226.534C104.951 233.411 115.439 234.053 122.305 227.972C129.169 221.89 129.813 211.383 123.741 204.508Z" fill="#D34A36"/>
<path opacity="0.5" d="M149.36 138.103L193.653 188.263L100.292 270.969C103.783 265.416 142.304 228.23 141.663 202.754C140.884 171.839 125.222 162.252 124.501 160.129L149.36 138.103Z" fill="#E45F4C"/>
<path d="M317.904 76.828L174.586 146.766L203.869 206.966L347.187 137.028L317.904 76.828Z" fill="#EC6A57"/>
<path d="M185.364 148.229L208.712 196.228L335.3 134.456L311.952 86.4565L185.364 148.229ZM329.014 126.137C331 130.222 329.309 135.138 325.231 137.127L216.245 190.313C212.596 192.093 208.2 190.573 206.421 186.921L191.597 156.446C189.639 152.419 191.307 147.571 195.327 145.61L303.907 92.6239C307.836 90.708 312.576 92.3433 314.491 96.2788L329.014 126.137Z" fill="#D34A36"/>
<path d="M253.287 126.289C245.047 130.311 241.623 140.259 245.635 148.512C249.65 156.765 259.583 160.197 267.822 156.176C276.061 152.154 279.486 142.206 275.473 133.953C271.461 125.7 261.526 122.268 253.287 126.289Z" fill="#D34A36"/>
<path opacity="0.5" d="M317.897 76.8315L347.178 137.031L235.13 191.708C239.976 187.293 287.027 161.782 293.212 137.064C300.717 107.067 288.185 93.6325 288.059 91.393L317.897 76.8315Z" fill="#DC5541"/>
<path d="M95.121 177.305C95.121 177.305 85.4715 172.498 79.1239 174.704C72.7763 176.91 66.9919 186.41 66.9919 186.41C66.9919 186.41 80.2506 185.853 84.8033 183.277C89.3609 180.703 95.121 177.305 95.121 177.305Z" fill="#FCB222"/>
<path d="M272.115 182.473C272.115 182.473 281.765 177.666 288.112 179.872C294.46 182.078 300.244 191.578 300.244 191.578C300.244 191.578 286.986 191.021 282.433 188.445C277.875 185.871 272.115 182.473 272.115 182.473Z" fill="#FCB222"/>
<path d="M49.6528 198.914C49.6528 198.914 41.0933 199.576 37.6579 203.679C34.2225 207.782 34.1549 216.639 34.1549 216.639C34.1549 216.639 42.9873 210.837 45.0449 207.215C47.1064 203.592 49.6528 198.914 49.6528 198.914Z" fill="#FCB222"/>
<path d="M240.47 210.232C240.47 210.232 247.006 210.737 249.63 213.871C252.253 217.004 252.305 223.768 252.305 223.768C252.305 223.768 245.56 219.337 243.988 216.571C242.414 213.804 240.47 210.232 240.47 210.232Z" fill="#FCB222"/>
<path d="M49.4333 102.714C49.4333 102.714 41.2149 100.232 36.5271 102.813C31.8392 105.394 28.5695 113.626 28.5695 113.626C28.5695 113.626 38.9035 111.415 42.1329 108.783C45.3662 106.152 49.4333 102.714 49.4333 102.714Z" fill="#FCB222"/>
<path d="M225.576 101.187C225.576 101.187 235.572 87.2755 241.914 87.2275C248.255 87.1769 253.787 91.6584 253.787 91.6584C253.787 91.6584 247.826 95.3082 242.857 97.4162C237.894 99.5217 232.511 96.7515 225.576 101.187Z" fill="#FCB222"/>
<path d="M268 78.682C268 78.682 277.697 70.8952 282.277 72.043C286.856 73.189 290.04 77.3272 290.04 77.3272C290.04 77.3272 285.09 78.7484 281.131 79.285C277.176 79.8207 273.793 76.897 268 78.682Z" fill="#FCB222"/>
<path d="M219.969 34.1828C219.969 34.1828 226.861 25.3286 231.426 24.4137C235.988 23.5012 241.245 23.9157 241.245 23.9157C241.245 23.9157 237.664 29.3905 232.657 31.5491C227.65 33.7077 219.969 34.1828 219.969 34.1828Z" fill="#FCB222"/>
<path d="M138.716 16.4673C138.716 16.4673 131.252 12.9186 130.848 7.89875C130.441 2.87641 130.795 0 130.795 0C130.795 0 137.411 2.79805 138.852 6.25581C140.291 9.71609 138.716 16.4673 138.716 16.4673Z" fill="#FCB222"/>
<path d="M162.808 17.4479C162.808 17.4479 158.202 10.6714 160.577 6.94828C162.954 3.22513 168.382 0.604004 168.382 0.604004C168.382 0.604004 170.514 7.17577 168.872 9.6427C167.229 12.1096 162.924 15.1048 162.808 17.4479Z" fill="#FCB222"/>
<path d="M215 247C215 247 222.694 251.274 224.009 253.473C225.324 255.672 221.475 264.744 221.475 264.744C221.475 264.744 216.605 260.139 216.186 256.863C215.767 253.587 215 247 215 247Z" fill="#FCB222"/>
<path d="M177.953 204.271C177.953 204.271 172.257 209.851 173.13 214.07C174.001 218.286 175.611 220.829 175.611 220.829C175.611 220.829 183.151 211.295 177.953 204.271Z" fill="#FCB222"/>
<path d="M180.023 203.27C180.023 203.27 183.279 204.66 184.132 206.313C184.982 207.963 184.563 209.96 184.563 209.96C184.563 209.96 181.126 209.159 180.023 203.27Z" fill="#FCB222"/>
<path d="M73.04 318.525C73.04 379.542 122.421 429.004 183.341 429.004C189.413 429.004 195.366 428.511 201.173 427.564C253.612 419.03 293.642 373.46 293.642 318.525H73.04Z" fill="#FDAA09"/>
<path d="M209.965 318.525H73.04C73.04 379.542 122.421 429.004 183.341 429.004C189.413 429.004 195.366 428.511 201.173 427.564C199.961 426.879 198.442 426.146 196.592 425.365C152.784 406.911 140.368 370.324 150.737 348.427C161.094 326.553 221.671 321.912 221.671 321.912L209.965 318.525Z" fill="#FFB92C"/>
<path d="M210.982 408.715C251.553 394.366 280.2 359.392 280.2 318.525H256.368C256.368 359.394 243.649 390.769 210.982 408.715Z" fill="#FFB96F"/>
<path d="M97.3315 434.626H268.006C268.006 430.862 266.842 427.457 264.965 424.988C263.085 422.519 260.486 420.994 257.621 420.994H107.713C101.98 420.994 97.3315 427.101 97.3315 434.626Z" fill="#FFB92C"/>
<path d="M70.5289 321.914H297.269V318.525H70.5289V321.914Z" fill="#FFA902"/>
<path d="M14.2441 310.015C14.2441 310.03 14.2693 310.048 14.3172 310.056C14.2693 310.013 14.2441 309.995 14.2441 310.015Z" fill="#FFB96F"/>
<path d="M182.67 429.002C182.556 423.381 186.422 420.992 186.422 420.992H107.713C101.98 420.992 97.3315 427.099 97.3315 434.624H186.422C186.422 434.626 182.781 434.626 182.67 429.002Z" fill="#FDAA09"/>
<path d="M221.134 164.912C238.095 147.991 238.095 120.558 221.134 103.637C204.173 86.7167 176.673 86.7167 159.711 103.637C142.75 120.558 142.75 147.991 159.711 164.912C176.673 181.832 204.173 181.832 221.134 164.912Z" fill="#FDAA09"/>
<path d="M215.135 107.549C229.931 121.163 230.863 144.165 217.216 158.926C203.57 173.687 180.512 174.617 165.716 161.003C150.919 147.389 149.987 124.387 163.634 109.626C177.281 94.8655 200.338 93.9355 215.135 107.549Z" fill="#FFB92C"/>
<path d="M182.325 126.617C182.325 123.791 182.277 120.968 182.34 118.144C182.391 115.824 183.293 114.545 185.327 114.469C191.211 114.253 197.145 113.84 202.941 115.201C210.684 117.019 214.416 122.888 213.167 130.834C211.933 138.69 206.363 143.431 197.924 143.777C196.451 143.837 194.973 143.858 193.501 143.807C192.336 143.768 191.941 144.268 191.95 145.384C191.959 146.516 192.257 147.151 193.558 147.106C195.561 147.037 197.571 147.124 199.574 147.079C200.844 147.052 201.415 147.714 201.538 148.858C201.614 149.556 201.617 150.27 201.593 150.974C201.538 152.581 200.848 153.475 199.067 153.382C197.302 153.288 195.528 153.406 193.76 153.337C192.496 153.288 191.977 153.722 191.935 155.043C191.805 159.086 191.76 159.074 187.735 159.507C186.483 159.642 185.264 159.402 184.042 159.245C182.657 159.068 182.328 158.068 182.295 156.807C182.201 153.34 182.174 153.343 178.608 153.358C177.368 153.364 176.127 153.313 174.89 153.358C173.469 153.409 172.827 152.668 172.73 151.362C172.676 150.601 172.691 149.83 172.736 149.069C172.815 147.753 173.427 147.028 174.869 147.076C176.755 147.136 178.65 146.992 180.53 147.115C182.18 147.223 182.325 146.369 182.349 145.068C182.373 143.687 182.023 142.988 180.472 143.079C178.65 143.184 176.815 143.052 174.987 143.112C173.478 143.16 172.821 142.411 172.733 141.017C172.691 140.373 172.712 139.723 172.712 139.076C172.718 137.474 173.448 136.734 175.126 136.818C176.948 136.911 178.786 136.764 180.611 136.851C181.963 136.914 182.352 136.355 182.322 135.087C182.258 132.264 182.301 129.438 182.301 126.614C182.307 126.617 182.316 126.617 182.325 126.617ZM196.017 121.868C195.211 121.868 194.855 121.871 194.502 121.868C191.947 121.853 191.953 121.853 191.962 124.387C191.971 126.973 191.95 129.561 191.974 132.147C192.025 137.215 191.02 136.541 196.714 136.454C199.969 136.403 202.377 134.308 203.11 131.322C204.031 127.566 203.059 124.393 200.516 122.84C198.986 121.904 197.287 121.826 196.017 121.868Z" fill="#F79502"/>
<path d="M223.542 67.3034C228.533 55.6176 223.096 42.1215 211.398 37.1589C199.7 32.1963 186.172 37.6465 181.181 49.3323C176.19 61.018 181.627 74.5142 193.325 79.4768C205.023 84.4393 218.551 78.9891 223.542 67.3034Z" fill="#FDAA09"/>
<path d="M209.222 40.2727C219.199 44.0377 224.217 55.1689 220.428 65.1353C216.64 75.1016 205.481 80.129 195.504 76.364C185.526 72.599 180.509 61.4678 184.297 51.5014C188.085 41.5351 199.244 36.5078 209.222 40.2727Z" fill="#FFB92C"/>
<path d="M196.86 56.1557C196.3 54.7653 195.716 53.3859 195.188 51.9843C194.753 50.8325 194.944 50.0244 195.929 49.5843C198.781 48.3117 201.619 46.9326 204.74 46.4531C208.909 45.8131 211.908 47.9609 212.869 52.1176C213.818 56.227 212.018 59.6631 207.935 61.5059C207.222 61.8274 206.499 62.1307 205.765 62.3974C205.184 62.609 205.089 62.9331 205.314 63.4807C205.543 64.0356 205.816 64.2889 206.447 64.0089C207.419 63.5778 208.425 63.2225 209.401 62.8032C210.021 62.5381 210.432 62.7509 210.72 63.2891C210.896 63.6177 211.038 63.968 211.166 64.3193C211.458 65.1208 211.295 65.6975 210.401 66.0044C209.514 66.3083 208.665 66.7177 207.781 67.034C207.15 67.2609 206.98 67.577 207.221 68.2354C207.959 70.2498 207.934 70.2528 206.04 71.2638C205.451 71.5786 204.803 71.7017 204.171 71.8669C203.454 72.054 203.095 71.6276 202.828 71.0137C202.095 69.3264 202.082 69.3333 200.331 70.0475C199.722 70.2962 199.102 70.5168 198.502 70.7842C197.813 71.091 197.35 70.8541 197.044 70.2306C196.866 69.8667 196.721 69.4847 196.592 69.1011C196.37 68.4384 196.528 67.9602 197.247 67.698C198.186 67.3539 199.09 66.9073 200.039 66.5955C200.873 66.3217 200.774 65.8724 200.529 65.228C200.267 64.5435 199.956 64.2693 199.211 64.6211C198.335 65.0341 197.407 65.3326 196.519 65.7245C195.786 66.0472 195.314 65.8089 194.995 65.1406C194.847 64.8321 194.728 64.5081 194.6 64.1897C194.285 63.4008 194.498 62.8918 195.34 62.6008C196.255 62.2855 197.13 61.8488 198.045 61.5299C198.723 61.2931 198.803 60.9406 198.537 60.3231C197.946 58.9467 197.407 57.5479 196.847 56.159C196.851 56.1593 196.855 56.1575 196.86 56.1557ZM202.655 51.1054C202.258 51.2651 202.084 51.3371 201.909 51.4056C200.649 51.9047 200.652 51.9035 201.159 53.1485C201.676 54.4187 202.178 55.6963 202.703 56.9635C203.732 59.4469 203.105 59.3144 205.888 58.143C207.48 57.4726 208.249 55.9648 208.018 54.3506C207.726 52.3202 206.619 50.9521 205.06 50.6921C204.122 50.5347 203.271 50.8329 202.655 51.1054Z" fill="#F69502"/>
<path d="M125.733 204.605C138.185 202.073 146.201 189.93 143.639 177.485C141.076 165.039 128.904 157.002 116.453 159.535C104.001 162.068 95.9837 174.21 98.5463 186.656C101.109 199.102 113.281 207.138 125.733 204.605Z" fill="#FDAA09"/>
<path d="M139.84 177.463C142.411 187.813 136.101 198.266 125.748 200.811C115.394 203.356 104.917 197.03 102.346 186.68C99.7753 176.331 106.085 165.877 116.438 163.332C126.792 160.787 137.269 167.113 139.84 177.463Z" fill="#FFB92C"/>
<path d="M119.746 176.315C120.572 175.064 121.375 173.8 122.229 172.569C122.929 171.557 123.703 171.254 124.625 171.815C127.292 173.438 130.039 174.99 132.207 177.286C135.103 180.353 135.04 184.042 132.165 187.194C129.323 190.311 125.472 190.781 121.636 188.468C120.966 188.065 120.306 187.642 119.669 187.189C119.165 186.831 118.844 186.937 118.522 187.434C118.195 187.937 118.142 188.306 118.73 188.666C119.637 189.221 120.501 189.846 121.401 190.412C121.971 190.771 122.03 191.231 121.751 191.773C121.58 192.104 121.373 192.421 121.156 192.726C120.663 193.421 120.096 193.615 119.335 193.053C118.581 192.496 117.761 192.03 116.999 191.483C116.454 191.092 116.097 191.132 115.692 191.704C114.454 193.456 114.437 193.437 112.529 192.453C111.935 192.147 111.466 191.684 110.971 191.258C110.41 190.774 110.556 190.236 110.91 189.668C111.882 188.106 111.869 188.099 110.286 187.064C109.736 186.704 109.202 186.319 108.641 185.978C107.997 185.585 107.929 185.069 108.268 184.463C108.466 184.11 108.698 183.773 108.941 183.45C109.36 182.89 109.843 182.748 110.467 183.191C111.284 183.769 112.165 184.259 112.961 184.862C113.66 185.393 113.974 185.057 114.365 184.488C114.779 183.884 114.828 183.472 114.115 183.059C113.278 182.573 112.505 181.979 111.678 181.471C110.996 181.051 110.924 180.527 111.292 179.885C111.462 179.588 111.661 179.306 111.85 179.02C112.321 178.313 112.861 178.198 113.578 178.726C114.358 179.3 115.214 179.771 115.997 180.343C116.576 180.766 116.912 180.632 117.269 180.063C118.066 178.794 118.911 177.556 119.736 176.306C119.738 176.309 119.742 176.312 119.746 176.315ZM127.194 178.214C126.838 177.978 126.679 177.875 126.524 177.771C125.397 177.018 125.4 177.019 124.663 178.144C123.911 179.291 123.146 180.43 122.401 181.582C120.942 183.84 120.695 183.248 123.24 184.873C124.696 185.802 126.374 185.578 127.571 184.471C129.076 183.077 129.573 181.389 128.901 179.959C128.498 179.097 127.769 178.566 127.194 178.214Z" fill="#F69502"/>
<path d="M99.4209 56.2476C101.535 49.0962 97.4474 41.5989 90.2909 39.502C83.1344 37.4052 75.619 41.5027 73.5048 48.6542C71.3906 55.8056 75.4783 63.3029 82.6348 65.3998C89.7914 67.4966 97.3068 63.3991 99.4209 56.2476Z" fill="#FDAA09"/>
<path d="M89.2344 41.4657C95.3066 42.9815 98.9887 49.1288 97.4586 55.1961C95.9284 61.2635 89.7656 64.9533 83.6934 63.4374C77.6212 61.9216 73.9391 55.7744 75.4692 49.707C76.9994 43.6397 83.1622 39.9499 89.2344 41.4657Z" fill="#FFB92C"/>
<path d="M83.1091 51.5652C82.688 50.7928 82.2541 50.0284 81.8507 49.2474C81.519 48.6056 81.5749 48.1216 82.1195 47.798C83.6951 46.8621 85.2556 45.8651 87.0423 45.3733C89.429 44.7165 91.3236 45.7644 92.1662 48.1221C92.9995 50.4529 92.1837 52.5784 89.929 53.9305C89.5356 54.1663 89.1347 54.3924 88.7246 54.5978C88.4005 54.7606 88.367 54.9561 88.5358 55.2599C88.7069 55.5678 88.8832 55.6969 89.2318 55.4908C89.769 55.1733 90.3312 54.8978 90.872 54.5869C91.2151 54.3903 91.4696 54.4863 91.6739 54.7804C91.7985 54.96 91.9056 55.1545 92.004 55.3506C92.2286 55.7979 92.173 56.1452 91.6726 56.3849C91.1763 56.6224 90.709 56.9189 90.2155 57.1634C89.8628 57.3386 89.7855 57.5344 89.9709 57.9018C90.5377 59.0258 90.5236 59.0293 89.4882 59.7475C89.1662 59.9711 88.7972 60.0869 88.4399 60.2262C88.035 60.384 87.7962 60.1599 87.5992 59.8202C87.057 58.8865 87.05 58.8914 86.0776 59.4269C85.7396 59.6133 85.3931 59.7841 85.0617 59.9808C84.681 60.2065 84.395 60.0999 84.174 59.7573C84.0457 59.5573 83.935 59.3445 83.8339 59.1296C83.6593 58.7584 83.7186 58.4689 84.12 58.2672C84.6443 58.0027 85.1406 57.6809 85.6727 57.4345C86.1399 57.2182 86.0521 56.963 85.8649 56.6041C85.6657 56.2229 85.466 56.0842 85.0556 56.34C84.5733 56.6403 84.0522 56.8774 83.5615 57.1663C83.1564 57.4043 82.8649 57.2975 82.6334 56.9297C82.5258 56.7599 82.4347 56.5791 82.3383 56.4022C82.1014 55.9637 82.1906 55.6526 82.6616 55.4256C83.1736 55.1796 83.6537 54.8655 84.1656 54.6174C84.5444 54.4332 84.5674 54.2222 84.3703 53.8804C83.9323 53.1183 83.5228 52.3396 83.1021 51.568C83.1042 51.5679 83.1066 51.5666 83.1091 51.5652ZM86.1433 48.227C85.9231 48.3471 85.8263 48.401 85.7294 48.4527C85.0287 48.8294 85.0304 48.8285 85.4105 49.5198C85.7982 50.225 86.1781 50.9356 86.57 51.6386C87.3392 53.0162 86.9642 52.9816 88.5071 52.1094C89.3892 51.6103 89.7351 50.6791 89.4906 49.7538C89.1824 48.5901 88.4441 47.8679 87.5176 47.8224C86.9601 47.7945 86.4842 48.0263 86.1433 48.227Z" fill="#F69502"/>
<path d="M221.538 210.423C224.558 200.206 218.718 189.495 208.494 186.499C198.27 183.504 187.533 189.358 184.512 199.575C181.492 209.792 187.332 220.503 197.556 223.498C207.78 226.494 218.517 220.64 221.538 210.423Z" fill="#FDAA09"/>
<path d="M206.984 189.305C215.659 191.47 220.919 200.253 218.733 208.921C216.547 217.589 207.743 222.86 199.067 220.695C190.392 218.529 185.132 209.747 187.318 201.079C189.504 192.411 198.308 187.139 206.984 189.305Z" fill="#FFB92C"/>
<path d="M198.233 203.734C197.631 202.63 197.011 201.538 196.435 200.422C195.961 199.505 196.041 198.814 196.819 198.351C199.07 197.014 201.299 195.59 203.852 194.887C207.262 193.949 209.968 195.446 211.172 198.814C212.362 202.144 211.197 205.181 207.976 207.113C207.414 207.45 206.841 207.772 206.255 208.066C205.792 208.299 205.744 208.578 205.985 209.012C206.23 209.452 206.482 209.636 206.98 209.342C207.747 208.888 208.55 208.495 209.323 208.05C209.813 207.769 210.177 207.907 210.469 208.327C210.647 208.583 210.8 208.861 210.94 209.141C211.261 209.781 211.182 210.277 210.467 210.619C209.758 210.959 209.09 211.382 208.385 211.731C207.881 211.982 207.771 212.261 208.036 212.786C208.845 214.392 208.825 214.397 207.346 215.423C206.886 215.743 206.359 215.908 205.848 216.107C205.27 216.333 204.929 216.012 204.647 215.527C203.873 214.193 203.863 214.2 202.473 214.965C201.991 215.231 201.496 215.475 201.022 215.756C200.478 216.079 200.07 215.927 199.754 215.437C199.571 215.151 199.412 214.847 199.268 214.54C199.019 214.01 199.103 213.597 199.677 213.308C200.426 212.93 201.135 212.471 201.895 212.119C202.562 211.81 202.437 211.445 202.17 210.932C201.885 210.388 201.6 210.19 201.013 210.555C200.324 210.984 199.58 211.323 198.879 211.736C198.3 212.075 197.884 211.923 197.553 211.397C197.399 211.155 197.269 210.897 197.131 210.644C196.793 210.017 196.92 209.573 197.593 209.249C198.325 208.897 199.011 208.448 199.742 208.094C200.283 207.831 200.316 207.529 200.034 207.041C199.409 205.952 198.823 204.84 198.222 203.737C198.225 203.737 198.229 203.735 198.233 203.734ZM202.567 198.964C202.253 199.136 202.114 199.213 201.976 199.287C200.975 199.825 200.977 199.824 201.52 200.811C202.074 201.819 202.617 202.834 203.177 203.838C204.276 205.806 203.74 205.757 205.944 204.511C207.205 203.798 207.699 202.467 207.349 201.146C206.909 199.483 205.854 198.451 204.531 198.386C203.734 198.346 203.054 198.678 202.567 198.964Z" fill="#F69502"/>
<path d="M258.298 258.543C263.029 253.432 262.712 245.464 257.59 240.745C252.468 236.027 244.48 236.345 239.75 241.455C235.019 246.566 235.336 254.534 240.458 259.253C245.58 263.971 253.567 263.653 258.298 258.543Z" fill="#FDAA09"/>
<path d="M255.892 241.951C260.347 245.734 260.883 252.404 257.09 256.849C253.297 261.294 246.611 261.831 242.156 258.048C237.701 254.265 237.164 247.595 240.957 243.15C244.75 238.705 251.437 238.168 255.892 241.951Z" fill="#FFB92C"/>
<path d="M246.584 247.869C246.551 247.048 246.504 246.228 246.49 245.408C246.478 244.733 246.725 244.351 247.315 244.306C249.021 244.175 250.74 243.986 252.44 244.315C254.709 244.753 255.861 246.415 255.59 248.737C255.323 251.033 253.76 252.474 251.313 252.672C250.886 252.707 250.456 252.73 250.028 252.732C249.69 252.734 249.58 252.884 249.596 253.208C249.612 253.537 249.706 253.718 250.083 253.69C250.664 253.647 251.249 253.649 251.83 253.612C252.199 253.59 252.372 253.776 252.421 254.106C252.451 254.308 252.46 254.516 252.461 254.72C252.464 255.188 252.274 255.455 251.756 255.449C251.242 255.442 250.728 255.497 250.214 255.497C249.846 255.498 249.7 255.63 249.703 256.014C249.712 257.19 249.699 257.187 248.535 257.359C248.173 257.413 247.816 257.357 247.459 257.326C247.055 257.29 246.948 257.004 246.924 256.638C246.856 255.632 246.849 255.633 245.813 255.678C245.453 255.695 245.092 255.694 244.733 255.721C244.321 255.753 244.126 255.545 244.083 255.167C244.058 254.946 244.054 254.722 244.058 254.501C244.066 254.118 244.235 253.9 244.655 253.897C245.203 253.893 245.752 253.829 246.299 253.843C246.78 253.855 246.812 253.606 246.804 253.228C246.795 252.826 246.685 252.627 246.236 252.671C245.708 252.723 245.173 252.706 244.643 252.744C244.205 252.776 244.006 252.566 243.964 252.162C243.944 251.975 243.943 251.786 243.935 251.598C243.919 251.133 244.122 250.91 244.61 250.915C245.141 250.921 245.673 250.857 246.204 250.861C246.597 250.864 246.704 250.697 246.681 250.329C246.63 249.51 246.609 248.688 246.576 247.868C246.578 247.869 246.581 247.869 246.584 247.869ZM250.506 246.331C250.272 246.34 250.168 246.345 250.066 246.348C249.323 246.374 249.325 246.374 249.357 247.11C249.389 247.86 249.413 248.613 249.45 249.363C249.524 250.835 249.224 250.651 250.877 250.559C251.822 250.507 252.497 249.871 252.675 248.995C252.899 247.893 252.58 246.983 251.823 246.561C251.368 246.307 250.874 246.304 250.506 246.331Z" fill="#F69502"/>
</svg>
