<svg width="148" height="93" viewBox="0 0 148 93" fill="none" xmlns="http://www.w3.org/2000/svg">
<g clip-path="url(#clip0_3416_11457)">
<path fill-rule="evenodd" clip-rule="evenodd" d="M89.6105 29.6451C90.7554 28.2086 89.9694 21.4126 85.7247 16.6913C81.4801 11.9702 75.7968 10.6872 74.239 12.5482C74.1502 12.6543 74.0707 12.776 73.9998 12.9105C73.9288 12.776 73.8493 12.6543 73.7605 12.5482C72.2027 10.6872 66.5195 11.9702 62.2748 16.6913C58.0301 21.4125 57.2442 28.2084 58.3891 29.6451C59.5339 31.0816 65.6301 30.2231 69.8748 25.5019C72.0043 23.1334 73.3671 20.3494 73.9998 17.9282C74.6325 20.3494 75.9952 23.1333 78.1247 25.5019C82.3694 30.2231 88.4656 31.0817 89.6105 29.6451Z" fill="#FC5276"/>
<path fill-rule="evenodd" clip-rule="evenodd" d="M74 42.1671C75.294 39.6115 77.7397 36.6622 81.325 34.7039C87.7991 31.168 95.1389 31.6351 96.5673 34.0476C97.9959 36.46 94.839 42.6601 88.3649 46.196C82.6526 49.3158 65.3472 49.3158 59.6349 46.1959C53.1608 42.6601 50.004 36.46 51.4325 34.0476C52.8611 31.6352 60.2007 31.1681 66.6748 34.7039C70.2601 36.6622 72.7058 39.6115 73.9998 42.1671H74Z" fill="#FC5276"/>
<path fill-rule="evenodd" clip-rule="evenodd" d="M73.9998 0C77.5771 0 80.4772 3.03396 80.4772 6.77657C80.4772 10.5193 77.5772 13.5531 73.9998 13.5531C70.4226 13.5531 67.5225 10.5192 67.5225 6.77657C67.5225 3.03396 70.4225 0 73.9998 0Z" fill="#FC5276"/>
<path fill-rule="evenodd" clip-rule="evenodd" d="M66.4102 31.2625C67.9208 30.9167 69.7941 29.9857 71.3071 28.3028C72.6972 26.7568 73.5869 24.9393 73.9999 23.3589C74.4129 24.9393 75.3026 26.7566 76.6926 28.3028C78.2055 29.9857 80.0789 30.9167 81.5896 31.2625C80.079 31.6084 78.2057 32.5393 76.6926 34.2221C75.3026 35.7682 74.4129 37.5856 73.9999 39.1661C73.5869 37.5856 72.6972 35.7683 71.3071 34.2221C69.7942 32.5393 67.9209 31.6083 66.4102 31.2625Z" fill="#FC5276"/>
<path fill-rule="evenodd" clip-rule="evenodd" d="M0 57.741V76.1967C0 76.6847 0.397524 77.0828 0.885136 77.0828H10.1035C12.7861 77.0828 15.3171 76.0184 17.1975 74.1092C17.3942 73.9094 17.5993 73.7103 17.7813 73.4969C19.3377 71.6703 20.1757 69.3687 20.1757 66.9688C20.1757 61.376 15.658 56.855 10.0723 56.855H0.88525C0.397752 56.855 0.000114034 57.2528 0.000114034 57.7409L0 57.741ZM34.3344 70.3998H34.3345L40.1984 57.3377C40.3381 57.0262 40.6457 56.8541 40.9868 56.854C41.328 56.8536 41.6343 57.0263 41.7755 57.3372L50.1565 75.7942C50.2875 76.0829 50.2883 76.3887 50.1228 76.6594C49.9575 76.9299 49.6849 77.0826 49.3681 77.0826H48.7545C48.4139 77.0826 48.122 76.9039 47.9667 76.6004L46.4412 73.6175L45.8083 72.1842H36.1647L35.5318 73.6175L34.006 76.6006C33.8508 76.904 33.5588 77.0826 33.2182 77.0826H32.6096C32.2927 77.0826 32.0202 76.9297 31.8547 76.6589C31.6893 76.388 31.6774 76.0756 31.822 75.7929L32.5703 74.3299L34.3345 70.4V70.3998H34.3344ZM36.9528 70.3998H45.0201L41.7747 63.051C41.6368 62.7391 41.3275 62.5672 40.9864 62.5672C40.6452 62.5672 40.3358 62.7387 40.198 63.051L36.9526 70.3998H36.9528ZM3.1778 59.1811H10.0722C14.3672 59.1811 17.8519 62.6884 17.8519 66.9843C17.8519 71.2801 14.3674 74.7877 10.0722 74.7877H3.1778C2.6903 74.7877 2.29266 74.3898 2.29266 73.9017V60.0671C2.29266 59.5791 2.6903 59.1812 3.1778 59.1812V59.1811ZM27.2044 76.1966V57.7409C27.2044 57.2529 26.807 56.855 26.3194 56.855H25.7657C25.2783 56.855 24.8806 57.2528 24.8806 57.7409V76.1966C24.8806 76.6846 25.2781 77.0826 25.7657 77.0826H26.3194C26.8069 77.0826 27.2044 76.6847 27.2044 76.1966ZM54.7375 57.7283V76.1966C54.7375 76.6846 55.135 77.0826 55.6226 77.0826H56.1762C56.6637 77.0826 57.0613 76.6847 57.0613 76.1966V62.4592C57.0613 62.1138 57.2449 61.818 57.554 61.6651C57.8635 61.512 58.2096 61.5458 58.4837 61.7553L62.1454 64.5568L64.2989 66.2265C64.6223 66.477 65.0593 66.4772 65.3827 66.2265L67.5362 64.5568L71.1979 61.7553C71.4719 61.5455 71.8183 61.5121 72.1276 61.6651C72.4369 61.8181 72.6203 62.1141 72.6203 62.4592V76.1966C72.6203 76.6846 73.018 77.0826 73.5054 77.0826H74.059C74.5465 77.0826 74.9441 76.6847 74.9441 76.1966V57.73C74.9441 57.3842 74.7601 57.0879 74.4501 56.9351C74.1403 56.7825 73.7934 56.817 73.5197 57.0276L65.3803 63.2899C65.0579 63.538 64.6238 63.538 64.3014 63.2898L57.3666 57.9521L56.1615 57.0258C55.8875 56.8152 55.5407 56.7809 55.231 56.9338C54.9212 57.0866 54.7373 57.3828 54.7373 57.7284L54.7375 57.7283ZM88.944 56.855C83.3731 56.855 78.8406 61.392 78.8406 66.9688C78.8406 72.5456 83.3732 77.0826 88.944 77.0826C94.5149 77.0826 99.0474 72.5454 99.0474 66.9688C99.0474 61.3922 94.5149 56.855 88.944 56.855ZM88.944 74.7564C84.6559 74.7564 81.1643 71.2613 81.1643 66.9687C81.1643 62.6761 84.6559 59.181 88.944 59.181C93.2322 59.181 96.7236 62.6761 96.7236 66.9687C96.7236 71.2613 93.2322 74.7564 88.944 74.7564ZM120.827 57.7543V71.3655C120.827 71.7114 120.642 72.008 120.332 72.1605C120.022 72.3131 119.796 72.05 119.553 71.805L105.72 57.8954C105.074 57.2492 104.088 56.6422 103.437 56.9636C103.128 57.1166 102.944 57.4126 102.944 57.7581V76.1967C102.944 76.6847 103.341 77.0828 103.829 77.0828H104.382C104.87 77.0828 105.267 76.6848 105.267 76.1967V62.5143C105.267 62.1685 105.452 61.8721 105.762 61.7194C106.072 61.5667 106.45 61.5656 106.692 61.8123L120.521 75.8997L121.727 76.825C122.001 77.035 122.347 77.0693 122.657 76.9166C122.966 76.7636 123.15 76.4676 123.15 76.1221V57.7589C123.15 57.2734 122.757 56.8767 122.272 56.8729L121.719 56.8686C121.474 56.8664 121.262 56.9529 121.088 57.1255C120.914 57.2981 120.826 57.5092 120.826 57.7544L120.827 57.7543ZM127.824 57.7409V76.1966C127.824 76.6846 128.222 77.0826 128.709 77.0826H137.928C140.61 77.0826 143.141 76.0183 145.022 74.1091C145.219 73.9093 145.424 73.7102 145.606 73.4968C147.162 71.6702 148 69.3685 148 66.9687C148 61.3759 143.482 56.8549 137.897 56.8549H128.71C128.222 56.8549 127.824 57.2527 127.824 57.7408L127.824 57.7409ZM131.002 59.1811H137.897C142.192 59.1811 145.676 62.6884 145.676 66.9843C145.676 71.2801 142.192 74.7877 137.897 74.7877H131.002C130.515 74.7877 130.117 74.3898 130.117 73.9017V60.0671C130.117 59.5791 130.515 59.1812 131.002 59.1812V59.1811Z" fill="#434242"/>
<path d="M18.6671 90.5857V85.4883H19.3708V90.0055H22.3826V85.4883H23.0863V90.0055H23.8521V92.119H23.314V90.5856H18.667L18.6671 90.5857ZM28.2348 89.0835H28.9903C28.8455 89.6015 28.5867 90.0038 28.2142 90.2904C27.8415 90.577 27.3931 90.7203 26.8687 90.7203C25.2542 90.7203 24.4468 89.7949 24.4468 87.9438C24.4468 87.1495 24.6539 86.5193 25.0679 86.0529C25.4818 85.5867 26.0579 85.3536 26.7963 85.3536C27.5276 85.3536 28.0882 85.6041 28.4781 86.1049C28.8679 86.6056 29.0628 87.3049 29.0628 88.2028H25.1714C25.1852 88.8312 25.3353 89.3113 25.6216 89.6428C25.9078 89.9743 26.3132 90.1401 26.8376 90.1401C27.1757 90.1401 27.4707 90.0468 27.7225 89.8604C27.9744 89.6739 28.1451 89.4149 28.2348 89.0834V89.0835ZM25.1919 87.7262H28.3176C28.3107 87.1737 28.1675 86.7385 27.888 86.4209C27.6087 86.1032 27.2378 85.9443 26.7754 85.9443C26.2993 85.9443 25.9198 86.1032 25.637 86.4209C25.3541 86.7387 25.2057 87.1737 25.1919 87.7262ZM30.9718 90.5857H30.2681V85.4883H30.9718V87.7055H33.9835V85.4883H34.6976V90.5857H33.9835V88.2858H30.9718V90.5857ZM38.5627 90.5857H37.8589V86.079H35.7889V85.4885H40.6327V86.079H38.5627V90.5857ZM44.0319 90.0987C44.5494 90.0987 44.9495 89.9243 45.2325 89.5756C45.5154 89.2268 45.6568 88.7105 45.6568 88.0266C45.6568 87.3773 45.5067 86.8697 45.2066 86.5036C44.9064 86.1375 44.5148 85.9545 44.0319 85.9545C43.5558 85.9545 43.1642 86.1358 42.8571 86.4985C42.5501 86.861 42.3967 87.3531 42.3967 87.9748C42.3967 88.5965 42.5346 89.106 42.8106 89.5031C43.0866 89.9001 43.4936 90.0987 44.0318 90.0987H44.0319ZM42.4173 92.9996H41.7032V85.4882H42.4069V86.7004C42.5449 86.2308 42.776 85.8888 43.1004 85.6747C43.4247 85.4606 43.7868 85.3536 44.1871 85.3536C44.8495 85.3536 45.3825 85.5919 45.7861 86.0685C46.1897 86.5452 46.3915 87.215 46.3915 88.0783C46.3915 88.9072 46.1983 89.5547 45.812 90.0209C45.4256 90.4872 44.9047 90.7202 44.2493 90.7202C43.856 90.7202 43.4904 90.6097 43.1521 90.3887C42.814 90.1677 42.5692 89.8258 42.4173 89.363V92.9995V92.9996ZM52.5543 90.5856H51.8505V86.0789H49.7805V85.4883H54.6242V86.0789H52.5543V90.5856ZM59.1723 88.7311L59.1826 87.8193C59.155 87.8608 59.1154 87.8935 59.0636 87.9178C59.0118 87.9419 58.9342 87.9644 58.8307 87.9851C58.7272 88.0059 58.6376 88.0214 58.5616 88.0317C58.4858 88.0421 58.3598 88.0559 58.1838 88.0731C58.0079 88.0903 57.8716 88.1059 57.7751 88.1197C57.2369 88.1887 56.8539 88.2974 56.6263 88.4459C56.3986 88.5944 56.2848 88.8552 56.2848 89.2281C56.2848 89.8636 56.6711 90.1813 57.444 90.1813C57.8925 90.1813 58.2856 90.0483 58.6239 89.7824C58.962 89.5166 59.1448 89.166 59.1724 88.7308L59.1723 88.7311ZM59.9071 90.5856H59.224C59.2172 90.5648 59.2085 90.4095 59.1982 90.1194C59.1878 89.8292 59.1826 89.6739 59.1826 89.6531C59.0583 89.9639 58.8239 90.2195 58.4788 90.4197C58.1339 90.62 57.7371 90.7202 57.2886 90.7202C56.702 90.7202 56.2675 90.5942 55.9845 90.342C55.7016 90.09 55.5603 89.7428 55.5603 89.3008C55.5603 88.9831 55.6086 88.7207 55.7052 88.5135C55.8017 88.3062 55.9569 88.144 56.1709 88.0265C56.3848 87.9092 56.6091 87.8228 56.8436 87.7675C57.0783 87.7123 57.3852 87.6639 57.7647 87.6225C58.2615 87.5673 58.6134 87.5103 58.8204 87.4515C59.0274 87.3929 59.1411 87.291 59.1619 87.1458C59.1619 86.3309 58.71 85.9234 57.806 85.9234C56.9091 85.9234 56.4399 86.3309 56.3985 87.1458H55.7155C55.7362 85.951 56.4434 85.3535 57.8371 85.3535C58.5824 85.3535 59.1135 85.521 59.431 85.856C59.7484 86.1909 59.9071 86.6934 59.9071 87.3634V90.5855V90.5856ZM61.9403 90.5856H61.2366V85.4882H61.9403V87.7054H64.9521V85.4882H65.6662V90.5856H64.9521V88.2857H61.9403V90.5856ZM66.9853 90.5856V85.4882H67.689V90.0054H70.7008V85.4882H71.4045V90.0054H72.1704V92.1189H71.6322V90.5855H66.9852L66.9853 90.5856ZM76.7497 88.7311L76.76 87.8193C76.7324 87.8608 76.6927 87.8935 76.641 87.9178C76.5892 87.9419 76.5115 87.9644 76.4081 87.9851C76.3046 88.0059 76.2149 88.0214 76.139 88.0317C76.0632 88.0421 75.9372 88.0559 75.7612 88.0731C75.5852 88.0903 75.449 88.1059 75.3525 88.1197C74.8143 88.1887 74.4313 88.2974 74.2037 88.4459C73.976 88.5944 73.8622 88.8552 73.8622 89.2281C73.8622 89.8636 74.2485 90.1813 75.0213 90.1813C75.4698 90.1813 75.863 90.0483 76.2013 89.7824C76.5394 89.5166 76.7222 89.166 76.7498 88.7308L76.7497 88.7311ZM77.4845 90.5856H76.8014C76.7946 90.5648 76.7859 90.4095 76.7755 90.1194C76.7652 89.8292 76.76 89.6739 76.76 89.6531C76.6357 89.9639 76.4013 90.2195 76.0562 90.4197C75.7113 90.62 75.3145 90.7202 74.866 90.7202C74.2794 90.7202 73.8449 90.5942 73.5619 90.342C73.279 90.09 73.1377 89.7428 73.1377 89.3008C73.1377 88.9831 73.186 88.7207 73.2825 88.5135C73.3791 88.3062 73.5343 88.144 73.7483 88.0265C73.9622 87.9092 74.1865 87.8228 74.421 87.7675C74.6556 87.7123 74.9626 87.6639 75.3421 87.6225C75.8389 87.5673 76.1908 87.5103 76.3977 87.4515C76.6048 87.3929 76.7185 87.291 76.7393 87.1458C76.7393 86.3309 76.2874 85.9234 75.3834 85.9234C74.4865 85.9234 74.0173 86.3309 73.9759 87.1458H73.2929C73.3136 85.951 74.0208 85.3535 75.4145 85.3535C76.1598 85.3535 76.6909 85.521 77.0084 85.856C77.3258 86.1909 77.4845 86.6934 77.4845 87.3634V90.5855V90.5856ZM81.9085 90.5856H81.2048V85.4882H81.9188V89.6324L84.8582 85.4882H85.6239V90.5856H84.9202V86.3689L81.9085 90.5856ZM92.7493 92.9996H92.0558V90.6996C91.145 90.6582 90.4429 90.3991 89.9497 89.9226C89.4563 89.446 89.2096 88.8175 89.2096 88.037C89.2096 87.2565 89.4563 86.6298 89.9497 86.1566C90.443 85.6834 91.1451 85.4228 92.0558 85.3744V83.6235H92.7493V85.3744C93.6531 85.4228 94.3517 85.6834 94.845 86.1566C95.3383 86.6298 95.585 87.2565 95.585 88.037C95.585 88.8175 95.3383 89.446 94.845 89.9226C94.3516 90.3992 93.653 90.6582 92.7493 90.6996V92.9996ZM89.9238 88.037C89.9238 88.6517 90.1066 89.1456 90.4723 89.5185C90.838 89.8914 91.3659 90.0952 92.0558 90.1297V85.9649C91.3727 85.9926 90.8466 86.1894 90.4775 86.5554C90.1084 86.9215 89.9238 87.4152 89.9238 88.0369V88.037ZM94.8812 88.0266C94.8812 87.405 94.6966 86.9129 94.3275 86.5503C93.9584 86.1878 93.4322 85.9927 92.7493 85.965V90.1298C93.4254 90.0953 93.9498 89.8933 94.3224 89.5238C94.6949 89.1542 94.8812 88.6553 94.8812 88.0268V88.0266ZM97.4835 90.5856H96.7798V85.4882H97.4939V89.6324L100.433 85.4882H101.199V90.5856H100.495V86.3689L97.4835 90.5856ZM105.074 90.5856H104.371V86.0789H102.301V85.4883H107.144V86.0789H105.074V90.5856ZM108.939 90.5856H108.236V85.4882H108.939V87.7054H111.951V85.4882H112.665V90.5856H111.951V88.2857H108.939V90.5856ZM117.638 89.0834H118.393C118.249 89.6014 117.99 90.0037 117.617 90.2903C117.245 90.5769 116.796 90.7202 116.272 90.7202C114.657 90.7202 113.85 89.7948 113.85 87.9437C113.85 87.1494 114.057 86.5191 114.471 86.0528C114.885 85.5866 115.461 85.3535 116.199 85.3535C116.931 85.3535 117.491 85.604 117.881 86.1048C118.271 86.6054 118.466 87.3047 118.466 88.2027H114.574C114.588 88.8311 114.738 89.3112 115.025 89.6427C115.311 89.9742 115.716 90.14 116.241 90.14C116.579 90.14 116.874 90.0467 117.125 89.8603C117.377 89.6737 117.548 89.4147 117.638 89.0832V89.0834ZM114.595 87.7261H117.721C117.714 87.1736 117.571 86.7384 117.291 86.4207C117.012 86.103 116.641 85.9441 116.178 85.9441C115.702 85.9441 115.323 86.103 115.04 86.4207C114.757 86.7385 114.609 87.1736 114.595 87.7261ZM123.273 88.7415H124.007C123.938 89.3286 123.697 89.8051 123.283 90.1712C122.869 90.5373 122.369 90.7203 121.782 90.7203C121.106 90.7203 120.566 90.4855 120.163 90.0159C119.759 89.5462 119.557 88.8659 119.557 87.9748C119.557 87.0907 119.759 86.433 120.163 86.0012C120.566 85.5695 121.12 85.3536 121.824 85.3536C122.451 85.3536 122.964 85.5298 123.361 85.882C123.757 86.2342 123.976 86.7109 124.018 87.3117H123.283C123.242 86.8904 123.088 86.5606 122.822 86.3223C122.557 86.0841 122.22 85.9649 121.813 85.9649C121.344 85.9649 120.972 86.1272 120.696 86.4519C120.42 86.7766 120.282 87.2808 120.282 87.9645C120.282 88.6553 120.42 89.1853 120.696 89.5548C120.972 89.9243 121.334 90.1091 121.782 90.1091C122.176 90.1091 122.51 89.9865 122.786 89.7413C123.062 89.496 123.224 89.1628 123.273 88.7415H123.273ZM128.597 88.7311L128.607 87.8193C128.58 87.8608 128.54 87.8935 128.488 87.9178C128.437 87.9419 128.359 87.9644 128.255 87.9851C128.152 88.0059 128.062 88.0214 127.986 88.0317C127.911 88.0421 127.785 88.0559 127.609 88.0731C127.433 88.0903 127.296 88.1059 127.2 88.1197C126.662 88.1887 126.279 88.2974 126.051 88.4459C125.823 88.5944 125.71 88.8552 125.71 89.2281C125.71 89.8636 126.096 90.1813 126.869 90.1813C127.317 90.1813 127.71 90.0483 128.049 89.7824C128.387 89.5166 128.57 89.166 128.597 88.7308L128.597 88.7311ZM129.332 90.5856H128.649C128.642 90.5648 128.633 90.4095 128.623 90.1194C128.613 89.8292 128.607 89.6739 128.607 89.6531C128.483 89.9639 128.249 90.2195 127.904 90.4197C127.559 90.62 127.162 90.7202 126.713 90.7202C126.127 90.7202 125.692 90.5942 125.409 90.342C125.126 90.09 124.985 89.7428 124.985 89.3008C124.985 88.9831 125.033 88.7207 125.13 88.5135C125.227 88.3062 125.382 88.144 125.596 88.0265C125.81 87.9092 126.034 87.8228 126.268 87.7675C126.503 87.7123 126.81 87.6639 127.189 87.6225C127.686 87.5673 128.038 87.5103 128.245 87.4515C128.452 87.3929 128.566 87.291 128.587 87.1458C128.587 86.3309 128.135 85.9234 127.231 85.9234C126.334 85.9234 125.865 86.3309 125.823 87.1458H125.14C125.161 85.951 125.868 85.3535 127.262 85.3535C128.007 85.3535 128.538 85.521 128.856 85.856C129.173 86.1909 129.332 86.6934 129.332 87.3634V90.5855V90.5856Z" fill="#FC5276"/>
</g>
<defs>
<clipPath id="clip0_3416_11457">
<rect width="148" height="93" fill="white"/>
</clipPath>
</defs>
</svg>
