<svg width="20" height="20" viewBox="0 0 20 20" fill="none" xmlns="http://www.w3.org/2000/svg">
<path opacity="0.8" fill-rule="evenodd" clip-rule="evenodd" d="M10 20C15.5228 20 20 15.5228 20 10C20 4.47715 15.5228 0 10 0C4.47715 0 0 4.47715 0 10C0 15.5228 4.47715 20 10 20ZM9.11697 5.8033C8.86135 5.53199 8.44692 5.53199 8.1913 5.8033C7.93569 6.07461 7.93569 6.51449 8.1913 6.7858L11.2194 9.99981L8.1913 13.2138C7.93569 13.4851 7.93569 13.925 8.1913 14.1963C8.44692 14.4676 8.86135 14.4676 9.11697 14.1963L12.6079 10.4911C12.8635 10.2198 12.8635 9.77987 12.6079 9.50856L9.11697 5.8033Z" fill="white"/>
</svg>
