<svg width="20" height="20" viewBox="0 0 20 20" fill="none" xmlns="http://www.w3.org/2000/svg">
<path opacity="0.8" fill-rule="evenodd" clip-rule="evenodd" d="M10 20C4.47715 20 0 15.5228 0 10C0 4.47715 4.47715 0 10 0C15.5228 0 20 4.47715 20 10C20 15.5228 15.5228 20 10 20ZM10.883 5.8033C11.1386 5.53199 11.5531 5.53199 11.8087 5.8033C12.0643 6.07461 12.0643 6.51449 11.8087 6.7858L8.78062 9.99981L11.8087 13.2138C12.0643 13.4851 12.0643 13.925 11.8087 14.1963C11.5531 14.4676 11.1386 14.4676 10.883 14.1963L7.39212 10.4911C7.13651 10.2198 7.13651 9.77987 7.39212 9.50856L10.883 5.8033Z" fill="white"/>
</svg>
