<svg width="32" height="31" viewBox="0 0 32 31" fill="none" xmlns="http://www.w3.org/2000/svg">
<circle cx="15.9029" cy="15.4146" r="15.4146" fill="#D1D9DD"/>
<path d="M16.8045 13.3657C16.8045 13.9715 16.8036 14.5783 16.8045 15.1842C16.8045 15.3471 16.8107 15.5173 16.968 15.6088C17.1395 15.7095 17.2932 15.6198 17.436 15.5219C17.8645 15.2263 18.1502 14.797 18.4395 14.377C19.0845 13.438 19.6451 12.4468 20.0709 11.3842C20.2227 11.0063 20.4437 10.8232 20.8579 10.8424C21.4185 10.8681 21.9799 10.8434 22.5414 10.8507C23.1065 10.858 23.3401 11.1985 23.1343 11.7384C22.6708 12.9529 21.9656 14.0264 21.2352 15.0844C21.087 15.2995 20.9513 15.5237 20.8031 15.7388C20.5938 16.0426 20.6459 16.3026 20.8893 16.5652C21.4373 17.1546 21.9674 17.7605 22.5136 18.3508C22.934 18.8056 23.2601 19.3227 23.5296 19.8783C23.7452 20.323 23.5117 20.7761 23.0238 20.7944C22.2953 20.8218 21.5649 20.8063 20.8354 20.7953C20.5821 20.7916 20.415 20.636 20.2686 20.4219C19.6469 19.5158 18.8671 18.7635 18.0226 18.0762C17.9786 18.0405 17.9301 18.0112 17.8816 17.982C17.3587 17.669 17.1045 17.8044 17.0847 18.4176C17.0722 18.8056 17.0829 19.1955 17.0794 19.5845C17.0731 20.2901 16.6356 20.7257 15.9492 20.7532C14.2818 20.82 12.9262 20.0915 11.7125 19.0262C10.5015 17.9627 9.70198 16.5771 8.91411 15.1897C8.3176 14.1363 7.81541 13.0399 7.49829 11.862C7.29076 11.0896 7.51176 10.7921 8.30232 10.7912C8.77397 10.7903 9.24471 10.7949 9.71635 10.7903C10.0883 10.7866 10.3263 10.9523 10.4521 11.3156C10.7818 12.2647 11.1268 13.2083 11.5832 14.1033C11.9524 14.8263 12.3728 15.5136 12.9415 16.0948C13.0205 16.1753 13.1041 16.255 13.1984 16.3145C13.45 16.4746 13.6189 16.406 13.7078 16.1159C13.7311 16.0399 13.75 15.9594 13.7491 15.8806C13.7365 14.8529 13.8066 13.8233 13.6862 12.7964C13.6269 12.2949 13.3511 11.9077 13.0807 11.5133C12.9792 11.3659 12.8319 11.225 12.9298 11.0218C13.0286 10.8159 13.2281 10.8498 13.4041 10.8489C14.2908 10.847 15.1784 10.8461 16.0651 10.8489C16.6293 10.8507 16.7991 11.0282 16.8018 11.6158C16.8045 12.1988 16.8027 12.7827 16.8027 13.3657H16.8045Z" fill="white"/>
</svg>
