<svg width="150" height="45" viewBox="0 0 150 45" fill="none" xmlns="http://www.w3.org/2000/svg">
<path fill-rule="evenodd" clip-rule="evenodd" d="M0.00976562 40.5952H38.3308V45.0001H0.00976562V40.5952Z" fill="#82DE00"/>
<path fill-rule="evenodd" clip-rule="evenodd" d="M150 40.5952H38.3301V45.0001H150V40.5952Z" fill="#FE0090"/>
<path d="M65.0462 12.0773V11.947H60.0218V12.0773C60.6857 12.0773 61.0806 12.7978 61.2752 13.3879C61.4068 13.8417 61.4755 14.4318 61.4755 14.9537V26.4017C59.1006 26.4017 57.6469 25.613 56.0618 24.8927C54.4138 24.0361 52.697 23.2021 49.6642 23.2021C48.6053 23.2021 47.8158 23.395 47.3522 23.5199V14.3692C47.3522 13.3198 48.0101 12.0773 48.8057 12.0773V11.947H43.7812V12.0773C44.4394 12.0773 44.8399 12.7978 45.0344 13.3878C45.2347 13.8417 45.2347 14.4317 45.2347 14.9537V32.0803C45.2347 33.0618 45.0344 33.7822 44.7713 34.3039C44.5081 34.6956 44.1761 34.9564 43.7812 34.9564V35.087H48.8057V34.9564C48.0101 34.9564 47.3522 33.7141 47.3522 32.6702V24.104C47.6154 23.9737 48.4108 23.7127 49.6642 23.7127C52.5024 23.7127 54.1505 24.5012 55.7358 25.2841C57.3152 26.0725 58.9003 26.844 61.4755 26.844V32.0803C61.4755 33.0618 61.2752 33.7821 61.0119 34.3039C60.7487 34.6955 60.3538 34.9563 60.0218 34.9563V35.087H65.0462V34.9563C64.2509 34.9563 63.5928 33.714 63.5928 32.6701V14.3691C63.5928 13.3197 64.2509 12.0772 65.0462 12.0772V12.0773ZM78.6946 35.0813C85.1783 35.0813 90.3858 29.9246 90.3858 23.5084C90.3858 17.0924 85.1783 11.9355 78.6946 11.9355C72.2108 11.9355 67.0034 17.0924 67.0034 23.5084C67.0034 29.9246 72.2108 35.0813 78.6946 35.0813ZM78.6946 34.6388C73.4642 34.6388 69.1664 29.6637 69.1664 23.5084C69.1664 17.3534 73.4642 12.3781 78.6946 12.3781C83.9249 12.3781 88.2227 17.3534 88.2227 23.5084C88.2227 29.6637 83.9249 34.6388 78.6946 34.6388ZM102.935 35.0813C106.174 35.0813 110.855 33.2036 110.855 28.3588V14.3466C110.855 13.1043 111.119 12.0605 111.908 12.0605V11.93H109.219V12.0605H109.282C109.945 12.0605 110.209 12.7127 110.34 13.4956V28.6198C110.34 32.154 106.769 34.6388 102.935 34.6388C97.1154 34.6388 95.2614 31.4337 95.2614 28.6198V14.3466C95.2614 13.3029 95.8564 12.0605 96.7147 12.0605V11.93H91.6905V12.0605C92.3484 12.0605 92.7491 12.781 92.9436 13.3651C93.0753 13.8247 93.144 14.4148 93.144 14.9365V28.1602C93.144 33.8561 98.9008 35.0813 102.935 35.0813H102.935ZM121.871 35.0813C123.983 35.0813 126.095 34.7636 127.88 33.7198C129.271 32.9369 130.455 31.8251 130.987 30.3161C131.182 29.7942 131.313 28.875 131.313 28.2852C131.313 20.1671 115.725 20.8876 115.725 16.2414C115.725 13.2915 119.691 12.3781 122.198 12.3781C124.578 12.3781 127.353 13.2915 128.675 14.931C129.07 15.4529 129.728 16.4342 130.06 17.1548H130.323L129.797 14.4714L129.728 14.0801C129.728 14.012 129.334 13.8134 129.271 13.751C128.87 13.4899 128.406 13.2289 127.949 13.0305C124.778 11.6747 120.875 11.4817 117.705 12.8319C115.925 13.5524 114.604 14.8005 114.604 16.8257C114.604 23.5084 130.261 22.6574 130.261 28.875C130.261 30.577 129.271 32.0178 127.88 33.0674C126.627 34.0487 124.778 34.4402 123.124 34.5707C122.003 34.7011 120.744 34.5706 119.559 34.4401C118.764 34.3097 118.169 34.117 117.442 33.7877C115.988 33.0674 114.935 31.8251 114.34 30.384L114.14 29.9246H113.877L114.272 32.6078L114.34 32.9993C114.34 33.0674 114.735 33.2658 114.804 33.2658C115.199 33.5893 115.662 33.7878 116.12 33.9806C117.906 34.7635 119.954 35.0813 121.871 35.0813L121.871 35.0813ZM132.658 35.0813H148.973L149.437 32.7441H149.174C147.852 34.894 143.892 34.6388 139.068 34.6388H136.229V23.8488H142.61C144.327 23.8488 145.448 24.6317 145.448 25.2841V25.3522H145.711V22.0279H145.448C145.471 22.6178 144.35 23.4063 142.633 23.4063H136.229V12.3781H138.742C143.297 12.3781 147.457 12.1228 148.51 14.3466H148.842L148.315 11.9355H132.658V12.0605C133.454 12.0605 134.112 13.161 134.112 14.9365V32.0916C134.112 33.924 133.454 34.9564 132.658 34.9564V35.0814L132.658 35.0813Z" fill="black"/>
<path d="M0.0894162 35.0872H5.11384V34.9566C4.31827 34.9566 3.66035 33.6461 3.66035 32.6648V7.53359C3.66035 6.55224 4.31831 5.24166 5.11384 5.24166V5.11136H0.0894162V5.24166C0.747537 5.24166 1.14802 6.02458 1.34278 6.55224C1.47422 7.0742 1.54294 7.59612 1.54294 8.186V32.0805C1.54294 32.6024 1.47422 33.1923 1.34278 33.6461C1.14806 34.2362 0.747576 34.9566 0.0894162 34.9566V35.0872ZM14.6705 34.9397C27.5521 34.9397 33.1601 23.8151 33.1601 17.4613C33.1601 7.12511 25.4347 0 14.5333 0C12.3586 0 10.2413 0.260958 8.78203 0.78847C5.56603 1.96284 2.92771 4.31138 1.34838 7.44844C-0.168022 10.4609 -0.431302 14.1256 0.690263 17.4613C1.80618 20.865 4.04947 23.5541 7.08232 24.9893L7.1512 24.8588C4.11819 23.4179 1.8749 20.7347 0.821902 17.3989C-0.236703 14.1256 0.0265368 10.5233 1.48002 7.51676C2.99643 4.37955 5.63459 2.09318 8.86216 0.981381C10.3786 0.459621 12.4273 0.261036 14.5389 0.261036C23.2601 0.261036 30.6536 6.79626 30.6536 17.3308C30.6536 27.1508 24.5135 34.8093 14.8022 34.6163L11.6948 34.5483V10.461C11.6948 9.47948 12.3586 8.23718 13.1483 8.23718V8.10668H8.12391V8.23718C8.45587 8.23718 8.78203 8.49798 9.05092 8.8896C9.37727 9.41136 9.57744 10.1319 9.57744 11.1134V31.933C9.57744 32.8464 9.37727 33.5668 9.11403 34.0264C8.85079 34.5483 8.51883 34.8093 8.12395 34.8093V34.9398H14.6706L14.6705 34.9397Z" fill="black"/>
</svg>
