<svg width="31" height="31" viewBox="0 0 31 31" fill="none" xmlns="http://www.w3.org/2000/svg">
<circle cx="15.4146" cy="15.4146" r="15.4146" fill="#ED5338"/>
<path d="M16.0529 10.026C15.0633 10.026 14.3434 10.0091 13.6241 10.0298C12.3538 10.0658 11.0823 10.098 9.817 10.2314C8.93874 10.3241 8.25983 10.8794 8.03058 11.6994C7.87497 12.2573 7.80907 12.829 7.76643 13.4028C7.6878 14.4658 7.70164 15.5309 7.72656 16.5943C7.7465 17.4191 7.81683 18.2428 8.01341 19.0516C8.2183 19.8954 8.96477 20.4909 9.86463 20.5735C10.9179 20.6704 11.9722 20.7202 13.0283 20.7625C14.7709 20.8329 16.5142 20.8117 18.2563 20.7816C19.422 20.7614 20.5887 20.6985 21.7505 20.5735C22.6725 20.4745 23.3636 19.9415 23.5873 19.0903C23.7324 18.5376 23.8005 17.9738 23.841 17.4053C23.9196 16.3021 23.888 15.1979 23.8753 14.0947C23.8664 13.3361 23.7906 12.5781 23.6134 11.8338C23.3902 10.8947 22.7063 10.3204 21.7068 10.2261C20.6884 10.1303 19.6667 10.0965 18.6445 10.0536C17.6904 10.0128 16.7368 10.0493 16.0529 10.026ZM13.7509 15.5594C13.7509 14.8062 13.7504 14.0529 13.7509 13.2991C13.7509 13.0572 13.7548 13.055 13.9868 13.1699C14.2753 13.3128 14.5622 13.4589 14.8507 13.6013C16.0845 14.2122 17.3182 14.822 18.5515 15.434C18.6096 15.4626 18.696 15.4753 18.696 15.5573C18.696 15.6182 18.6273 15.6346 18.5797 15.6579C17.0341 16.426 15.4875 17.192 13.9436 17.9622C13.7753 18.0464 13.7476 17.994 13.7487 17.8383C13.7531 17.0798 13.7509 16.3196 13.7509 15.5594Z" fill="white"/>
</svg>
