<svg width="20" height="21" viewBox="0 0 20 21" fill="none" xmlns="http://www.w3.org/2000/svg">
<path d="M19.6289 20.1755C19.3815 20.4297 19.0853 20.5568 18.7402 20.5568C18.3952 20.5568 18.099 20.4297 17.8516 20.1755L13.9844 16.2018C12.4219 17.3926 10.6771 17.988 8.75 17.988C7.5651 17.988 6.43229 17.7505 5.35156 17.2755C4.27083 16.8006 3.33984 16.1617 2.55859 15.3589C1.77734 14.5562 1.1556 13.6029 0.693359 12.4991C0.23112 11.3953 0 10.2314 0 9.00716C0 7.78296 0.23112 6.61563 0.693359 5.50515C1.1556 4.39468 1.77734 3.44141 2.55859 2.64535C3.33984 1.84928 4.27083 1.21377 5.35156 0.73881C6.43229 0.263848 7.5651 0.0263672 8.75 0.0263672C9.9349 0.0263672 11.0677 0.263848 12.1484 0.73881C13.2292 1.21377 14.1602 1.84928 14.9414 2.64535C15.7227 3.44141 16.3444 4.39468 16.8066 5.50515C17.2689 6.61563 17.5 7.77962 17.5 8.99713C17.5 10.9906 16.9206 12.7834 15.7617 14.3756L19.6289 18.3492C19.8763 18.6034 20 18.9078 20 19.2623C20 19.6169 19.8763 19.9213 19.6289 20.1755ZM8.75 2.59518C7.61719 2.59518 6.57227 2.87948 5.61523 3.4481C4.6582 4.01672 3.89974 4.79605 3.33984 5.78612C2.77995 6.77618 2.5 7.84986 2.5 9.00716C2.5 10.1645 2.77995 11.2381 3.33984 12.2282C3.89974 13.2183 4.6582 13.9976 5.61523 14.5662C6.57227 15.1348 7.61719 15.4191 8.75 15.4191C9.88281 15.4191 10.9277 15.1348 11.8848 14.5662C12.8418 13.9976 13.6003 13.2183 14.1602 12.2282C14.7201 11.2381 15 10.1645 15 9.00716C15 7.84986 14.7201 6.77618 14.1602 5.78612C13.6003 4.79605 12.8418 4.01672 11.8848 3.4481C10.9277 2.87948 9.88281 2.59518 8.75 2.59518Z" fill="#738D9A"/>
</svg>
