<svg width="32" height="31" viewBox="0 0 32 31" fill="none" xmlns="http://www.w3.org/2000/svg">
<circle cx="15.9029" cy="15.4146" r="15.4146" fill="#386BED"/>
<path d="M16.8035 13.3657C16.8035 13.9715 16.8026 14.5783 16.8035 15.1842C16.8035 15.3471 16.8098 15.5173 16.967 15.6088C17.1386 15.7095 17.2922 15.6198 17.435 15.5219C17.8636 15.2263 18.1492 14.797 18.4385 14.377C19.0835 13.438 19.6441 12.4468 20.0699 11.3842C20.2218 11.0063 20.4428 10.8232 20.8569 10.8424C21.4175 10.8681 21.979 10.8434 22.5404 10.8507C23.1055 10.858 23.3391 11.1985 23.1334 11.7384C22.6698 12.9529 21.9646 14.0264 21.2342 15.0844C21.086 15.2995 20.9503 15.5237 20.8021 15.7388C20.5928 16.0426 20.6449 16.3026 20.8883 16.5652C21.4364 17.1546 21.9664 17.7605 22.5126 18.3508C22.933 18.8056 23.2591 19.3227 23.5286 19.8783C23.7443 20.323 23.5107 20.7761 23.0229 20.7944C22.2943 20.8218 21.5639 20.8063 20.8344 20.7953C20.5811 20.7916 20.414 20.636 20.2676 20.4219C19.6459 19.5158 18.8661 18.7635 18.0217 18.0762C17.9776 18.0405 17.9291 18.0112 17.8806 17.982C17.3578 17.669 17.1035 17.8044 17.0838 18.4176C17.0712 18.8056 17.082 19.1955 17.0784 19.5845C17.0721 20.2901 16.6346 20.7257 15.9482 20.7532C14.2809 20.82 12.9252 20.0915 11.7115 19.0262C10.5005 17.9627 9.701 16.5771 8.91313 15.1897C8.31662 14.1363 7.81443 13.0399 7.49731 11.862C7.28979 11.0896 7.51079 10.7921 8.30135 10.7912C8.77299 10.7903 9.24373 10.7949 9.71537 10.7903C10.0873 10.7866 10.3254 10.9523 10.4511 11.3156C10.7808 12.2647 11.1258 13.2083 11.5822 14.1033C11.9514 14.8263 12.3718 15.5136 12.9405 16.0948C13.0196 16.1753 13.1031 16.255 13.1974 16.3145C13.449 16.4746 13.6179 16.406 13.7068 16.1159C13.7302 16.0399 13.749 15.9594 13.7481 15.8806C13.7356 14.8529 13.8056 13.8233 13.6853 12.7964C13.626 12.2949 13.3502 11.9077 13.0798 11.5133C12.9782 11.3659 12.8309 11.225 12.9288 11.0218C13.0276 10.8159 13.2271 10.8498 13.4032 10.8489C14.2899 10.847 15.1774 10.8461 16.0641 10.8489C16.6283 10.8507 16.7981 11.0282 16.8008 11.6158C16.8035 12.1988 16.8017 12.7827 16.8017 13.3657H16.8035Z" fill="white"/>
</svg>
