<svg width="112" height="112" viewBox="0 0 112 112" fill="none" xmlns="http://www.w3.org/2000/svg">
<path d="M109.235 40.7353C110.658 45.6988 111.38 50.8367 111.38 56.0003C111.38 86.5858 86.5857 111.38 56.0002 111.38C25.4147 111.38 0.620117 86.5858 0.620117 56.0003C0.620117 25.4148 25.4147 0.620117 56.0002 0.620117C74.0688 0.620117 91.0013 9.4345 101.365 24.2356" stroke="#C29569" stroke-width="0.786041" stroke-miterlimit="22.9256" stroke-linecap="round" stroke-linejoin="round"/>
<path d="M20.7393 64.9295H21.0799V65.4527C21.1433 65.3672 21.2159 65.2829 21.2962 65.2027C21.7041 64.7974 22.1948 64.5954 22.7685 64.5954C23.3448 64.5954 23.837 64.7987 24.2423 65.204C24.649 65.6107 24.851 66.1014 24.851 66.6791C24.851 67.2528 24.649 67.7435 24.2423 68.15C23.837 68.558 23.345 68.7612 22.7685 68.7612C22.1948 68.7612 21.7041 68.558 21.2962 68.15C21.2159 68.0697 21.1433 67.9855 21.0799 67.9003V70.0784H20.7393V64.9295ZM21.0799 66.3217V67.0351C21.1458 67.3615 21.3025 67.6489 21.55 67.8962C21.8866 68.233 22.2933 68.4012 22.7685 68.4012C23.2439 68.4012 23.6492 68.233 23.9858 67.8962C24.3224 67.5594 24.4908 67.1543 24.4908 66.6789C24.4908 66.2023 24.3224 65.797 23.9858 65.4602C23.649 65.1235 23.2439 64.9565 22.7685 64.9565C22.2933 64.9565 21.8866 65.1235 21.55 65.4602C21.3027 65.7088 21.146 65.9952 21.0799 66.3214V66.3217ZM26.8163 67.9571C27.1374 68.2497 27.5195 68.3973 27.9624 68.3973C28.4376 68.3973 28.8443 68.2291 29.1811 67.8923C29.2239 67.8495 29.2639 67.8055 29.3014 67.7602L29.6629 67.8885C29.5968 67.979 29.5218 68.0672 29.4388 68.15C29.0307 68.558 28.5388 68.7612 27.9624 68.7612C27.3888 68.7612 26.8979 68.558 26.4901 68.15C26.0834 67.7433 25.8801 67.2512 25.8801 66.6751C25.8801 66.1001 26.0834 65.6093 26.4901 65.2027C26.898 64.796 27.3889 64.5915 27.9624 64.5915C28.4558 64.5915 28.887 64.7404 29.2562 65.0358C29.3171 65.0863 29.3779 65.142 29.4388 65.2027C29.4606 65.2262 29.4828 65.248 29.5035 65.2714L29.2445 65.5291L26.8165 67.9571H26.8163ZM28.9944 65.2971C28.6978 65.0694 28.3549 64.9567 27.9624 64.9567C27.4897 64.9567 27.0846 65.1236 26.749 65.4592C26.4124 65.7933 26.244 66.1986 26.244 66.6751C26.244 67.0661 26.358 67.4106 26.5859 67.707L28.9944 65.2971ZM30.881 64.9295H31.2217V65.608C31.2928 65.5069 31.3744 65.4099 31.469 65.3167C31.7693 65.015 32.0775 64.857 32.3935 64.8427V65.2144C32.1784 65.2247 31.957 65.3438 31.7266 65.5744C31.4029 65.8955 31.2345 66.2816 31.2217 66.7321V68.6552H30.881V64.9295ZM33.568 64.9295H33.9086V65.0164C34.1209 64.8119 34.3747 64.7094 34.6713 64.7094C34.9769 64.7094 35.2384 64.817 35.4535 65.0317C35.5104 65.09 35.5624 65.1534 35.6052 65.2221C35.648 65.1562 35.6996 65.0926 35.7605 65.0317C35.9756 64.8168 36.2357 64.7094 36.5415 64.7094C36.8483 64.7094 37.1087 64.817 37.3236 65.0317C37.5282 65.239 37.6357 65.489 37.6461 65.7791V68.6552H37.3042V65.7791H37.308C37.2977 65.5821 37.2239 65.4137 37.084 65.2753C36.9324 65.1251 36.7511 65.0513 36.5413 65.0513C36.3316 65.0513 36.1514 65.1251 36.0013 65.2753C35.851 65.4241 35.7758 65.6094 35.7758 65.8321V68.6552H35.434V65.7791H35.4378C35.4274 65.5821 35.3524 65.4137 35.2136 65.2753C35.0621 65.1251 34.8807 65.0513 34.6709 65.0513C34.4612 65.0513 34.2811 65.1251 34.1323 65.2753C34.0002 65.4035 33.9264 65.5613 33.9083 65.7493V68.6552H33.5676V64.9295H33.568ZM43.113 68.6552H42.7711V67.8964C42.7065 67.9845 42.6339 68.0699 42.5548 68.1502C42.1481 68.5581 41.656 68.7614 41.0798 68.7614C40.5049 68.7614 40.014 68.5581 39.6075 68.1502C39.1996 67.7435 38.9963 67.253 38.9963 66.6793C38.9963 66.1017 39.1996 65.6096 39.6075 65.2029C40.0142 64.7962 40.5049 64.5917 41.0798 64.5917C41.656 64.5917 42.1481 64.795 42.5548 65.2029C42.6339 65.2832 42.7065 65.3687 42.7711 65.4567V64.9297H43.113V68.6554V68.6552ZM42.7711 67.0157V66.3411C42.7077 66.007 42.5497 65.713 42.2971 65.4604C41.9605 65.1236 41.5552 64.9567 41.0798 64.9567C40.6032 64.9567 40.1979 65.1236 39.8611 65.4604C39.5246 65.7972 39.3574 66.2023 39.3574 66.6791C39.3574 67.1543 39.5246 67.5596 39.8611 67.895C40.1979 68.2291 40.603 68.3973 41.0798 68.3973C41.555 68.3973 41.9605 68.2291 42.2971 67.8923C42.5497 67.6398 42.7077 67.3472 42.7711 67.0157ZM44.9001 65.7609V68.6552H44.5594V64.9295H44.9001V65.1691C45.2108 64.8594 45.5734 64.7055 45.9852 64.7055C46.4254 64.7055 46.783 64.8439 47.0588 65.1198C47.3344 65.3942 47.4757 65.7426 47.4836 66.1621V68.6548H47.143V66.1931C47.143 65.8757 47.0278 65.6066 46.7985 65.3824C46.5707 65.1583 46.2986 65.047 45.9854 65.047C45.6721 65.047 45.4013 65.1571 45.1734 65.3771C45.0491 65.5 44.9584 65.6285 44.9002 65.7606L44.9001 65.7609ZM49.6394 67.9571C49.9605 68.2497 50.3425 68.3973 50.7855 68.3973C51.2607 68.3973 51.6674 68.2291 52.0042 67.8923C52.047 67.8495 52.0869 67.8055 52.1245 67.7602L52.4859 67.8885C52.4198 67.979 52.3448 68.0672 52.2618 68.15C51.8537 68.558 51.3618 68.7612 50.7855 68.7612C50.2118 68.7612 49.7209 68.558 49.3132 68.15C48.9065 67.7433 48.7032 67.2512 48.7032 66.6751C48.7032 66.1001 48.9065 65.6093 49.3132 65.2027C49.7211 64.796 50.212 64.5915 50.7855 64.5915C51.2788 64.5915 51.71 64.7404 52.0792 65.0358C52.1401 65.0863 52.2009 65.142 52.2618 65.2027C52.2837 65.2262 52.3059 65.248 52.3265 65.2714L52.0676 65.5291L49.6395 67.9571H49.6394ZM51.8175 65.2971C51.5208 65.0694 51.1779 64.9567 50.7855 64.9567C50.3127 64.9567 49.9076 65.1236 49.5721 65.4592C49.2355 65.7933 49.0671 66.1986 49.0671 66.6751C49.0671 67.0661 49.181 67.4106 49.409 67.707L51.8175 65.2971ZM54.0447 65.7609V68.6552H53.7041V64.9295H54.0447V65.1691C54.3554 64.8594 54.7181 64.7055 55.1299 64.7055C55.57 64.7055 55.9276 64.8439 56.2034 65.1198C56.4791 65.3942 56.6203 65.7426 56.6283 66.1621V68.6548H56.2876V66.1931C56.2876 65.8757 56.1724 65.6066 55.9431 65.3824C55.7154 65.1583 55.4432 65.047 55.1301 65.047C54.8167 65.047 54.546 65.1571 54.3181 65.3771C54.1937 65.5 54.103 65.6285 54.0449 65.7606L54.0447 65.7609ZM58.6066 64.9295V63.3433H58.9473V64.9295H59.7061V65.2714H58.9473V68.6552H58.6066V65.2714H57.8478V64.9295H58.6066ZM63.6115 64.9295H63.9522V65.0164C64.1644 64.8119 64.4182 64.7094 64.7149 64.7094C65.0205 64.7094 65.282 64.817 65.4971 65.0317C65.554 65.09 65.6059 65.1534 65.6487 65.2221C65.6915 65.1562 65.7431 65.0926 65.8041 65.0317C66.0192 64.8168 66.2793 64.7094 66.5851 64.7094C66.8919 64.7094 67.1522 64.817 67.3671 65.0317C67.5718 65.239 67.6792 65.489 67.6896 65.7791V68.6552H67.3477V65.7791H67.3516C67.3412 65.5821 67.2674 65.4137 67.1276 65.2753C66.9759 65.1251 66.7947 65.0513 66.5849 65.0513C66.3751 65.0513 66.1949 65.1251 66.0449 65.2753C65.8946 65.4241 65.8194 65.6094 65.8194 65.8321V68.6552H65.4775V65.7791H65.4814C65.471 65.5821 65.396 65.4137 65.2572 65.2753C65.1057 65.1251 64.9243 65.0513 64.7145 65.0513C64.5047 65.0513 64.3247 65.1251 64.1759 65.2753C64.0438 65.4035 63.97 65.5613 63.9518 65.7493V68.6552H63.6112V64.9295H63.6115ZM73.1565 68.6552H72.8147V67.8964C72.75 67.9845 72.6775 68.0699 72.5984 68.1502C72.1917 68.5581 71.6995 68.7614 71.1234 68.7614C70.5485 68.7614 70.0576 68.5581 69.6511 68.1502C69.2431 67.7435 69.0399 67.253 69.0399 66.6793C69.0399 66.1017 69.2431 65.6096 69.6511 65.2029C70.0578 64.7962 70.5485 64.5917 71.1234 64.5917C71.6995 64.5917 72.1917 64.795 72.5984 65.2029C72.6775 65.2832 72.75 65.3687 72.8147 65.4567V64.9297H73.1565V68.6554V68.6552ZM72.8147 67.0157V66.3411C72.7513 66.007 72.5933 65.713 72.3407 65.4604C72.0041 65.1236 71.5988 64.9567 71.1234 64.9567C70.6468 64.9567 70.2415 65.1236 69.9047 65.4604C69.5681 65.7972 69.401 66.2023 69.401 66.6791C69.401 67.1543 69.5681 67.5596 69.9047 67.895C70.2415 68.2291 70.6466 68.3973 71.1234 68.3973C71.5986 68.3973 72.0041 68.2291 72.3407 67.8923C72.5933 67.6398 72.7513 67.3472 72.8147 67.0157ZM76.4198 64.9295L75.5016 66.0677L76.9664 68.6552H76.5415L75.2776 66.3411L74.9435 66.7541V68.6552H74.6028V63.3433H74.9435V66.2076L75.9795 64.9295H76.4197H76.4198ZM78.6055 67.9571C78.9266 68.2497 79.3086 68.3973 79.7516 68.3973C80.2268 68.3973 80.6335 68.2291 80.9703 67.8923C81.0131 67.8495 81.0531 67.8055 81.0906 67.7602L81.452 67.8885C81.386 67.979 81.311 68.0672 81.228 68.15C80.8199 68.558 80.3279 68.7612 79.7516 68.7612C79.1779 68.7612 78.687 68.558 78.2793 68.15C77.8726 67.7433 77.6693 67.2512 77.6693 66.6751C77.6693 66.1001 77.8726 65.6093 78.2793 65.2027C78.6872 64.796 79.1781 64.5915 79.7516 64.5915C80.245 64.5915 80.6762 64.7404 81.0453 65.0358C81.1063 65.0863 81.167 65.142 81.228 65.2027C81.2498 65.2262 81.272 65.248 81.2926 65.2714L81.0337 65.5291L78.6057 67.9571H78.6055ZM80.7836 65.2971C80.487 65.0694 80.1441 64.9567 79.7516 64.9567C79.2789 64.9567 78.8738 65.1236 78.5382 65.4592C78.2016 65.7933 78.0332 66.1986 78.0332 66.6751C78.0332 67.0661 78.1472 67.4106 78.3751 67.707L80.7836 65.2971ZM84.2061 68.7082C83.7413 68.7082 83.3696 68.5708 83.095 68.2952C82.8194 68.0193 82.6767 67.6709 82.6702 67.2514V64.9295H83.0108V67.2216C83.0108 67.5376 83.126 67.8067 83.3566 68.0297C83.5845 68.2538 83.8655 68.3663 84.2022 68.3663C84.5156 68.3663 84.7875 68.255 85.0167 68.031C85.2446 67.8067 85.36 67.5376 85.36 67.2216V64.9295H85.7004V67.2514C85.6927 67.6709 85.5516 68.0193 85.2756 68.2952C84.9998 68.5708 84.6436 68.7082 84.2059 68.7082H84.2061ZM87.1481 64.9295H87.4888V65.4527C87.5522 65.3672 87.6247 65.2829 87.7051 65.2027C88.113 64.7974 88.6037 64.5954 89.1774 64.5954C89.7537 64.5954 90.2458 64.7987 90.6511 65.204C91.0578 65.6107 91.2598 66.1014 91.2598 66.6791C91.2598 67.2528 91.0578 67.7435 90.6511 68.15C90.2458 68.558 89.7539 68.7612 89.1774 68.7612C88.6037 68.7612 88.113 68.558 87.7051 68.15C87.6247 68.0697 87.5522 67.9855 87.4888 67.9003V70.0784H87.1481V64.9295ZM87.4888 66.3217V67.0351C87.5546 67.3615 87.7114 67.6489 87.9589 67.8962C88.2955 68.233 88.7022 68.4012 89.1774 68.4012C89.6528 68.4012 90.0581 68.233 90.3947 67.8962C90.7313 67.5594 90.8996 67.1543 90.8996 66.6789C90.8996 66.2023 90.7313 65.797 90.3947 65.4602C90.0579 65.1235 89.6528 64.9565 89.1774 64.9565C88.7022 64.9565 88.2955 65.1235 87.9589 65.4602C87.7116 65.7088 87.5548 65.9952 87.4888 66.3214V66.3217Z" fill="#2A2A29"/>
<path d="M25.5489 78.3876C25.8806 78.3876 26.1805 78.4638 26.4488 78.616C26.7169 78.7682 26.9272 78.982 27.0793 79.2568C27.2315 79.5318 27.3078 79.8442 27.3078 80.1942C27.3078 80.5442 27.2315 80.8556 27.0793 81.1281C26.9272 81.4007 26.7169 81.6146 26.4488 81.7689C26.1807 81.9235 25.8806 82.0007 25.5489 82.0007C25.2308 82.0007 24.9432 81.9244 24.6864 81.7722C24.4295 81.62 24.2307 81.4076 24.0898 81.1348V81.9732H23.7627V76.9146H24.1035V79.2258C24.2444 78.9621 24.4421 78.7564 24.6966 78.6088C24.9511 78.461 25.235 78.3872 25.5487 78.3872L25.5489 78.3876ZM25.5285 81.694C25.8011 81.694 26.0467 81.6302 26.2647 81.5031C26.4828 81.3757 26.6545 81.1985 26.7794 80.9711C26.9044 80.7439 26.967 80.4848 26.967 80.194C26.967 79.9032 26.9044 79.644 26.7794 79.4169C26.6545 79.1897 26.4828 79.0123 26.2647 78.885C26.0467 78.7578 25.8011 78.6941 25.5285 78.6941C25.2558 78.6941 25.0115 78.7578 24.7957 78.885C24.5798 79.0123 24.4093 79.1895 24.2844 79.4169C24.1595 79.6441 24.0968 79.9032 24.0968 80.194C24.0968 80.4848 24.1595 80.7441 24.2844 80.9711C24.4093 81.1984 24.5798 81.3757 24.7957 81.5031C25.0115 81.6302 25.2558 81.694 25.5285 81.694ZM31.2122 78.4149L29.3851 82.4577C29.2488 82.7713 29.0908 82.9941 28.9113 83.1258C28.7319 83.2576 28.5194 83.3234 28.2739 83.3234C28.1103 83.3234 27.9569 83.2961 27.8137 83.2415C27.6706 83.1871 27.5489 83.1075 27.4491 83.0031L27.6196 82.744C27.8013 82.9303 28.0218 83.0235 28.2808 83.0235C28.4536 83.0235 28.6013 82.9759 28.7239 82.8805C28.8467 82.7848 28.9601 82.6214 29.0648 82.3896L29.2557 81.9601L27.6535 78.4151H28.0148L29.4397 81.5989L30.8645 78.4151H31.2124L31.2122 78.4149ZM36.8616 80.6305H34.0938L33.487 81.9735H33.112L35.3074 77.2015H35.6551L37.8503 81.9735H37.4753L36.8618 80.6305H36.8616ZM36.7321 80.3374L35.4777 77.5832L34.2301 80.3374H36.732H36.7321ZM38.7005 76.9149H39.0413V81.9735H38.7005V76.9149ZM43.4297 78.4147L41.6027 82.4576C41.4663 82.7711 41.3083 82.9939 41.1289 83.1256C40.9494 83.2574 40.737 83.3233 40.4914 83.3233C40.3278 83.3233 40.1744 83.296 40.0312 83.2414C39.8882 83.1869 39.7664 83.1073 39.6666 83.0029L39.8371 82.7438C40.0188 82.9301 40.2394 83.0233 40.4983 83.0233C40.6711 83.0233 40.8189 82.9757 40.9414 82.8803C41.0642 82.7846 41.1776 82.6212 41.2823 82.3894L41.4732 81.96L39.8711 78.4149H40.2323L41.6573 81.5987L43.082 78.4149H43.4299L43.4297 78.4147ZM45.5546 82.0007C45.2184 82.0007 44.9149 81.9233 44.6445 81.7689C44.374 81.6144 44.1616 81.3997 44.0069 81.1247C43.8525 80.8498 43.7753 80.5396 43.7753 80.1942C43.7753 79.8488 43.8526 79.5386 44.0069 79.2637C44.1616 78.9887 44.374 78.7738 44.6445 78.6196C44.9149 78.4649 45.2184 78.3878 45.5546 78.3878C45.8909 78.3878 46.1942 78.4651 46.4647 78.6196C46.7351 78.774 46.9477 78.9887 47.1022 79.2637C47.2568 79.5388 47.334 79.8488 47.334 80.1942C47.334 80.5396 47.2566 80.85 47.1022 81.1247C46.9477 81.3997 46.7351 81.6146 46.4647 81.7689C46.1942 81.9235 45.8909 82.0007 45.5546 82.0007ZM45.5546 81.6938C45.8273 81.6938 46.0716 81.6301 46.2874 81.5029C46.5033 81.3755 46.6736 81.1984 46.7987 80.971C46.9236 80.7438 46.9861 80.4847 46.9861 80.1939C46.9861 79.9031 46.9236 79.6438 46.7987 79.4167C46.6736 79.1895 46.5033 79.0122 46.2874 78.8848C46.0714 78.7576 45.8273 78.6939 45.5546 78.6939C45.282 78.6939 45.0377 78.7576 44.8217 78.8848C44.606 79.0122 44.4355 79.1893 44.3106 79.4167C44.1855 79.644 44.123 79.9031 44.123 80.1939C44.123 80.4847 44.1855 80.7439 44.3106 80.971C44.4355 81.1982 44.606 81.3755 44.8217 81.5029C45.0377 81.6301 45.282 81.6938 45.5546 81.6938ZM50.2224 78.3874C50.6679 78.3874 51.0201 78.5169 51.2792 78.7761C51.5382 79.0351 51.6678 79.4078 51.6678 79.8941V81.9734H51.327V79.9214C51.327 79.5214 51.2259 79.217 51.0237 79.0078C50.8213 78.7987 50.5384 78.6942 50.1749 78.6942C49.7567 78.6942 49.4272 78.8193 49.1862 79.0692C48.9454 79.3192 48.825 79.6556 48.825 80.0783V81.9735H48.4841V78.4149H48.8112V79.1853C48.934 78.9354 49.1168 78.7399 49.3601 78.5989C49.6031 78.458 49.8906 78.3876 50.2224 78.3876V78.3874ZM54.3653 78.3874C54.8062 78.3874 55.1447 78.4998 55.3811 78.7249C55.6173 78.9498 55.7355 79.2804 55.7355 79.7169V81.9734H55.4084V81.3393C55.2946 81.5483 55.1287 81.7109 54.9106 81.8268C54.6926 81.9427 54.4312 82.0007 54.1267 82.0007C53.7312 82.0007 53.4188 81.9075 53.1893 81.7211C52.9598 81.5348 52.8449 81.2892 52.8449 80.9849C52.8449 80.6895 52.9506 80.4498 53.162 80.2657C53.3733 80.0817 53.7106 79.9895 54.1742 79.9895H55.3945V79.7033C55.3945 79.3716 55.3047 79.1193 55.1252 78.9465C54.9457 78.7737 54.6833 78.6875 54.3379 78.6875C54.1015 78.6875 53.8753 78.7284 53.6594 78.8103C53.4434 78.8922 53.2606 79.0012 53.1107 79.1376L52.9402 78.8922C53.1176 78.733 53.3311 78.6092 53.581 78.5206C53.8309 78.432 54.0923 78.3876 54.3652 78.3876L54.3653 78.3874ZM54.1744 81.7211C54.4698 81.7211 54.7209 81.653 54.9277 81.5166C55.1345 81.3803 55.2902 81.1825 55.3948 80.9236V80.2555H54.1814C53.8315 80.2555 53.578 80.3191 53.4212 80.4464C53.2645 80.5738 53.1861 80.7487 53.1861 80.9713C53.1861 81.2031 53.2726 81.3861 53.4452 81.5202C53.618 81.6542 53.861 81.7213 54.1746 81.7213L54.1744 81.7211ZM60.5125 79.6212L59.4421 80.7189V81.9734H59.0944V77.2013H59.4421V80.2691L62.4213 77.2013H62.844L60.7443 79.3692L62.9872 81.9735H62.5645L60.5125 79.6214V79.6212ZM63.8716 76.9147H64.2124V81.9734H63.8716V76.9147ZM66.9441 78.3872C67.385 78.3872 67.7235 78.4996 67.9599 78.7247C68.1961 78.9496 68.3143 79.2802 68.3143 79.7167V81.9732H67.9872V81.3391C67.8734 81.5482 67.7075 81.7107 67.4894 81.8266C67.2714 81.9425 67.01 82.0005 66.7054 82.0005C66.31 82.0005 65.9975 81.9073 65.768 81.721C65.5385 81.5346 65.4237 81.2891 65.4237 80.9847C65.4237 80.6893 65.5294 80.4496 65.7407 80.2655C65.9521 80.0815 66.2894 79.9894 66.753 79.9894H67.9733V79.7031C67.9733 79.3715 67.8834 79.1191 67.704 78.9463C67.5245 78.7735 67.262 78.6874 66.9166 78.6874C66.6802 78.6874 66.4541 78.7282 66.2381 78.8101C66.0222 78.892 65.8394 79.0011 65.6895 79.1374L65.519 78.892C65.6964 78.7328 65.9098 78.609 66.1598 78.5204C66.4097 78.4318 66.6711 78.3874 66.9439 78.3874L66.9441 78.3872ZM66.7532 81.721C67.0486 81.721 67.2997 81.6528 67.5065 81.5165C67.7133 81.3801 67.869 81.1823 67.9736 80.9234V80.2553H66.7602C66.4102 80.2553 66.1568 80.3189 66 80.4463C65.8433 80.5736 65.7649 80.7485 65.7649 80.9711C65.7649 81.2029 65.8514 81.3859 66.024 81.52C66.1968 81.654 66.4398 81.7211 66.7533 81.7211L66.7532 81.721ZM72.9276 78.4145V81.9732H72.6004V81.2096C72.4822 81.4596 72.3073 81.654 72.0755 81.7926C71.8439 81.9311 71.571 82.0005 71.2575 82.0005C70.7939 82.0005 70.4302 81.871 70.1667 81.6117C69.9032 81.3528 69.7713 80.9801 69.7713 80.4938V78.4145H70.1121V80.4665C70.1121 80.8665 70.2144 81.1709 70.4189 81.3801C70.6234 81.5892 70.9121 81.6936 71.2846 81.6936C71.6846 81.6936 72.0017 81.5686 72.2358 81.3187C72.4699 81.0687 72.5868 80.7323 72.5868 80.3096V78.4144H72.9276V78.4145ZM76.8729 81.6801V81.9734H74.0436V81.7416L76.3887 78.708H74.0776V78.4147H76.8319V78.6465L74.4797 81.6801H76.8727H76.8729ZM79.3184 82.0007C78.9821 82.0007 78.6787 81.9233 78.4083 81.7689C78.1377 81.6144 77.9253 81.3997 77.7707 81.1247C77.6162 80.8498 77.5391 80.5396 77.5391 80.1942C77.5391 79.8488 77.6164 79.5386 77.7707 79.2637C77.9253 78.9887 78.1377 78.7738 78.4083 78.6196C78.6787 78.4649 78.9821 78.3878 79.3184 78.3878C79.6546 78.3878 79.9579 78.4651 80.2285 78.6196C80.4989 78.774 80.7114 78.9887 80.8659 79.2637C81.0206 79.5388 81.0977 79.8488 81.0977 80.1942C81.0977 80.5396 81.0204 80.85 80.8659 81.1247C80.7114 81.3997 80.4989 81.6146 80.2285 81.7689C79.9579 81.9235 79.6546 82.0007 79.3184 82.0007ZM79.3184 81.6938C79.591 81.6938 79.8353 81.6301 80.0511 81.5029C80.2671 81.3755 80.4374 81.1984 80.5624 80.971C80.6873 80.7438 80.7498 80.4847 80.7498 80.1939C80.7498 79.9031 80.6873 79.6438 80.5624 79.4167C80.4374 79.1895 80.2671 79.0122 80.0511 78.8848C79.8352 78.7576 79.591 78.6939 79.3184 78.6939C79.0457 78.6939 78.8014 78.7576 78.5855 78.8848C78.3697 79.0122 78.1992 79.1893 78.0743 79.4167C77.9493 79.644 77.8868 79.9031 77.8868 80.1939C77.8868 80.4847 77.9493 80.7439 78.0743 80.971C78.1992 81.1982 78.3697 81.3755 78.5855 81.5029C78.8014 81.6301 79.0457 81.6938 79.3184 81.6938ZM85.002 78.4147L83.3929 81.9734H83.0453L81.4431 78.4147H81.8044L83.2224 81.5985L84.6541 78.4147H85.002ZM86.9292 78.3874C87.3701 78.3874 87.7086 78.4998 87.945 78.7249C88.1812 78.9498 88.2994 79.2804 88.2994 79.7169V81.9734H87.9723V81.3393C87.8585 81.5483 87.6926 81.7109 87.4746 81.8268C87.2565 81.9427 86.9951 82.0007 86.6906 82.0007C86.2951 82.0007 85.9827 81.9075 85.7532 81.7211C85.5237 81.5348 85.4088 81.2892 85.4088 80.9849C85.4088 80.6895 85.5145 80.4498 85.7259 80.2657C85.9372 80.0817 86.2745 79.9895 86.7381 79.9895H87.9584V79.7033C87.9584 79.3716 87.8686 79.1193 87.6891 78.9465C87.5096 78.7737 87.2472 78.6875 86.9018 78.6875C86.6654 78.6875 86.4392 78.7284 86.2233 78.8103C86.0073 78.8922 85.8245 79.0012 85.6746 79.1376L85.5041 78.8922C85.6815 78.733 85.895 78.6092 86.1449 78.5206C86.3948 78.432 86.6562 78.3876 86.9291 78.3876L86.9292 78.3874ZM86.7383 81.7211C87.0337 81.7211 87.2849 81.653 87.4916 81.5166C87.6984 81.3803 87.8541 81.1825 87.9587 80.9236V80.2555H86.7454C86.3954 80.2555 86.1419 80.3191 85.9851 80.4464C85.8284 80.5738 85.75 80.7487 85.75 80.9713C85.75 81.2031 85.8365 81.3861 86.0091 81.5202C86.1819 81.6542 86.425 81.7213 86.7385 81.7213L86.7383 81.7211Z" fill="#2A2A29"/>
<path d="M98.9423 32.8278V34.7516H98.498V29.2051H100.575C101.178 29.2632 101.691 29.4406 102.113 29.7363C102.618 30.0902 102.869 30.5159 102.869 31.0154C102.869 31.517 102.618 31.9442 102.113 32.2979C101.608 32.6517 101 32.8278 100.288 32.8278H98.9421H98.9423ZM98.9423 29.5211V32.512H100.288C100.876 32.512 101.377 32.3664 101.794 32.0742C102.211 31.782 102.42 31.4283 102.42 31.0154C102.42 30.6011 102.211 30.2487 101.794 29.9577C101.377 29.6667 100.876 29.5211 100.288 29.5211H98.9423ZM104.392 29.2051L107.365 32.8102L110.333 29.2051H110.843L110.823 29.2299V34.7516H110.377V29.7707L107.365 33.4241L104.348 29.7707V34.7516H103.902V29.2299L103.884 29.2051H104.392H104.392Z" fill="#2A2A29"/>
<path fill-rule="evenodd" clip-rule="evenodd" d="M24.5596 55.2393V56.6438C24.5596 56.677 24.5327 56.7039 24.4995 56.7039H13.6372C13.6041 56.7039 13.5771 56.677 13.5771 56.6438V41.2828C13.5771 41.2497 13.6041 41.2228 13.6372 41.2228H24.1703C24.2035 41.2228 24.2304 41.2497 24.2304 41.2828V42.6874C24.2304 42.7205 24.2035 42.7474 24.1703 42.7474H15.3213V48.0914H23.2049C23.2381 48.0914 23.265 48.1183 23.265 48.1514V49.5338C23.265 49.5669 23.2381 49.5938 23.2049 49.5938H15.3213V55.1793H24.4995C24.5327 55.1793 24.5596 55.2062 24.5596 55.2393ZM20.4216 36.9238H22.5196L18.9419 39.6624H17.3958L20.4215 36.9238H20.4216ZM31.242 42.7474H25.9041C25.8709 42.7474 25.844 42.7205 25.844 42.6874V41.2828C25.844 41.2497 25.8709 41.2228 25.9041 41.2228H38.3243C38.3574 41.2228 38.3844 41.2497 38.3844 41.2828V42.6874C38.3844 42.7205 38.3574 42.7474 38.3243 42.7474H32.9863V56.6438C32.9863 56.677 32.9594 56.7039 32.9263 56.7039H31.3023C31.2692 56.7039 31.2422 56.677 31.2422 56.6438V42.7474H31.242ZM49.7404 52.6005H41.2594L39.4324 56.6683C39.4225 56.6905 39.4005 56.7037 39.3776 56.7037L37.6879 56.7039C37.6548 56.7039 37.6279 56.677 37.6279 56.6438C37.6279 56.6331 37.6307 56.6231 37.6358 56.6143L44.6557 41.258C44.6657 41.2362 44.6874 41.2231 44.7101 41.2231L46.3121 41.2228C46.3383 41.2228 46.3605 41.2395 46.3686 41.2628L53.3885 56.6188C53.4023 56.6488 53.3891 56.6845 53.3591 56.6981C53.351 56.7018 53.3426 56.7034 53.3343 56.7034L51.6228 56.7037C51.5969 56.7037 51.5749 56.6874 51.5662 56.6643L49.7406 52.6003L49.7404 52.6005ZM49.0942 51.1636L45.4999 43.1196L41.9057 51.1636H49.0942ZM55.8796 41.2228H57.5036C57.5367 41.2228 57.5637 41.2497 57.5637 41.2828V55.1793H66.1058C66.1389 55.1793 66.1658 55.2062 66.1658 55.2393V56.6438C66.1658 56.677 66.1389 56.7039 66.1058 56.7039H55.8796C55.8465 56.7039 55.8196 56.677 55.8196 56.6438V41.2828C55.8196 41.2497 55.8465 41.2228 55.8796 41.2228ZM75.2125 56.8357C74.4476 56.8357 73.7173 56.7499 73.023 56.5785C72.3287 56.4073 71.6697 56.1501 71.0471 55.8076C70.4246 55.4651 69.8698 55.0586 69.3833 54.5887C68.8966 54.1186 68.478 53.5845 68.1278 52.9874C67.7773 52.3898 67.5145 51.7554 67.3396 51.0848C67.1645 50.4141 67.077 49.7067 67.077 48.9633C67.077 48.2198 67.1645 47.5122 67.3396 46.8417C67.5145 46.171 67.7775 45.5365 68.1278 44.9391C68.4781 44.342 68.8968 43.8078 69.3833 43.338C69.8696 42.8682 70.4246 42.4615 71.0471 42.1191C71.6697 41.7766 72.3287 41.5192 73.023 41.3482C73.7175 41.177 74.4474 41.0912 75.2125 41.0912C76.7441 41.0912 78.1253 41.4303 79.3558 42.108C79.971 42.4469 80.5216 42.8517 81.0064 43.322C81.4908 43.7916 81.9105 44.3274 82.2643 44.9283C82.6184 45.5293 82.884 46.1666 83.0607 46.8387C83.2375 47.511 83.3261 48.2194 83.3261 48.9633C83.3261 50.4514 82.9721 51.7966 82.2642 52.9985C81.9103 53.5993 81.4907 54.135 81.0062 54.6047C80.5215 55.0748 79.9709 55.4796 79.3556 55.8187C78.7404 56.1575 78.0871 56.4121 77.3965 56.5815C76.7057 56.7509 75.9773 56.8358 75.2124 56.8358L75.2125 56.8357ZM75.2125 55.267C76.4163 55.267 77.5041 54.995 78.4748 54.4518C78.9602 54.1801 79.3931 53.856 79.7731 53.4797C80.1532 53.1033 80.4811 52.6739 80.7563 52.1924C81.0312 51.7112 81.2378 51.2011 81.3756 50.6628C81.5131 50.1247 81.5822 49.5581 81.5822 48.9633C81.5822 48.3684 81.5131 47.8018 81.3756 47.2637C81.238 46.7256 81.0312 46.2155 80.7563 45.7342C80.4811 45.2526 80.1533 44.8232 79.7731 44.4468C79.3933 44.0705 78.9602 43.7465 78.4748 43.4747C77.5041 42.9315 76.4164 42.6595 75.2125 42.6595C74.0085 42.6595 72.9173 42.9313 71.9391 43.4747C71.4501 43.7463 71.0133 44.0707 70.6297 44.4471C70.246 44.8234 69.9145 45.2528 69.6357 45.7347C69.3571 46.2164 69.1475 46.7263 69.0083 47.2639C68.8688 47.8016 68.7992 48.3681 68.7992 48.9633C68.7992 49.5584 68.869 50.1249 69.0083 50.6626C69.1475 51.2 69.3567 51.7101 69.6357 52.1918C69.9145 52.6737 70.2462 53.1032 70.6297 53.4794C71.0133 53.8558 71.4499 54.1802 71.9391 54.4518C72.4278 54.7234 72.9453 54.9274 73.4905 55.0632C74.0356 55.1988 74.6098 55.267 75.2125 55.267ZM99.8061 41.2828V56.6438C99.8061 56.677 99.7792 56.7039 99.7461 56.7039H98.4076C98.3868 56.7039 98.3683 56.6932 98.3576 56.6771L88.5928 44.3518V56.6438C88.5928 56.677 88.5658 56.7039 88.5327 56.7039H86.9087C86.8756 56.7039 86.8486 56.677 86.8486 56.6438V41.2828C86.8486 41.2497 86.8756 41.2228 86.9087 41.2228H88.2473C88.2665 41.2228 88.2838 41.2319 88.2949 41.2462L98.084 53.575V41.283C98.084 41.2499 98.111 41.223 98.1441 41.223H99.7461C99.7792 41.223 99.8061 41.2499 99.8061 41.283V41.2828Z" fill="#2A2A29"/>
<path d="M13.978 73.4775C13.9012 73.4775 13.8389 73.4152 13.8389 73.3384C13.8389 73.2616 13.9012 73.1992 13.978 73.1992V73.4775ZM98.0214 73.4775H13.978V73.1992H98.0214V73.4775ZM98.0214 73.1992C98.0982 73.1992 98.1606 73.2616 98.1606 73.3384C98.1606 73.4152 98.0982 73.4775 98.0214 73.4775V73.1992Z" fill="#C29569"/>
</svg>
