<svg width="40" height="40" viewBox="0 0 40 40" fill="none" xmlns="http://www.w3.org/2000/svg">
<circle cx="20" cy="20" r="20" fill="#E04E39"/>
<path fill-rule="evenodd" clip-rule="evenodd" d="M13 19.75C13 19.3358 13.3358 19 13.75 19L26.8929 19C27.3071 19 27.6429 19.3358 27.6429 19.75C27.6429 20.1642 27.3071 20.5 26.8929 20.5L13.75 20.5C13.3358 20.5 13 20.1642 13 19.75Z" fill="white"/>
<path fill-rule="evenodd" clip-rule="evenodd" d="M22.3626 15.2197C22.6554 14.9268 23.1303 14.9268 23.4232 15.2197L27.4232 19.2197C27.7161 19.5126 27.7161 19.9874 27.4232 20.2803L23.4232 24.2803C23.1303 24.5732 22.6554 24.5732 22.3626 24.2803C22.0697 23.9874 22.0697 23.5126 22.3626 23.2197L25.8322 19.75L22.3626 16.2803C22.0697 15.9874 22.0697 15.5126 22.3626 15.2197Z" fill="white"/>
</svg>
