<svg width="427" height="375" viewBox="0 0 427 375" fill="none" xmlns="http://www.w3.org/2000/svg">
<path d="M103.456 72.4947L104.657 70.5221C114.789 53.8901 133.128 43.8612 152.433 45.1035C154.918 45.2584 157.388 45.5956 159.823 46.1124C177.375 49.877 192.653 63.0832 198.985 79.9938C202.702 89.9549 203.745 101.429 210.81 109.358C220.006 119.65 235.616 119.974 249.345 119.545C263.074 119.115 278.692 119.484 287.842 129.814C293.57 136.29 295.398 145.49 294.93 154.156C293.706 177.098 277.665 197.615 257.264 207.809C236.863 218.004 212.835 218.922 190.5 214.435C159.218 208.148 129.471 190.891 111.586 164.238C93.7008 137.585 89.1824 101.256 103.456 72.4947Z" fill="#F7F9FA"/>
<rect x="223.5" y="27.5" width="168" height="147" rx="4.5" fill="white" stroke="#EBEBEB"/>
<path d="M224 33C224 30.2386 226.239 28 229 28H386C388.761 28 391 30.2386 391 33V46H224V33Z" fill="#EBEBEB"/>
<path d="M254.289 329.578C268.808 329.578 280.578 317.808 280.578 303.289C280.578 288.77 268.808 277 254.289 277C239.77 277 228 288.77 228 303.289C228 317.808 239.77 329.578 254.289 329.578Z" fill="#F7F9FA"/>
<path d="M92.3163 31.6131C94.5089 18.5388 85.6875 6.1625 72.6132 3.96992C59.5389 1.77734 47.1626 10.5987 44.97 23.6731C42.7774 36.7474 51.5988 49.1236 64.6731 51.3162C77.7475 53.5088 90.1237 44.6874 92.3163 31.6131Z" fill="#F7F9FA"/>
<path d="M397 374.5C397 374.769 308.148 375 198.5 375C88.8524 375 0 374.769 0 374.5C0 374.231 88.8524 374 198.5 374C308.148 374 397 374.212 397 374.5Z" fill="#EBEBEB"/>
<path d="M147.861 374.257H140.028L135.557 321.621H147.861V374.257Z" fill="#263238"/>
<path d="M86.8788 374.257H79.0542L74.583 321.621H86.8788V374.257Z" fill="#263238"/>
<path d="M234.37 374.257H226.546L222.074 321.621H234.37V374.257Z" fill="#263238"/>
<path d="M108.34 274.715L115.792 160.6H45.4124C44.1557 160.601 42.9146 160.878 41.777 161.412C40.6394 161.946 39.6332 162.724 38.8297 163.69C38.0262 164.656 37.445 165.788 37.1274 167.003C36.8097 168.219 36.7634 169.49 36.9917 170.726L65.3176 323.583C74.3262 323.459 238.494 323.583 238.494 323.583V274.731L108.34 274.715Z" fill="#455A64"/>
<g clip-path="url(#clip0_3373_9589)">
<path d="M197.93 174.993L193.554 179.719C193.554 179.719 175.139 210.637 172.525 212.63C169.91 214.623 165.477 216.901 162.863 216.559C160.248 216.217 153.258 211.434 153.258 211.434L159.339 192.644L166.273 190.765L185.028 169.014L197.93 174.993Z" fill="#FFBE9D"/>
<path d="M194.406 178.694C195.998 176.815 199.976 172.943 199.976 172.943L201.681 171.121C201.738 171.292 201.795 171.406 201.852 171.577C201.965 171.861 202.079 172.203 202.306 172.431C202.761 172.829 203.443 172.715 204.011 172.431C205.091 171.804 205.83 170.609 205.83 169.299C205.83 168.103 205.148 166.908 204.125 166.281C204.011 165.997 203.898 165.655 203.67 165.37C202.249 163.491 198.839 163.776 198.839 163.776L199.351 163.036C199.351 163.036 201.681 161.612 205.489 164.004C206.057 164.345 206.739 164.516 207.421 164.402C207.819 164.345 208.217 164.174 208.444 163.776C209.013 162.808 208.501 162.182 206.114 160.644C203.727 159.107 200.942 158.367 199.18 159.05C197.418 159.733 196.736 160.075 196.736 160.075C196.736 160.075 200.942 153.299 201.169 152.9C201.908 151.648 201.908 150.224 201.113 149.655C200.601 149.313 199.692 149.199 198.839 150.68C198.1 151.932 188.666 163.833 188.666 163.833L184.801 169.356L194.406 178.694Z" fill="#FFBE9D"/>
<path d="M186.165 169.584C186.733 170.21 187.813 170.153 188.552 169.755C189.291 169.356 189.916 168.73 190.655 168.274C192.872 166.908 195.884 167.477 197.987 166.054C198.271 165.826 198.612 165.484 198.441 165.199C198.328 164.915 197.93 164.801 197.589 164.801C194.747 164.687 191.905 164.573 189.064 164.459" fill="#FFBE9D"/>
<path d="M189.064 164.345C189.064 164.288 189.405 164.288 189.973 164.288C190.541 164.288 191.451 164.288 192.474 164.288C193.554 164.345 194.861 164.345 196.225 164.402C196.566 164.402 196.964 164.402 197.305 164.459C197.646 164.516 198.1 164.402 198.555 164.801C198.782 165.029 198.782 165.37 198.669 165.598C198.555 165.826 198.385 165.997 198.214 166.11C197.873 166.338 197.475 166.566 197.077 166.68C195.486 167.306 193.895 167.306 192.587 167.648C191.905 167.819 191.28 168.046 190.769 168.331C190.257 168.616 189.802 169.014 189.348 169.356C188.495 170.039 187.472 170.21 186.904 170.039C186.279 169.868 186.108 169.527 186.108 169.527C186.165 169.47 186.336 169.755 186.904 169.868C187.472 169.982 188.325 169.755 189.12 169.071C189.518 168.73 189.973 168.331 190.541 167.989C191.11 167.648 191.735 167.42 192.417 167.192C193.781 166.851 195.372 166.794 196.85 166.224C197.191 166.11 197.532 165.883 197.873 165.712C198.157 165.484 198.328 165.199 198.157 165.085C198.044 164.915 197.646 164.915 197.248 164.915C196.907 164.915 196.509 164.858 196.168 164.858C194.804 164.801 193.554 164.687 192.417 164.63C191.337 164.573 190.484 164.516 189.916 164.459C189.405 164.459 189.064 164.402 189.064 164.345Z" fill="#EB996E"/>
<path d="M198.726 163.719C198.783 163.776 199.067 163.093 199.976 162.694C200.431 162.466 201.056 162.409 201.681 162.58C202.306 162.694 202.988 163.036 203.67 163.434C204.352 163.833 205.034 164.231 205.66 164.459C206.342 164.687 206.967 164.744 207.535 164.63C208.103 164.516 208.444 164.118 208.501 163.833C208.615 163.548 208.615 163.377 208.615 163.377C208.558 163.377 208.558 163.548 208.388 163.776C208.274 164.004 207.933 164.288 207.478 164.402C207.024 164.516 206.398 164.402 205.773 164.174C205.148 163.947 204.523 163.548 203.841 163.15C203.159 162.751 202.477 162.409 201.738 162.295C201.056 162.182 200.374 162.239 199.862 162.523C199.351 162.751 199.067 163.093 198.896 163.32C198.726 163.605 198.726 163.719 198.726 163.719Z" fill="#EB996E"/>
<path d="M201.397 152.445C201.34 152.445 201.056 152.957 200.544 153.811C199.976 154.722 199.351 155.861 198.612 157.057C197.873 158.253 197.191 159.391 196.623 160.302C196.111 161.157 195.77 161.669 195.827 161.669C195.884 161.669 196.225 161.214 196.793 160.416C197.361 159.619 198.1 158.48 198.839 157.228C199.635 155.975 200.26 154.779 200.715 153.925C201.226 153.014 201.454 152.445 201.397 152.445Z" fill="#EB996E"/>
<path d="M199.351 166.224C199.351 166.224 199.521 166.281 199.862 166.338C200.146 166.395 200.658 166.452 200.942 166.908C201.056 167.135 201.113 167.42 200.942 167.705C200.828 167.99 200.601 168.274 200.317 168.559C200.09 168.844 199.805 169.242 199.805 169.698C199.805 170.153 200.09 170.609 200.487 170.893C200.885 171.178 201.397 171.178 201.852 171.064C202.306 170.95 202.647 170.723 202.931 170.438C203.443 169.812 203.727 169.242 203.954 168.673C204.182 168.16 204.295 167.648 204.295 167.363C204.295 167.022 204.239 166.851 204.239 166.851C204.239 166.851 204.239 167.022 204.182 167.363C204.125 167.648 204.011 168.103 203.784 168.616C203.557 169.128 203.216 169.698 202.761 170.267C202.306 170.78 201.397 171.064 200.715 170.666C200.374 170.438 200.146 170.096 200.146 169.755C200.146 169.413 200.317 169.071 200.544 168.787C200.772 168.502 200.999 168.217 201.169 167.876C201.34 167.534 201.283 167.135 201.113 166.851C200.715 166.338 200.146 166.281 199.862 166.281C199.521 166.167 199.351 166.167 199.351 166.224Z" fill="#EB996E"/>
<path d="M201.851 170.722C201.851 170.722 201.738 170.836 201.681 171.121C201.624 171.406 201.681 171.861 202.022 172.317C202.42 172.715 203.102 172.943 203.784 172.772C204.466 172.601 205.091 172.089 205.546 171.406C205.944 170.722 206.114 169.925 206.057 169.242C206 168.559 205.716 167.932 205.432 167.534C205.148 167.078 204.807 166.851 204.58 166.68C204.352 166.509 204.182 166.452 204.182 166.509C204.125 166.566 204.75 166.851 205.262 167.705C205.489 168.103 205.716 168.673 205.773 169.299C205.83 169.925 205.659 170.665 205.262 171.292C204.864 171.918 204.295 172.374 203.727 172.544C203.102 172.715 202.533 172.544 202.192 172.203C201.851 171.861 201.795 171.463 201.795 171.178C201.795 170.893 201.908 170.779 201.851 170.722Z" fill="#EB996E"/>
<path d="M194.463 172.431C194.463 172.431 194.292 172.203 193.838 172.032C193.383 171.861 192.701 171.747 191.905 172.032L192.076 172.26C192.246 171.975 192.36 171.634 192.474 171.235C193.156 169.242 192.872 167.534 192.815 167.534C192.701 167.534 192.815 169.185 192.189 171.121C192.076 171.463 191.962 171.804 191.792 172.089L191.621 172.431L191.962 172.317C192.644 172.089 193.326 172.089 193.724 172.203C194.179 172.317 194.406 172.488 194.463 172.431Z" fill="#EB996E"/>
<path d="M201.567 160.929C201.511 160.929 201.454 161.555 201.908 162.182C202.363 162.808 202.988 162.979 202.988 162.922C203.045 162.865 202.534 162.58 202.193 162.011C201.795 161.498 201.681 160.929 201.567 160.929Z" fill="#EB996E"/>
<path d="M208.899 269.342C208.899 269.342 216.288 270.936 222.937 269.968C229.132 269.057 243 270.025 243 278.167C243 287.278 224.472 285.057 217.254 283.577C210.036 282.153 202.818 280.844 202.818 280.844L208.899 269.342Z" fill="#384A52"/>
<path d="M225.495 281.071C225.609 281.071 226.006 279.648 226.404 277.883C226.802 276.118 227.029 274.637 226.973 274.637C226.859 274.637 226.461 276.061 226.063 277.826C225.665 279.591 225.438 281.014 225.495 281.071Z" fill="#263238"/>
<path d="M222.994 281.185C223.108 281.185 223.392 279.762 223.619 277.94C223.847 276.118 224.017 274.637 223.904 274.637C223.79 274.637 223.506 276.061 223.278 277.883C222.994 279.705 222.88 281.185 222.994 281.185Z" fill="#263238"/>
<path d="M220.55 280.217C220.664 280.217 220.891 278.965 221.062 277.37C221.232 275.776 221.346 274.466 221.232 274.466C221.118 274.466 220.891 275.719 220.721 277.313C220.55 278.908 220.436 280.217 220.55 280.217Z" fill="#263238"/>
<path d="M216.742 279.249C216.856 279.306 217.367 278.224 217.708 276.801C218.049 275.377 218.049 274.182 217.993 274.182C217.879 274.182 217.708 275.32 217.367 276.687C216.97 278.11 216.629 279.249 216.742 279.249Z" fill="#263238"/>
<path d="M215.89 275.947C215.89 275.947 215.549 275.89 214.924 275.89C214.298 275.89 213.389 276.004 212.309 276.402C212.025 276.516 211.741 276.63 211.513 276.858C211.286 277.029 211.002 277.37 211.002 277.769C211.002 278.566 211.854 279.136 212.707 278.965C213.503 278.794 214.128 278.224 214.639 277.598C215.151 276.972 215.549 276.175 215.719 275.321C216.117 273.612 215.833 271.847 214.924 270.595C214.81 270.424 214.583 270.31 214.355 270.253C214.128 270.196 213.901 270.31 213.73 270.424C213.446 270.708 213.332 271.05 213.275 271.449C213.162 272.132 213.219 272.758 213.389 273.328C213.673 274.466 214.185 275.207 214.639 275.662C214.867 275.89 215.037 276.061 215.208 276.118C215.321 276.232 215.435 276.232 215.435 276.232C215.435 276.232 215.151 276.004 214.753 275.548C214.355 275.093 213.844 274.296 213.616 273.271C213.503 272.758 213.446 272.132 213.56 271.506C213.616 271.221 213.73 270.879 213.957 270.708C214.185 270.538 214.469 270.595 214.696 270.822C215.492 271.961 215.833 273.669 215.435 275.264C215.265 276.061 214.867 276.801 214.412 277.427C213.957 278.054 213.332 278.566 212.707 278.68C212.082 278.851 211.343 278.338 211.4 277.769C211.4 277.484 211.57 277.257 211.798 277.086C212.025 276.915 212.252 276.801 212.537 276.687C213.56 276.289 214.469 276.118 215.037 276.061C215.549 275.947 215.89 275.947 215.89 275.947Z" fill="#263238"/>
<path d="M203.556 279.648C203.556 279.648 203.613 279.648 203.727 279.705C203.898 279.762 204.068 279.762 204.295 279.819C204.807 279.933 205.546 280.103 206.455 280.331C208.331 280.73 211.059 281.299 214.412 281.982C217.765 282.609 221.801 283.349 226.291 283.975C228.564 284.26 230.951 284.545 233.452 284.317C234.702 284.203 235.952 284.032 237.203 283.577C237.828 283.406 238.453 283.178 239.022 282.837C239.59 282.495 240.158 282.153 240.613 281.584V281.641C240.84 281.413 241.068 281.185 241.238 280.844C241.977 279.648 242.034 278.111 241.636 276.858C241.238 275.548 240.272 274.523 239.249 273.726C238.226 272.986 237.032 272.417 235.896 272.075C235.327 271.904 234.702 271.676 234.134 271.563C233.565 271.449 232.997 271.278 232.372 271.221C227.711 270.481 223.506 270.879 219.982 270.879C218.22 270.936 216.629 270.879 215.265 270.765C213.9 270.651 212.707 270.481 211.741 270.31C211.286 270.196 210.831 270.139 210.49 270.025C210.149 269.911 209.808 269.854 209.581 269.74C209.354 269.684 209.183 269.627 209.013 269.57C208.899 269.513 208.842 269.513 208.842 269.513C208.842 269.513 208.899 269.57 209.013 269.57C209.183 269.627 209.354 269.684 209.581 269.74C209.808 269.797 210.149 269.911 210.49 270.025C210.888 270.139 211.286 270.196 211.741 270.31C212.707 270.538 213.9 270.708 215.321 270.822C216.742 270.936 218.334 270.993 220.096 270.993C223.619 271.05 227.825 270.708 232.429 271.449C232.997 271.506 233.565 271.676 234.134 271.79C234.702 271.904 235.27 272.132 235.839 272.303C236.976 272.701 238.112 273.214 239.135 273.954C240.101 274.694 241.011 275.662 241.409 276.915C241.806 278.111 241.75 279.534 241.068 280.616C240.897 280.901 240.67 281.128 240.499 281.299C240.101 281.755 239.59 282.153 239.022 282.495C238.453 282.837 237.885 283.064 237.317 283.292C236.123 283.691 234.873 283.918 233.679 283.975C231.235 284.203 228.848 283.918 226.575 283.634C222.085 283.064 218.049 282.324 214.696 281.698C211.343 281.071 208.615 280.559 206.739 280.16C205.83 279.99 205.091 279.819 204.58 279.762C204.352 279.705 204.182 279.705 204.011 279.648C203.613 279.648 203.556 279.648 203.556 279.648Z" fill="#263238"/>
<path d="M230.667 284.032C230.724 284.032 230.78 283.292 230.837 282.153C230.894 280.957 231.065 279.363 231.292 277.598C231.519 275.833 231.803 274.238 232.031 273.1C232.258 271.961 232.429 271.221 232.372 271.221C232.315 271.221 232.088 271.904 231.803 273.043C231.519 274.182 231.178 275.776 230.951 277.598C230.724 279.363 230.61 281.014 230.61 282.21C230.553 283.349 230.61 284.032 230.667 284.032Z" fill="#263238"/>
<g opacity="0.4">
<g opacity="0.4">
<path opacity="0.4" d="M211.172 269.74L206.455 281.527L202.818 280.844L209.808 269.342L211.172 269.74Z" fill="black"/>
</g>
</g>
<path d="M163.545 242.295L152.519 217.64L158.884 196.459C160.817 190.025 160.362 183.135 157.634 177.043L146.892 156.146L137.287 152.729L114.723 149.712C114.326 149.826 113.189 149.939 106.539 152.16C100.912 154.039 96.1951 157.854 93.126 162.979L111.37 216.217C111.37 216.217 99.0369 243.32 100.571 255.733L163.545 242.295Z" fill="#E04E39"/>
<path d="M145.073 155.576C145.073 155.576 157.691 158.366 162.294 175.619L167.978 194.011L157.634 194.637L145.073 155.576Z" fill="#E04E39"/>
<path d="M158.486 195.263C158.486 195.263 158.543 195.206 158.6 195.036C158.657 194.865 158.77 194.637 158.884 194.295C159.112 193.612 159.339 192.644 159.396 191.391C159.623 188.886 159.112 185.356 157.463 181.883C157.065 181.029 156.611 180.174 156.156 179.434C155.701 178.637 155.247 177.897 154.849 177.214C154.053 175.79 153.485 174.424 153.087 173.228C152.689 172.032 152.405 171.064 152.234 170.438C152.121 170.153 152.064 169.868 152.007 169.698C151.95 169.527 151.893 169.413 151.893 169.413C151.893 169.413 151.893 169.527 151.95 169.698C152.007 169.925 152.064 170.153 152.121 170.495C152.291 171.178 152.575 172.146 152.916 173.342C153.257 174.537 153.826 175.961 154.622 177.384C155.019 178.125 155.417 178.865 155.872 179.662C156.327 180.459 156.781 181.256 157.179 182.11C158.827 185.527 159.339 189 159.168 191.505C159.112 192.758 158.884 193.726 158.714 194.409C158.6 194.865 158.486 195.263 158.486 195.263Z" fill="#263238"/>
<path d="M189.803 252.374C189.859 252.431 195.77 248.103 203.045 242.694C210.263 237.285 216.117 232.843 216.06 232.73C216.004 232.673 210.093 237 202.818 242.409C195.6 247.875 189.746 252.317 189.803 252.374Z" fill="#455A64"/>
<path d="M101.538 253.171L119.441 238.424C121.43 227.434 131.49 219.235 143.255 220.317C147.688 220.715 151.837 222.424 155.304 225.271L165.704 233.413C181.846 229.029 206.341 222.139 218.959 218.552C224.131 217.128 229.644 217.925 234.134 220.829L234.361 221C240.954 225.271 244.194 233.242 242.375 240.929C241.238 245.826 238.226 249.982 233.963 252.602C227.598 256.53 217.765 262.509 209.24 267.634L210.377 268.545L202.875 280.9L187.472 276.118C177.071 274.637 155.019 271.733 155.019 271.733L161.328 268.032L159.907 267.577C147.915 277.826 133.252 282.495 115.121 274.58C106.084 270.367 100.458 260.288 101.538 253.171Z" fill="#263238"/>
<path d="M132.172 251.577C132.172 251.577 132.229 251.633 132.342 251.69C132.456 251.804 132.626 251.918 132.797 252.089C133.195 252.431 133.82 252.886 134.559 253.512C134.957 253.797 135.354 254.139 135.809 254.537C136.264 254.879 136.832 255.278 137.401 255.676C137.969 256.075 138.594 256.473 139.219 256.929C139.56 257.157 139.901 257.384 140.242 257.612C140.583 257.84 140.981 258.068 141.322 258.295C142.8 259.206 144.448 260.231 146.267 261.142C147.176 261.598 148.086 262.11 149.109 262.623C150.075 263.078 151.098 263.591 152.178 264.046C156.383 265.982 161.044 267.861 166.102 269.626C176.162 273.1 185.483 275.605 192.133 277.598C193.781 278.11 195.315 278.566 196.623 278.964C197.93 279.363 199.067 279.705 199.976 280.046C200.885 280.331 201.624 280.559 202.136 280.73C202.363 280.787 202.533 280.843 202.704 280.9C202.818 280.957 202.875 280.957 202.875 280.957C202.875 280.957 202.818 280.9 202.704 280.9C202.59 280.843 202.363 280.787 202.136 280.673C201.624 280.502 200.942 280.217 200.033 279.932C199.123 279.591 197.987 279.249 196.679 278.794C195.372 278.338 193.838 277.883 192.19 277.37C185.54 275.263 176.276 272.758 166.216 269.285C161.214 267.577 156.497 265.641 152.291 263.762C151.268 263.249 150.245 262.794 149.222 262.338C148.256 261.883 147.29 261.37 146.437 260.858C144.619 259.947 142.97 258.922 141.493 258.068C141.095 257.84 140.754 257.612 140.413 257.441C140.072 257.214 139.731 256.986 139.39 256.758C138.765 256.303 138.139 255.904 137.571 255.505C137.003 255.107 136.434 254.765 135.98 254.424C135.525 254.082 135.07 253.74 134.672 253.456C133.934 252.886 133.308 252.431 132.854 252.089C132.683 251.975 132.513 251.861 132.399 251.747C132.285 251.577 132.229 251.52 132.172 251.577Z" fill="#455A64"/>
<path d="M130.865 257.328C130.865 257.328 131.035 257.441 131.433 257.612C131.774 257.783 132.342 258.011 133.024 258.239C134.388 258.751 136.264 259.32 138.424 259.776C140.583 260.232 142.573 260.459 143.993 260.573C144.732 260.63 145.301 260.63 145.699 260.63C146.096 260.63 146.324 260.63 146.324 260.573C146.324 260.516 145.414 260.459 143.993 260.288C142.573 260.118 140.64 259.833 138.481 259.377C136.321 258.922 134.445 258.353 133.081 257.897C131.717 257.555 130.865 257.271 130.865 257.328Z" fill="#455A64"/>
<path d="M157.463 227.32C157.406 227.377 169.171 236.658 183.778 248.046C198.385 259.434 210.263 268.545 210.32 268.488C210.377 268.431 198.612 259.15 184.005 247.762C169.399 236.431 157.52 227.263 157.463 227.32Z" fill="#455A64"/>
<path d="M115.064 267.178C115.064 267.178 115.064 267.064 115.121 266.779C115.121 266.495 115.121 266.096 115.178 265.698C115.178 264.73 115.235 263.363 115.292 261.655C115.462 258.239 115.86 253.569 116.826 248.445C117.792 243.32 119.1 238.765 120.18 235.52C120.691 233.925 121.203 232.616 121.487 231.705C121.657 231.306 121.771 230.965 121.885 230.68C121.941 230.452 121.998 230.338 121.998 230.281C121.998 230.281 121.941 230.395 121.828 230.623C121.714 230.908 121.544 231.249 121.373 231.648C120.975 232.502 120.464 233.811 119.895 235.406C118.759 238.651 117.395 243.207 116.428 248.331C115.462 253.456 115.064 258.182 115.008 261.655C114.951 263.363 114.951 264.73 115.008 265.698C115.008 266.153 115.064 266.495 115.064 266.779C115.008 267.064 115.064 267.178 115.064 267.178Z" fill="#455A64"/>
<path d="M160.532 267.007C160.532 267.007 160.476 267.064 160.362 267.121C160.248 267.235 160.135 267.349 159.964 267.463C159.566 267.747 159.055 268.26 158.373 268.886C156.952 270.025 154.792 271.676 151.894 273.27C148.995 274.865 145.358 276.345 141.095 277.313C140.583 277.427 140.015 277.541 139.503 277.655C138.935 277.769 138.424 277.883 137.855 277.939C136.719 278.053 135.582 278.224 134.388 278.281C132.001 278.452 129.557 278.338 127.057 278.053C126.431 277.939 125.806 277.883 125.181 277.769C124.556 277.655 123.988 277.541 123.362 277.427C122.169 277.199 120.975 276.858 119.895 276.516C117.622 275.776 115.519 274.865 113.644 273.783C109.836 271.619 106.994 268.772 105.175 266.039C103.356 263.306 102.447 260.744 102.049 258.922C101.822 258.011 101.765 257.327 101.708 256.815C101.708 256.587 101.651 256.416 101.651 256.246C101.651 256.132 101.594 256.075 101.594 256.075C101.594 256.075 101.594 256.132 101.594 256.246C101.594 256.416 101.594 256.587 101.594 256.815C101.651 257.327 101.708 258.011 101.879 258.922C102.277 260.744 103.072 263.363 104.891 266.153C106.71 268.943 109.551 271.847 113.416 274.068C115.292 275.149 117.451 276.117 119.725 276.858C120.862 277.199 122.055 277.541 123.249 277.826C123.874 277.939 124.442 278.053 125.067 278.224C125.693 278.338 126.318 278.395 126.943 278.509C129.444 278.794 131.944 278.907 134.332 278.737C135.525 278.68 136.662 278.509 137.855 278.395C138.424 278.281 138.992 278.167 139.56 278.11C140.129 277.996 140.64 277.939 141.209 277.769C145.471 276.744 149.165 275.206 152.064 273.612C154.963 271.961 157.066 270.31 158.486 269.114C159.168 268.488 159.68 267.975 160.021 267.633C160.191 267.463 160.305 267.349 160.419 267.235C160.476 267.064 160.532 267.007 160.532 267.007Z" fill="#455A64"/>
<path d="M152.064 270.651C155.19 269 158.657 269.968 161.612 270.993C163.601 271.676 165.648 272.701 167.637 272.132C169.114 271.733 170.194 270.537 171.274 269.513C175.764 265.356 181.902 263.135 188.041 263.477C189.746 263.591 191.451 264.274 192.644 265.584C195.713 268.886 193.383 273.214 190.655 276.004C185.824 280.9 179.288 284.089 172.468 284.829C166.784 285.399 158.998 284.658 153.201 282.153C149.62 280.616 147.801 276.402 149.677 273.043C150.245 272.018 151.041 271.164 152.064 270.651Z" fill="#455A64"/>
<path opacity="0.4" d="M152.064 273.27C155.19 271.619 158.657 272.587 161.612 273.612C163.601 274.295 165.648 275.32 167.637 274.751C169.114 274.352 170.194 273.157 171.274 272.132C175.764 267.975 181.902 265.754 188.041 266.096C189.746 266.21 191.451 266.893 192.644 268.203C193.326 268.943 193.724 269.74 193.951 270.537C193.497 272.53 192.19 274.466 190.712 275.947C185.881 280.843 179.345 284.032 172.525 284.772C166.841 285.342 159.055 284.601 153.258 282.096C151.098 281.185 149.62 279.306 149.165 277.199C149.279 276.687 149.45 276.117 149.734 275.605C150.245 274.694 151.041 273.84 152.064 273.27Z" fill="#263238"/>
<path d="M149.108 277.199C149.165 277.199 149.165 276.459 149.847 275.377C150.188 274.865 150.757 274.239 151.495 273.726C152.234 273.214 153.201 272.758 154.337 272.644C156.667 272.36 159.339 273.328 162.294 274.125C163.772 274.523 165.363 275.093 167.125 274.865C167.978 274.751 168.83 274.466 169.626 274.011C170.365 273.555 171.104 272.986 171.786 272.417C174.343 269.911 177.355 268.374 180.311 267.349C181.789 266.836 183.209 266.552 184.517 266.381C185.881 266.21 187.131 266.153 188.268 266.381C189.404 266.552 190.371 266.95 191.166 267.406C191.962 267.861 192.53 268.431 192.928 268.943C193.781 269.968 194.008 270.651 194.065 270.594C194.065 270.594 193.838 269.911 193.042 268.829C192.644 268.317 192.076 267.747 191.28 267.235C190.484 266.723 189.461 266.324 188.325 266.153C187.131 265.925 185.824 265.982 184.46 266.096C183.096 266.267 181.618 266.552 180.14 267.064C178.663 267.52 177.185 268.203 175.707 269.057C174.968 269.456 174.23 269.911 173.547 270.481C172.865 271.05 172.183 271.619 171.558 272.189C170.876 272.758 170.194 273.328 169.512 273.783C168.773 274.239 167.978 274.466 167.182 274.58C165.534 274.808 163.999 274.239 162.521 273.84C159.566 273.043 156.838 272.075 154.451 272.417C152.064 272.815 150.529 274.239 149.847 275.32C149.506 275.89 149.336 276.402 149.279 276.744C149.108 277.029 149.108 277.199 149.108 277.199Z" fill="#263238"/>
<path d="M149.108 277.199C149.165 277.199 149.165 276.459 149.847 275.377C150.188 274.865 150.757 274.239 151.495 273.726C152.234 273.214 153.201 272.758 154.337 272.644C156.667 272.36 159.339 273.328 162.294 274.125C163.772 274.523 165.363 275.093 167.125 274.865C167.978 274.751 168.83 274.466 169.626 274.011C170.365 273.555 171.104 272.986 171.786 272.417C174.343 269.911 177.355 268.374 180.311 267.349C181.789 266.836 183.209 266.552 184.517 266.381C185.881 266.21 187.131 266.153 188.268 266.381C189.404 266.552 190.371 266.95 191.166 267.406C191.962 267.861 192.53 268.431 192.928 268.943C193.781 269.968 194.008 270.651 194.065 270.594C194.065 270.594 193.838 269.911 193.042 268.829C192.644 268.317 192.076 267.747 191.28 267.235C190.484 266.723 189.461 266.324 188.325 266.153C187.131 265.925 185.824 265.982 184.46 266.096C183.096 266.267 181.618 266.552 180.14 267.064C178.663 267.52 177.185 268.203 175.707 269.057C174.968 269.456 174.23 269.911 173.547 270.481C172.865 271.05 172.183 271.619 171.558 272.189C170.876 272.758 170.194 273.328 169.512 273.783C168.773 274.239 167.978 274.466 167.182 274.58C165.534 274.808 163.999 274.239 162.521 273.84C159.566 273.043 156.838 272.075 154.451 272.417C152.064 272.815 150.529 274.239 149.847 275.32C149.506 275.89 149.336 276.402 149.279 276.744C149.108 277.029 149.108 277.199 149.108 277.199Z" fill="#263238"/>
<path d="M187.643 276.459C187.7 276.402 187.074 276.004 186.051 275.377C185.028 274.751 183.607 273.954 181.959 273.157C180.311 272.36 178.776 271.79 177.64 271.392C176.503 270.993 175.821 270.822 175.764 270.879C175.764 270.936 176.446 271.221 177.526 271.676C178.606 272.132 180.14 272.758 181.789 273.555C183.437 274.352 184.858 275.093 185.938 275.662C186.961 276.174 187.643 276.516 187.643 276.459Z" fill="#263238"/>
<path d="M186.563 279.591C186.62 279.477 183.892 278.053 180.481 276.402C177.071 274.751 174.286 273.498 174.23 273.612C174.173 273.726 176.901 275.15 180.311 276.801C183.721 278.452 186.563 279.705 186.563 279.591Z" fill="#263238"/>
<path d="M173.718 280.957C173.775 281.071 177.071 279.078 181.107 276.516C185.142 273.954 188.325 271.847 188.268 271.733C188.211 271.619 184.915 273.612 180.879 276.174C176.844 278.68 173.661 280.843 173.718 280.957Z" fill="#263238"/>
<path d="M171.843 277.712C171.899 277.769 172.468 277.313 173.491 276.63C174.457 275.947 175.821 274.979 177.299 273.897C178.776 272.872 180.197 271.961 181.163 271.278C182.187 270.594 182.755 270.196 182.755 270.139C182.755 270.082 182.073 270.424 180.993 271.05C179.97 271.676 178.549 272.53 177.015 273.612C175.48 274.637 174.173 275.662 173.263 276.459C172.354 277.143 171.843 277.655 171.843 277.712Z" fill="#263238"/>
<path d="M148.085 149.712C148.142 149.712 147.801 149.142 147.972 148.118C148.085 147.605 148.256 147.036 148.711 146.409C149.108 145.84 149.734 145.214 150.416 144.587C151.098 143.961 151.836 143.221 152.462 142.196C153.03 141.228 153.485 140.089 153.655 138.779C153.826 137.527 153.712 136.16 153.257 134.794C152.86 133.484 152.177 132.231 151.495 130.979C150.813 129.726 150.188 128.473 149.847 127.221C149.506 125.968 149.449 124.715 149.79 123.52C150.416 121.185 151.78 119.363 152.519 117.598C153.314 115.833 153.371 114.182 153.087 113.157C152.973 112.644 152.803 112.246 152.632 112.018C152.462 111.79 152.405 111.676 152.348 111.676C152.291 111.733 152.632 112.189 152.803 113.214C152.973 114.239 152.86 115.719 152.064 117.427C151.325 119.135 149.904 120.9 149.222 123.406C148.881 124.658 148.881 126.082 149.279 127.392C149.62 128.758 150.245 130.011 150.927 131.263C151.609 132.516 152.234 133.769 152.689 134.965C153.087 136.217 153.257 137.47 153.087 138.666C152.916 139.861 152.575 140.943 152.007 141.854C151.495 142.765 150.813 143.505 150.131 144.189C149.449 144.872 148.881 145.441 148.426 146.125C148.029 146.751 147.801 147.434 147.744 147.947C147.688 148.516 147.801 148.915 147.915 149.199C147.972 149.598 148.085 149.712 148.085 149.712Z" fill="#263238"/>
<path d="M115.689 138.438C114.894 140.488 112.734 141.797 110.517 141.854C108.358 141.854 106.255 140.601 105.004 138.779C103.811 136.957 103.413 134.623 103.811 132.516C103.981 131.548 104.322 130.58 104.209 129.612C104.038 128.246 103.015 127.05 102.674 125.683C102.049 123.235 103.811 120.673 106.141 119.648C108.471 118.68 111.143 118.964 113.587 119.648" fill="#263238"/>
<path d="M151.098 110.139C153.314 112.416 152.462 115.377 151.439 117.37C150.416 119.363 149.165 121.413 149.108 123.69C149.108 126.025 150.359 128.132 150.984 130.352C151.78 133.142 151.552 136.217 150.302 138.893C149.393 140.886 147.915 142.594 147.006 144.587C146.096 146.58 145.755 149.085 147.006 150.851C145.812 150.68 144.789 149.712 144.221 148.63C143.652 147.548 143.539 146.295 143.595 145.043C143.709 140.374 145.926 135.876 145.357 131.263C145.016 128.587 143.766 125.968 143.936 123.292C144.107 120.559 145.698 118.224 146.835 115.719C147.972 113.271 148.654 110.196 147.119 107.918" fill="#263238"/>
<path d="M145.585 101.313C148.313 101.655 151.041 103.078 152.348 105.527C153.655 107.975 153.201 111.391 150.927 112.986C148.767 114.466 145.755 114.011 143.539 112.587C141.947 111.562 140.583 110.025 139.958 108.203C139.39 106.381 139.617 104.217 140.81 102.737C142.004 101.199 144.164 100.459 145.982 101.142" fill="#263238"/>
<path d="M147.801 101.029C146.608 97.6691 143.652 95.1637 140.299 93.968C136.946 92.7723 133.251 92.7723 129.785 93.4556C126.318 94.1388 122.964 95.3915 119.611 96.6442C117.167 97.5552 114.723 98.5232 112.734 100.174C110.802 101.826 109.438 104.103 108.585 106.552C106.937 111.05 106.88 114.352 108.812 118.794C109.665 120.73 108.983 122.836 109.722 124.829C110.461 126.765 113.984 129.1 112.905 130.865" fill="#263238"/>
<path d="M114.723 149.712L116.201 106.836C116.258 104.9 117.792 103.363 119.725 103.249L139.56 99.3773C145.869 99.0357 149.62 107.007 149.677 113.327C149.734 120.331 149.563 128.929 148.426 134.11C146.21 144.53 138.082 145.441 138.082 145.441C138.082 145.441 137.855 149.484 137.628 153.185L137.969 169.299L114.723 149.712Z" fill="#FFBE9D"/>
<path d="M146.892 120.9C146.892 121.641 146.267 122.21 145.528 122.21C144.789 122.21 144.221 121.641 144.221 120.9C144.221 120.16 144.846 119.591 145.585 119.591C146.323 119.591 146.892 120.16 146.892 120.9Z" fill="#263238"/>
<path d="M147.517 117.029C147.346 117.199 146.38 116.402 144.903 116.288C143.482 116.175 142.345 116.858 142.231 116.687C142.174 116.63 142.345 116.288 142.8 116.004C143.254 115.719 144.05 115.434 144.959 115.434C145.869 115.491 146.608 115.89 147.005 116.231C147.46 116.63 147.631 116.972 147.517 117.029Z" fill="#263238"/>
<path d="M133.479 120.673C133.479 121.413 132.854 121.982 132.115 121.982C131.376 121.982 130.808 121.413 130.808 120.673C130.808 119.932 131.433 119.363 132.172 119.363C132.91 119.42 133.479 119.989 133.479 120.673Z" fill="#263238"/>
<path d="M133.251 117.199C133.081 117.37 132.115 116.573 130.637 116.459C129.216 116.345 128.079 117.028 127.966 116.858C127.909 116.801 128.079 116.459 128.534 116.174C128.989 115.89 129.784 115.605 130.694 115.605C131.603 115.662 132.342 116.06 132.74 116.402C133.194 116.801 133.365 117.142 133.251 117.199Z" fill="#263238"/>
<path d="M137.912 128.246C137.912 128.189 138.821 128.075 140.299 127.961C140.697 127.961 141.038 127.904 141.095 127.619C141.208 127.335 141.038 126.936 140.924 126.48C140.64 125.569 140.299 124.601 139.958 123.577C138.651 119.477 137.741 116.117 137.912 116.061C138.082 116.004 139.276 119.306 140.583 123.406C140.867 124.431 141.208 125.399 141.492 126.31C141.606 126.765 141.833 127.221 141.606 127.79C141.492 128.075 141.208 128.246 140.981 128.303C140.754 128.359 140.526 128.359 140.356 128.359C138.821 128.359 137.912 128.303 137.912 128.246Z" fill="#263238"/>
<path d="M138.026 145.441C138.026 145.441 130.921 145.498 124.215 140.943C124.215 140.943 127.341 148.345 137.912 147.947L138.026 145.441Z" fill="#EB996E"/>
<path d="M134.161 112.986C133.99 113.384 132.569 113.1 130.864 113.214C129.159 113.271 127.738 113.726 127.568 113.328C127.454 113.157 127.738 112.815 128.307 112.416C128.875 112.075 129.785 111.733 130.808 111.676C131.831 111.619 132.74 111.847 133.365 112.132C133.933 112.473 134.218 112.815 134.161 112.986Z" fill="#263238"/>
<path d="M147.176 113.498C146.892 113.84 145.926 113.441 144.732 113.328C143.539 113.214 142.516 113.441 142.288 113.1C142.175 112.929 142.345 112.587 142.857 112.303C143.311 112.018 144.05 111.79 144.903 111.847C145.698 111.904 146.437 112.246 146.835 112.587C147.176 112.986 147.29 113.328 147.176 113.498Z" fill="#263238"/>
<path d="M137.116 131.548C136.662 130.865 135.809 130.466 135.013 130.523C134.445 130.58 133.82 130.808 133.422 131.263C133.024 131.719 132.911 132.402 133.252 132.858C133.593 133.37 134.331 133.541 135.013 133.427C135.695 133.256 136.264 132.858 136.775 132.516C136.946 132.402 137.059 132.288 137.173 132.118C137.23 131.947 137.287 131.719 137.116 131.548Z" fill="#EB996E"/>
<path d="M133.877 129.043C134.104 129.043 134.047 130.523 135.241 131.605C136.434 132.744 138.026 132.63 138.026 132.858C138.026 132.972 137.685 133.142 137.003 133.085C136.377 133.085 135.411 132.801 134.672 132.117C133.933 131.434 133.649 130.58 133.649 129.954C133.592 129.384 133.763 128.986 133.877 129.043Z" fill="#263238"/>
<path d="M147.972 103.819C147.29 107.121 142.004 107.349 138.764 106.552C136.434 109.285 132.683 110.651 129.159 110.082C128.705 110.025 128.193 109.911 127.738 110.082C127.227 110.253 126.943 110.708 126.602 111.107C125.124 112.872 122.964 114.068 120.691 114.352C120.066 117.655 117.224 120.388 113.927 120.901C113.927 120.901 112.904 120.331 113.473 116.061C114.098 111.847 114.155 102.965 114.155 102.965L125.92 98.4094L139.787 96.6443C139.787 96.6443 149.165 98.2955 147.972 103.819Z" fill="#263238"/>
<path d="M109.04 119.249C109.153 119.249 109.04 118.11 109.892 116.345C110.347 115.491 111.029 114.523 112.109 113.726C113.189 112.929 114.61 112.303 116.258 112.246H116.428L116.485 112.075C116.997 110.424 117.906 108.658 119.497 107.406C121.032 106.21 123.419 105.698 125.295 106.779L125.579 106.95L125.692 106.609C125.749 106.495 125.806 106.381 125.863 106.21C127.113 103.249 130.182 101.484 132.91 101.37C133.592 101.37 134.275 101.427 134.957 101.541C135.639 101.655 136.321 101.769 137.059 101.541C137.741 101.313 138.253 100.858 138.651 100.459C139.049 100.004 139.446 99.662 139.901 99.3773C141.663 98.2385 143.595 98.4093 144.675 98.751C145.812 99.0926 146.324 99.6051 146.38 99.5481C146.38 99.5481 146.267 99.4343 146.039 99.2065C145.755 99.0357 145.357 98.751 144.789 98.5232C143.652 98.1246 141.663 97.8399 139.674 99.0357C138.651 99.6051 138.026 100.801 136.889 101.085C135.752 101.37 134.388 100.744 132.91 100.801C129.955 100.915 126.715 102.794 125.295 105.982C125.238 106.096 125.181 106.267 125.124 106.381L125.579 106.21C123.419 104.957 120.748 105.584 119.1 106.95C117.394 108.317 116.485 110.196 115.974 111.961L116.201 111.79C114.439 111.904 112.905 112.587 111.825 113.441C110.688 114.295 110.006 115.377 109.608 116.288C109.21 117.199 109.04 117.997 108.983 118.509C108.983 118.965 108.983 119.249 109.04 119.249Z" fill="#455A64"/>
<path d="M127.738 109.171C127.738 109.228 128.022 109.342 128.591 109.513C129.159 109.683 130.012 109.797 131.092 109.797C133.194 109.797 136.264 108.886 138.48 106.324L138.082 106.381C138.196 106.438 138.31 106.495 138.423 106.552C139.958 107.292 141.663 107.463 143.084 107.235C144.561 107.007 145.755 106.381 146.608 105.698C147.46 105.014 148.028 104.274 148.313 103.762C148.597 103.249 148.71 102.908 148.71 102.908C148.597 102.851 148.085 104.103 146.38 105.356C145.528 105.982 144.391 106.495 143.027 106.723C141.663 106.893 140.128 106.723 138.707 106.039C138.594 105.982 138.48 105.925 138.423 105.868L138.196 105.755L138.025 105.925C135.979 108.317 133.081 109.228 131.092 109.342C129.046 109.513 127.795 109.057 127.738 109.171Z" fill="#455A64"/>
<path d="M133.99 103.306C133.99 103.477 135.525 103.42 137.287 103.989C139.049 104.502 140.299 105.356 140.413 105.185C140.526 105.071 139.333 103.933 137.457 103.363C135.582 102.794 133.99 103.135 133.99 103.306Z" fill="#455A64"/>
<path d="M138.026 103.192C138.139 103.306 138.708 102.907 139.446 102.452C140.128 101.996 140.754 101.655 140.697 101.484C140.64 101.313 139.901 101.427 139.105 101.939C138.253 102.395 137.855 103.078 138.026 103.192Z" fill="#455A64"/>
<path d="M121.373 108.374C121.43 108.545 122.794 108.203 124.442 108.317C126.09 108.431 127.397 109 127.454 108.829C127.568 108.715 126.318 107.804 124.499 107.691C122.68 107.52 121.316 108.203 121.373 108.374Z" fill="#455A64"/>
<path d="M118.133 113.84C118.133 114.011 120.122 114.182 122.396 113.498C124.726 112.815 126.317 111.619 126.204 111.505C126.09 111.335 124.442 112.303 122.225 112.929C120.066 113.555 118.133 113.612 118.133 113.84Z" fill="#455A64"/>
<path d="M110.745 117.427C110.859 117.541 111.882 116.516 113.587 116.06C115.235 115.548 116.656 115.89 116.713 115.719C116.769 115.548 115.292 114.922 113.416 115.491C111.541 116.003 110.631 117.37 110.745 117.427Z" fill="#455A64"/>
<path d="M111.825 102.338C111.881 102.338 111.995 101.996 112.393 101.484C112.791 100.971 113.53 100.288 114.609 99.7758C116.769 98.7508 120.179 98.0676 123.874 98.2384C127.568 98.4092 130.864 99.3202 133.251 100.004C135.582 100.744 137.002 101.256 137.059 101.199C137.059 101.142 136.718 100.971 136.093 100.687C135.468 100.402 134.559 100.004 133.365 99.6049C131.035 98.7508 127.738 97.7829 123.874 97.6121C120.066 97.4412 116.599 98.1815 114.382 99.3772C113.245 100.004 112.507 100.744 112.166 101.37C111.825 101.939 111.768 102.338 111.825 102.338Z" fill="#455A64"/>
<path d="M110.631 107.975C110.745 108.032 111.086 106.722 112.393 105.128C113.7 103.534 116.144 101.826 119.27 101.085C122.396 100.402 125.295 100.687 127.398 100.915C129.5 101.199 130.751 101.427 130.808 101.37C130.808 101.313 129.557 100.915 127.454 100.516C125.351 100.174 122.339 99.7758 119.156 100.516C115.917 101.256 113.359 103.135 112.109 104.9C111.484 105.754 111.086 106.552 110.859 107.121C110.688 107.633 110.631 107.975 110.631 107.975Z" fill="#455A64"/>
<path d="M149.677 114.58C149.677 114.637 150.643 114.352 151.723 113.214C152.746 112.132 153.769 110.025 153.314 107.634C152.803 105.242 150.984 103.705 149.62 103.135C148.199 102.509 147.233 102.68 147.233 102.737C147.233 102.851 148.142 102.851 149.449 103.534C150.7 104.16 152.291 105.641 152.746 107.747C153.201 109.854 152.348 111.847 151.439 112.929C150.473 114.125 149.62 114.523 149.677 114.58Z" fill="#455A64"/>
<path d="M105.971 128.701C106.027 128.587 104.948 128.018 103.47 126.936C102.731 126.367 101.935 125.569 101.367 124.488C100.799 123.463 100.628 122.039 101.196 120.786C101.708 119.534 102.788 118.566 103.868 118.167C105.004 117.769 106.141 117.769 106.994 117.94C108.812 118.338 109.722 119.249 109.779 119.135C109.779 119.135 109.608 118.851 109.21 118.509C108.756 118.167 108.074 117.769 107.107 117.484C106.141 117.199 104.948 117.142 103.64 117.598C102.39 118.053 101.196 119.078 100.571 120.502C99.8893 121.925 100.173 123.577 100.799 124.715C101.424 125.854 102.39 126.651 103.129 127.221C103.925 127.79 104.607 128.132 105.118 128.359C105.686 128.587 105.971 128.701 105.971 128.701Z" fill="#263238"/>
<path d="M105.459 128.758C105.402 128.758 105.232 129.043 104.947 129.669C104.663 130.295 104.322 131.15 103.981 132.288C103.64 133.427 103.299 134.851 103.299 136.445C103.299 138.039 103.64 139.861 104.72 141.399C105.8 142.936 107.448 143.961 109.04 144.132C110.688 144.359 112.166 143.676 113.018 142.765C113.871 141.854 114.212 140.886 114.268 140.203C114.325 139.52 114.155 139.178 114.155 139.178C114.098 139.178 114.155 139.577 114.041 140.203C113.927 140.829 113.586 141.683 112.734 142.48C111.938 143.278 110.631 143.847 109.153 143.562C107.732 143.335 106.198 142.424 105.232 141C104.265 139.577 103.924 137.868 103.868 136.388C103.811 134.851 104.095 133.484 104.379 132.402C105.004 130.125 105.573 128.758 105.459 128.758Z" fill="#263238"/>
<path d="M121.714 109.057C123.021 111.676 121.998 114.808 120.691 117.427C119.327 120.046 117.622 122.609 117.508 125.513C117.338 130.409 121.657 134.737 121.089 139.577C120.748 142.481 118.417 144.986 115.576 145.669C117.906 144.132 118.076 140.715 117.224 138.096C116.315 135.477 112.052 128.473 111.427 125.797C109.324 116.687 110.233 115.605 113.416 112.417" fill="#263238"/>
<path d="M112.904 115.605C112.904 115.662 113.53 115.833 114.609 115.662C115.633 115.491 117.11 114.979 118.304 113.897C119.497 112.758 120.122 111.392 120.35 110.367C120.577 109.342 120.464 108.658 120.407 108.658C120.293 108.658 120.236 109.285 119.895 110.253C119.554 111.164 118.929 112.416 117.849 113.441C116.769 114.466 115.462 114.979 114.496 115.263C113.586 115.491 112.904 115.491 112.904 115.605Z" fill="#455A64"/>
<path d="M116.712 142.765C116.712 142.765 116.826 142.708 117.053 142.537C117.224 142.367 117.508 142.139 117.792 141.74C118.361 141 119.043 139.634 119.043 137.868C119.043 137.014 118.815 136.046 118.361 135.078C117.849 134.167 117.11 133.37 116.315 132.573C115.519 131.776 114.78 130.922 114.325 129.84C113.871 128.758 113.643 127.562 113.7 126.31C113.757 125.057 114.098 123.918 114.723 122.893C115.292 121.868 116.03 120.957 116.769 120.103C118.247 118.395 119.384 116.687 120.066 115.093C120.748 113.498 121.032 112.132 121.032 111.164C121.089 110.196 120.975 109.683 120.918 109.683C120.805 109.683 121.089 111.847 119.611 114.865C118.872 116.345 117.735 117.997 116.258 119.648C115.519 120.502 114.78 121.413 114.155 122.495C113.53 123.577 113.132 124.886 113.075 126.196C113.018 127.562 113.245 128.872 113.814 130.011C114.325 131.15 115.121 132.118 115.917 132.915C116.712 133.712 117.451 134.452 117.906 135.306C118.361 136.103 118.588 137.014 118.645 137.811C118.702 139.463 118.133 140.715 117.679 141.513C117.11 142.367 116.656 142.708 116.712 142.765Z" fill="#455A64"/>
<path d="M111.881 115.263C111.881 115.263 111.597 115.434 111.199 115.833C110.802 116.231 110.347 116.915 109.892 117.826C109.04 119.648 108.642 122.609 109.551 125.626C110.461 128.587 112.222 130.865 113.473 132.402C114.78 133.94 115.689 134.737 115.746 134.68C115.803 134.623 115.007 133.655 113.814 132.118C112.62 130.58 111.029 128.303 110.119 125.456C109.267 122.609 109.551 119.819 110.233 118.053C111.029 116.174 111.938 115.32 111.881 115.263Z" fill="#455A64"/>
<path d="M155.474 193.271L161.328 182.395C161.726 181.655 162.465 181.199 163.26 181.199H205.091C205.944 181.199 206.682 181.655 207.08 182.395L165.648 210.296L147.347 212.402C146.949 211.662 146.949 210.751 147.29 210.011L155.474 193.271Z" fill="#263238"/>
<g opacity="0.3">
<g opacity="0.3">
<g opacity="0.3">
<path opacity="0.3" d="M111.256 218.096C118.588 214.908 127.057 214.452 133.934 210.353C136.548 208.815 138.935 206.765 141.606 205.285C144.278 203.861 147.574 203.007 150.416 204.146C153.257 205.285 155.417 209.555 153.94 212.232C153.371 213.655 150.7 215.022 149.165 214.851C147.631 214.737 146.21 214.111 144.675 213.883C141.379 213.484 138.253 215.078 135.298 216.559C128.932 219.748 122.339 222.481 115.633 224.758C114.041 225.271 112.393 225.783 110.745 225.555C109.097 225.328 107.505 224.075 107.392 222.424C107.278 220.431 109.381 218.95 111.256 218.096Z" fill="black"/>
</g>
</g>
</g>
<path d="M147.29 212.459L161.953 183.705C162.351 182.965 163.147 182.452 163.999 182.452H207.251L191.11 211.548L147.29 212.459Z" fill="#455A64"/>
<path d="M181.22 192.815C180.595 193.328 179.743 193.214 179.231 192.587C178.72 191.961 178.833 191.107 179.458 190.594C180.084 190.082 180.936 190.196 181.448 190.822C181.902 191.449 181.789 192.303 181.22 192.815Z" fill="#EBEBEB"/>
<path d="M143.141 197.484L147.517 194.125C149.279 191.904 152.007 190.594 154.849 190.594H157.179L158.77 192.417C158.77 192.417 170.365 192.929 170.82 194.352V194.808V195.093L160.873 195.776C160.873 195.776 169.342 195.776 169.796 195.776C170.365 195.776 172.127 195.662 172.127 196.63C172.07 197.427 171.161 198.11 169.683 198.281C169.058 198.395 161.783 199.022 161.783 199.022C161.783 199.022 169.455 198.965 169.853 198.965C170.763 198.965 170.649 200.388 170.081 200.616C169.683 200.787 159.339 203.748 159.339 203.748C159.339 203.748 161.101 204.886 162.465 204.829C163.886 204.715 166.33 202.893 166.841 203.748C167.353 204.602 167.239 205.114 166.955 205.342C166.671 205.57 163.317 207.278 162.181 207.562C161.044 207.847 152.007 209.328 152.007 209.328L144.448 208.36L143.141 197.484Z" fill="#FFBE9D"/>
<path d="M162.749 192.53C162.749 192.474 160.93 192.417 158.657 192.36C156.383 192.36 154.565 192.417 154.565 192.474C154.565 192.53 156.383 192.587 158.657 192.644C160.93 192.644 162.749 192.587 162.749 192.53Z" fill="#EB996E"/>
<path d="M143.141 197.484L111.2 203.577L108.017 163.32C108.017 163.32 99.3778 156.032 94.831 160.986C90.2842 165.94 89.9432 171.804 90.2274 174.708C90.5116 177.612 93.4101 212.004 95.854 217.868C99.2073 226.011 107.846 225.555 110.233 224.986C112.62 224.416 147.006 208.132 147.006 208.132L143.141 197.484Z" fill="#FFBE9D"/>
<path d="M109.153 163.093C110.29 172.203 112.507 186.096 112.62 195.264C112.62 195.662 90.6252 197.484 90.6252 197.484C90.6252 197.484 89.4885 176.758 90.2842 170.438C91.2504 163.263 96.5929 158.367 96.5929 158.367H103.47L109.153 163.093Z" fill="#E04E39"/>
<path d="M90.6251 197.484C90.6251 197.484 90.7956 197.484 91.0798 197.484C91.4208 197.484 91.8186 197.427 92.3301 197.37C93.4668 197.256 95.0582 197.143 97.0475 196.972C101.026 196.573 106.539 196.061 112.62 195.434H112.791V195.264C112.791 194.979 112.734 194.694 112.734 194.353C112.279 188.032 111.881 182.281 111.597 178.125C111.427 176.075 111.313 174.424 111.199 173.228C111.143 172.659 111.086 172.203 111.086 171.918C111.029 171.634 111.029 171.463 111.029 171.463C111.029 171.463 111.029 171.634 111.029 171.918C111.029 172.26 111.086 172.716 111.086 173.285C111.143 174.481 111.256 176.132 111.37 178.239C111.654 182.395 111.995 188.146 112.45 194.466C112.45 194.751 112.507 195.093 112.507 195.377L112.62 195.207C106.539 195.833 101.026 196.402 97.0475 196.801C95.1151 197.029 93.5237 197.2 92.387 197.313C91.8755 197.37 91.4208 197.427 91.1366 197.484C90.7956 197.427 90.6251 197.427 90.6251 197.484Z" fill="#263238"/>
</g>
<path d="M212.735 306.767C212.735 306.891 197.135 306.982 177.901 306.982C158.666 306.982 143.067 306.891 143.067 306.767C143.067 306.642 158.658 306.551 177.901 306.551C197.144 306.551 212.735 306.651 212.735 306.767Z" fill="#263238"/>
<path d="M187.605 276.28C187.988 277.631 188.232 279.018 188.334 280.42C188.578 281.802 188.678 283.206 188.632 284.609C188.253 283.257 188.008 281.87 187.903 280.469C187.663 279.086 187.563 277.683 187.605 276.28Z" fill="#455A64"/>
<path d="M61.873 236.917C61.873 236.917 134.596 246.124 137.221 248.674C139.506 250.91 142.413 309.946 143.058 309.698L75.1625 307.123L61.873 236.917Z" fill="#455A64"/>
<path d="M121.87 323.409C121.746 323.409 120.214 306.377 118.483 285.321C116.753 264.265 115.412 247.233 115.536 247.233C115.66 247.233 117.192 264.257 118.914 285.321C120.636 306.386 121.986 323.401 121.87 323.409Z" fill="#263238"/>
<path d="M47.5652 160.6C47.6064 160.692 47.6369 160.79 47.6563 160.889L47.855 161.717L48.5919 164.947C49.2295 167.787 50.1237 171.844 51.2415 176.853C53.4357 186.938 56.4579 200.865 59.803 216.175C60.631 220.009 61.459 223.759 62.2208 227.386C62.6099 229.199 62.9991 230.971 63.3717 232.718C63.4628 233.149 63.5539 233.588 63.6532 234.018C63.7225 234.439 63.8306 234.852 63.9761 235.252C64.2951 236.013 64.8493 236.651 65.5576 237.074C65.9056 237.276 66.2826 237.424 66.6754 237.513C67.0563 237.604 67.5034 237.637 67.8926 237.695L70.3269 238.018L74.9803 238.622L83.3348 239.732L95.4153 241.388L98.7273 241.851L99.5553 241.975C99.6542 241.986 99.7515 242.008 99.8451 242.042H99.547L98.719 241.951L95.407 241.57L83.3017 240.071L74.9471 239.02L70.2855 238.432L67.8512 238.125C67.4372 238.067 67.0232 238.034 66.6009 237.943C66.1674 237.843 65.7515 237.679 65.3672 237.455C64.5797 236.995 63.9634 236.292 63.6118 235.451C63.4559 235.026 63.3368 234.588 63.2558 234.143C63.1647 233.712 63.0736 233.315 62.9743 232.843C62.6017 231.104 62.2125 229.324 61.8151 227.519C61.0367 223.892 60.2253 220.141 59.389 216.307C56.077 200.948 53.1128 187.054 50.9517 176.961C49.8919 171.943 49.039 167.853 48.4677 165.029C48.1779 163.638 47.9626 162.545 47.8053 161.775C47.7391 161.419 47.6811 161.138 47.6397 160.947C47.5983 160.757 47.5652 160.608 47.5652 160.6Z" fill="#263238"/>
<path d="M138.281 253.369C138.405 253.369 139.788 269.101 141.386 288.459C142.984 307.818 144.176 323.575 144.052 323.583C143.928 323.591 142.545 307.851 140.955 288.492C139.366 269.134 138.165 253.377 138.281 253.369Z" fill="#263238"/>
<path d="M231.456 39.1171C232.869 39.1171 234.014 37.9716 234.014 36.5585C234.014 35.1455 232.869 34 231.456 34C230.043 34 228.897 35.1455 228.897 36.5585C228.897 37.9716 230.043 39.1171 231.456 39.1171Z" fill="white"/>
<path d="M240.017 39.1171C241.43 39.1171 242.576 37.9716 242.576 36.5585C242.576 35.1455 241.43 34 240.017 34C238.604 34 237.459 35.1455 237.459 36.5585C237.459 37.9716 238.604 39.1171 240.017 39.1171Z" fill="white"/>
<path d="M251.137 36.5585C251.137 37.0645 250.987 37.5592 250.706 37.98C250.425 38.4007 250.025 38.7286 249.558 38.9223C249.09 39.1159 248.576 39.1666 248.08 39.0679C247.583 38.9692 247.127 38.7255 246.77 38.3677C246.412 38.0099 246.168 37.554 246.069 37.0577C245.971 36.5614 246.021 36.0469 246.215 35.5794C246.409 35.1119 246.737 34.7123 247.157 34.4312C247.578 34.1501 248.073 34 248.579 34C248.915 34 249.248 34.0662 249.558 34.1948C249.868 34.3233 250.15 34.5118 250.388 34.7494C250.626 34.987 250.814 35.269 250.943 35.5794C251.071 35.8898 251.137 36.2225 251.137 36.5585Z" fill="white"/>
<path d="M254.365 81.0415C256.994 78.4126 256.994 74.1504 254.365 71.5215C251.737 68.8926 247.474 68.8926 244.845 71.5215C242.217 74.1504 242.217 78.4126 244.845 81.0415C247.474 83.6704 251.737 83.6704 254.365 81.0415Z" fill="#E04E39"/>
<path d="M250.74 72.9062V79.4226H249.233V74.1151H247.933V72.9062H250.74Z" fill="white"/>
<path d="M317.394 76.508C317.318 75.708 317.188 74.9141 317.005 74.1316C316.443 72.0175 315.186 70.1538 313.436 68.8407C312.151 67.8737 310.644 67.2437 309.054 67.0079C307.463 66.7722 305.838 66.9383 304.328 67.4911C303.458 67.8016 302.64 68.2427 301.902 68.7993C301.12 69.3674 300.435 70.058 299.873 70.8445C298.663 72.4847 298.01 74.4696 298.01 76.508C298.01 78.5465 298.663 80.5313 299.873 82.1715C300.435 82.958 301.12 83.6486 301.902 84.2167C302.64 84.7733 303.458 85.2144 304.328 85.5249C305.592 85.985 306.939 86.1765 308.282 86.0873C309.624 85.9982 310.934 85.6303 312.126 85.0071C313.319 84.3839 314.369 83.5191 315.209 82.4678C316.048 81.4165 316.66 80.2017 317.005 78.9009C317.187 78.1212 317.317 77.33 317.394 76.5328C317.412 76.7422 317.412 76.9528 317.394 77.1621C317.396 77.4145 317.377 77.6665 317.336 77.9156C317.302 78.262 317.241 78.6053 317.154 78.9423C316.709 80.7827 315.745 82.4569 314.377 83.766C313.01 85.0752 311.295 85.9644 309.437 86.3281C307.684 86.6608 305.874 86.5178 304.195 85.9141C303.285 85.5939 302.429 85.1389 301.654 84.5644C300.837 83.9734 300.122 83.2549 299.534 82.4365C298.265 80.7249 297.581 78.6509 297.581 76.5204C297.581 74.39 298.265 72.316 299.534 70.6044C300.124 69.7904 300.84 69.075 301.654 68.4847C302.429 67.9102 303.285 67.4553 304.195 67.135C305.874 66.5313 307.684 66.3884 309.437 66.721C311.299 67.0825 313.018 67.9717 314.389 69.2826C315.76 70.5935 316.726 72.271 317.17 74.1151C317.257 74.4495 317.318 74.7899 317.352 75.1335C317.393 75.3854 317.413 75.6402 317.41 75.8953C317.422 76.0996 317.416 76.3046 317.394 76.508Z" fill="#E04E39"/>
<path d="M373.151 76.2844C373.102 76.2844 373.151 75.6799 372.862 74.6284C372.458 73.1825 371.584 71.9123 370.378 71.0183C369.501 70.3601 368.473 69.9326 367.388 69.7749C366.303 69.6172 365.196 69.7344 364.168 70.1158C362.954 70.5537 361.901 71.3473 361.145 72.3928C360.323 73.5096 359.879 74.8602 359.879 76.2471C359.879 77.6341 360.323 78.9847 361.145 80.1015C361.903 81.1468 362.955 81.9425 364.168 82.3867C365.197 82.7647 366.304 82.8793 367.388 82.7203C368.473 82.5612 369.501 82.1334 370.378 81.4759C371.581 80.5832 372.455 79.3165 372.862 77.8741C373.135 76.8474 373.102 76.2181 373.151 76.2181C373.174 76.3608 373.174 76.506 373.151 76.6487C373.146 77.0646 373.093 77.4784 372.994 77.8824C372.693 79.1572 372.031 80.3181 371.086 81.2257C370.142 82.1334 368.956 82.7493 367.67 82.9995C366.456 83.236 365.2 83.1416 364.035 82.7262C362.741 82.266 361.616 81.4263 360.806 80.3167C359.925 79.1304 359.449 77.6918 359.449 76.214C359.449 74.7362 359.925 73.2976 360.806 72.1113C361.616 71.0017 362.741 70.162 364.035 69.7018C365.2 69.2864 366.456 69.192 367.67 69.4285C368.957 69.6784 370.145 70.2951 371.089 71.2045C372.034 72.1139 372.696 73.2771 372.994 74.5539C373.093 74.9549 373.146 75.3661 373.151 75.7793C373.18 75.9464 373.18 76.1172 373.151 76.2844Z" fill="#58595B"/>
<path d="M314 76H255V77H314V76Z" fill="#E04E39"/>
<path d="M314.239 77.3566C314.836 73.6871 312.345 70.2284 308.675 69.6314C305.006 69.0345 301.547 71.5253 300.95 75.1948C300.353 78.8644 302.844 82.323 306.513 82.92C310.183 83.517 313.642 81.0262 314.239 77.3566Z" fill="#E04E39"/>
<path d="M310.141 78.1972V79.4226H305.214V78.4456L307.698 76.0692C308.278 75.5228 308.377 75.1833 308.377 74.8686C308.377 74.3553 308.029 74.0406 307.334 74.0406C307.073 74.0317 306.813 74.0865 306.578 74.2005C306.343 74.3145 306.139 74.4842 305.984 74.6948L304.891 73.991C305.188 73.5903 305.579 73.2694 306.029 73.057C306.48 72.8446 306.977 72.7473 307.474 72.7738C308.932 72.7738 309.901 73.519 309.901 74.703C309.89 75.1078 309.786 75.5047 309.597 75.8625C309.407 76.2203 309.137 76.5291 308.808 76.7648L307.309 78.1806L310.141 78.1972Z" fill="white"/>
<path d="M368.978 77.4271C368.978 78.5283 368.15 79.5385 366.279 79.5385C365.4 79.5518 364.536 79.3071 363.795 78.8347L364.383 77.6838C364.927 78.0704 365.578 78.276 366.246 78.2716C366.999 78.2716 367.463 77.9653 367.463 77.4436C367.463 76.922 367.107 76.6156 366.246 76.6156H365.559V75.6138L366.9 74.0985H364.126V72.8896H368.688V73.9081L367.215 75.5641C367.691 75.5896 368.14 75.797 368.468 76.1437C368.796 76.4903 368.979 76.9497 368.978 77.4271Z" fill="#58595B"/>
<path d="M287.959 141.048H287.959H244.522C243.093 141.048 241.723 140.481 240.712 139.471C239.702 138.46 239.135 137.09 239.135 135.661C239.135 134.954 239.274 134.253 239.545 133.6C239.815 132.946 240.212 132.352 240.712 131.852C241.213 131.352 241.806 130.955 242.46 130.684C243.114 130.414 243.814 130.274 244.522 130.274L287.959 130.274L287.959 130.274C288.667 130.273 289.369 130.412 290.023 130.682C290.678 130.952 291.272 131.349 291.773 131.849L292.123 131.5L291.773 131.849C292.274 132.35 292.672 132.944 292.943 133.598C293.214 134.252 293.354 134.953 293.354 135.661C293.354 136.369 293.214 137.07 292.943 137.725C292.672 138.379 292.274 138.973 291.773 139.473C291.272 139.974 290.678 140.37 290.023 140.64C289.369 140.911 288.667 141.049 287.959 141.048Z" fill="white" stroke="#EBEBEB"/>
<path d="M287.959 121.274H287.959H244.522C243.093 121.274 241.723 120.707 240.712 119.696C239.702 118.686 239.135 117.316 239.135 115.887C239.135 115.18 239.274 114.479 239.545 113.826C239.815 113.172 240.212 112.578 240.712 112.078C241.213 111.578 241.806 111.181 242.46 110.91C243.114 110.639 243.814 110.5 244.522 110.5L287.959 110.5L287.959 110.5C288.667 110.499 289.369 110.638 290.023 110.908C290.678 111.178 291.272 111.575 291.773 112.075L292.123 111.726L291.773 112.075C292.274 112.575 292.672 113.17 292.943 113.824C293.214 114.478 293.354 115.179 293.354 115.887C293.354 116.595 293.214 117.296 292.943 117.95C292.672 118.604 292.274 119.199 291.773 119.699C291.272 120.199 290.678 120.596 290.023 120.866C289.369 121.137 288.667 121.275 287.959 121.274Z" fill="white" stroke="#EBEBEB"/>
<path d="M366.85 141.048H323.405C321.976 141.048 320.606 140.481 319.596 139.471C318.586 138.46 318.018 137.09 318.018 135.661C318.018 134.954 318.157 134.253 318.428 133.6C318.699 132.946 319.096 132.352 319.596 131.852C320.096 131.352 320.69 130.955 321.344 130.684C321.997 130.414 322.698 130.274 323.405 130.274H366.85C367.558 130.274 368.258 130.414 368.912 130.684C369.565 130.955 370.159 131.352 370.66 131.852C371.16 132.352 371.557 132.946 371.827 133.6C372.098 134.253 372.237 134.954 372.237 135.661C372.237 137.09 371.67 138.46 370.66 139.471C369.649 140.481 368.279 141.048 366.85 141.048Z" fill="white" stroke="#EBEBEB"/>
<path d="M366.85 121.274H323.405C321.976 121.274 320.606 120.707 319.596 119.696C318.586 118.686 318.018 117.316 318.018 115.887C318.018 115.18 318.157 114.479 318.428 113.826C318.699 113.172 319.096 112.578 319.596 112.078C320.096 111.578 320.69 111.181 321.344 110.91C321.997 110.639 322.698 110.5 323.405 110.5H366.85C367.558 110.5 368.258 110.639 368.912 110.91C369.565 111.181 370.159 111.578 370.66 112.078C371.16 112.578 371.557 113.172 371.827 113.826C372.098 114.479 372.237 115.18 372.237 115.887C372.237 117.316 371.67 118.686 370.66 119.696C369.649 120.707 368.279 121.274 366.85 121.274Z" fill="white" stroke="#EBEBEB"/>
<path d="M368.457 160.823H368.457L244.845 160.823L244.844 160.823C244.136 160.823 243.434 160.685 242.78 160.415C242.126 160.144 241.531 159.748 241.03 159.247C240.529 158.747 240.131 158.153 239.86 157.499C239.589 156.845 239.449 156.144 239.449 155.435C239.449 154.727 239.589 154.026 239.86 153.372C240.131 152.718 240.529 152.124 241.03 151.624C241.531 151.123 242.126 150.727 242.78 150.456C243.434 150.186 244.136 150.047 244.844 150.048H244.845L368.457 150.048L368.457 150.048C369.165 150.047 369.867 150.186 370.521 150.456C371.176 150.727 371.771 151.123 372.272 151.624C372.773 152.124 373.17 152.718 373.441 153.372C373.712 154.026 373.852 154.727 373.852 155.435C373.852 156.143 373.712 156.845 373.441 157.499C373.17 158.153 372.773 158.747 372.272 159.247C371.771 159.748 371.176 160.144 370.521 160.415C369.867 160.685 369.165 160.823 368.457 160.823Z" fill="white" stroke="#EBEBEB"/>
<path d="M314 77L360 77" stroke="#58595B"/>
<g opacity="0.8">
<g opacity="0.24">
<path d="M397.855 372.457C399.559 355.442 388.867 340.406 382.93 325.246C376.1 307.846 371.908 289.346 370.699 270.682C370.191 262.724 370.273 253.213 375.99 246.932C379.233 243.358 384.098 242.575 387.465 246.465C390.461 249.914 390.379 254.794 390.282 259.095C389.856 277.87 389.279 296.658 394.117 314.979C396.81 325.15 399.792 335.114 401.276 345.56C402.555 354.562 402.857 364.609 397.195 372.265C396.92 372.636 397.538 372.993 397.813 372.622C402.637 366.107 403.2 357.778 402.513 349.958C401.661 340.337 399.353 330.895 396.714 321.631C393.91 311.749 391.78 301.95 391.079 291.683C390.392 281.512 390.681 271.328 390.942 261.143C391.052 256.993 391.437 252.471 389.664 248.567C388.4 245.791 385.816 243.303 382.655 243.029C374.836 242.383 371.084 252.842 370.218 258.903C368.995 267.562 370.287 276.729 371.565 285.319C373.008 295.05 375.234 304.657 378.203 314.031C381.336 323.871 385.582 333.094 389.898 342.454C394.226 351.855 398.198 361.86 397.14 372.416C397.099 372.911 397.813 372.911 397.855 372.457Z" fill="#E04E39"/>
</g>
<g opacity="0.24">
<path d="M398.28 371.948C400.369 365.283 400.026 358.177 398.899 351.373C397.676 343.979 395.559 336.722 393.072 329.672C390.419 322.153 387.369 314.773 385.115 307.117C382.82 299.379 381.322 291.408 380.635 283.368C379.851 274.214 380.126 264.992 381.432 255.907C381.5 255.453 380.813 255.261 380.745 255.714C378.546 271.067 379.26 286.776 382.943 301.853C386.654 317.027 393.759 331.115 397.181 346.384C399.036 354.645 400.149 363.537 397.579 371.77C397.456 372.196 398.157 372.388 398.28 371.948Z" fill="#E04E39"/>
</g>
<g opacity="0.24">
<path d="M398.253 370.959C406.966 355.676 408.986 338.358 407.076 321.068C406.1 312.272 404.259 303.613 402.239 294.995C400.095 285.842 398.652 276.812 401.139 267.562C403.159 260.044 408.45 249.873 417.864 251.454C421.849 252.127 424.392 255.385 425.271 259.164C426.165 263.04 425.423 266.916 424.227 270.641C422.949 274.613 421.258 278.475 420.613 282.626C419.953 286.804 420.242 291.051 420.599 295.243C421.396 304.547 421.3 313.77 420.805 323.088C420.283 332.86 419.197 342.77 415.17 351.8C411.666 359.648 405.977 367.056 397.841 370.423C397.415 370.602 397.607 371.289 398.033 371.11C413.123 364.884 419.115 347.264 420.791 332.352C421.891 322.635 422.317 312.588 421.877 302.816C421.657 298.019 420.956 293.25 420.929 288.453C420.901 283.533 422.042 279.08 423.663 274.475C425.917 268.112 428.446 260.058 423.691 254.12C419.101 248.375 410.759 250.492 406.403 255.316C400.919 261.391 398.899 270.806 398.995 278.777C399.092 288.206 402.239 297.414 404.066 306.595C406.238 317.481 407.653 328.641 406.87 339.76C406.114 350.631 403.036 361.132 397.635 370.602C397.401 371 398.02 371.358 398.253 370.959Z" fill="#E04E39"/>
</g>
<g opacity="0.24">
<path d="M398.665 370.835C406.622 360.912 412.642 348.309 413.989 335.568C414.813 327.72 414.016 319.652 413.7 311.79C413.37 303.736 413.013 295.696 412.738 287.642C412.477 280.028 412.601 271.809 417.397 265.459C417.672 265.088 417.053 264.731 416.778 265.102C412.999 270.105 412.051 276.372 411.955 282.488C411.831 290.116 412.422 297.771 412.738 305.399C413.054 313.426 413.631 321.494 413.576 329.534C413.535 336.571 412.202 343.306 409.728 349.889C406.98 357.229 403.091 364.211 398.184 370.327C397.868 370.684 398.377 371.193 398.665 370.835Z" fill="#E04E39"/>
</g>
<g opacity="0.24">
<path d="M393.869 373.515C393.347 368.018 390.337 363.249 387.067 358.96C383.535 354.329 379.549 350.123 375.633 345.807C371.249 340.983 367.648 335.76 364.515 330.043C361.492 324.531 358.193 318.965 357.19 312.684C356.654 309.358 356.627 305.977 356.75 302.623C356.874 299.352 356.819 295.614 358.564 292.727C360.337 289.786 364.034 288.316 366.892 290.735C369.517 292.961 369.888 296.548 370.122 299.764C371.015 311.818 375.592 322.813 381.047 333.465C387.273 345.615 396.027 359.112 393.182 373.433C393.086 373.886 393.787 374.079 393.869 373.625C396.412 360.871 389.802 348.584 384.057 337.684C377.667 325.562 371.881 313.302 370.809 299.448C370.479 295.16 368.954 288.329 363.251 288.755C357.589 289.181 356.421 295.847 356.159 300.328C355.788 306.884 355.885 313.577 358.454 319.721C360.969 325.713 364.323 331.678 367.882 337.107C371.936 343.306 377.282 348.377 382.106 353.957C386.874 359.469 392.468 365.956 393.168 373.515C393.196 373.969 393.911 373.969 393.869 373.515Z" fill="#FF6239"/>
</g>
<g opacity="0.24">
<path d="M393.87 373.007C392.605 362.754 389.197 352.817 383.741 344.02C378.121 334.949 370.15 327.335 366.632 317.055C364.529 310.925 363.924 304.382 364.79 297.964C364.845 297.51 364.158 297.318 364.103 297.772C362.688 308.231 365.23 318.47 370.947 327.308C373.792 331.706 377.145 335.747 380.196 340.007C383.453 344.57 386.229 349.436 388.359 354.631C390.778 360.5 392.372 366.698 393.155 373.007C393.21 373.46 393.925 373.46 393.87 373.007Z" fill="#E04E39"/>
</g>
</g>
<path d="M359.76 270.091C365.546 267.096 372.367 266.713 378.797 267.777C382.25 268.346 385.852 269.382 388.194 271.976C390.537 274.571 390.994 279.134 388.297 281.364C386.692 282.69 384.452 282.886 382.362 282.867C377.332 282.802 371.751 281.934 367.729 284.948C365.434 286.674 363.912 289.549 361.197 290.398C358.481 291.247 355.486 289.642 354.058 287.225C352.755 284.7 352.468 281.771 353.255 279.041C353.578 277.149 354.333 275.358 355.461 273.806C356.589 272.253 358.06 270.982 359.76 270.091Z" fill="#455A64"/>
<path d="M346.489 244.475C350.036 249.533 356.913 247.862 360.105 244.773C363.296 241.684 364.64 237.214 365.872 232.95C368.672 223.198 371.471 212.979 369.418 203.087C368.914 200.08 367.593 197.268 365.601 194.959C363.511 192.756 360.31 191.45 357.38 192.225C353.908 193.158 351.781 196.536 350.194 199.774C345.605 209.306 343.195 219.739 343.139 230.318C343.139 235.245 343.699 240.415 346.48 244.475" fill="#455A64"/>
<path d="M336.765 251.735C340.61 247.172 341.347 240.537 339.63 234.807C337.913 229.077 334.031 224.224 329.608 220.258C324.364 215.593 318.262 211.992 311.644 209.657C309.083 208.622 306.329 208.154 303.571 208.285C302.191 208.364 300.852 208.78 299.669 209.495C298.487 210.211 297.497 211.205 296.787 212.391C294.92 215.993 296.712 220.361 298.653 223.935C302.118 230.221 306.071 236.224 310.477 241.89C314.014 246.453 318.064 250.951 323.449 253.004C328.833 255.057 334.432 254.824 337.288 251.091" fill="#455A64"/>
<path d="M346.256 320.755C346.44 320.003 346.546 319.233 346.573 318.459C346.732 316.789 346.937 314.727 347.18 312.188C347.496 309.102 347.97 306.034 348.598 302.996C349.416 299.291 350.533 295.658 351.939 292.134C353.314 288.624 355.18 285.328 357.482 282.344C359.355 279.903 361.75 277.91 364.491 276.512C366.347 275.584 368.337 274.954 370.389 274.645C371.16 274.616 371.926 274.506 372.675 274.319C371.903 274.236 371.124 274.236 370.351 274.319C368.219 274.481 366.133 275.024 364.192 275.924C361.309 277.288 358.779 279.3 356.801 281.803C354.4 284.838 352.462 288.212 351.053 291.816C349.631 295.393 348.523 299.087 347.74 302.856C347.14 305.939 346.732 309.055 346.517 312.188C346.312 314.848 346.237 317.004 346.2 318.497C346.138 319.249 346.157 320.006 346.256 320.755Z" fill="#263238"/>
<path d="M346.685 315.94C346.748 315.589 346.77 315.232 346.751 314.876C346.751 314.073 346.751 313.065 346.751 311.824C346.751 309.183 346.751 305.357 346.881 300.626C347.115 291.172 347.936 281.028 349.504 266.638C350.997 253.154 352.994 237.448 355.103 227.238C355.551 224.915 356.036 222.824 356.437 220.995C356.839 219.166 357.193 217.58 357.539 216.329L358.248 213.371C358.347 213.027 358.409 212.673 358.435 212.316C358.274 212.624 358.151 212.95 358.071 213.287C357.837 214.052 357.548 215.023 357.137 216.208C356.727 217.393 356.344 219.008 355.887 220.874C355.43 222.74 354.954 224.784 354.412 227.098C351.805 239.178 349.848 251.39 348.552 263.68C346.975 278.061 346.266 291.154 346.2 300.635C346.144 305.366 346.2 309.211 346.368 311.834C346.443 313.075 346.508 314.083 346.555 314.885C346.554 315.241 346.598 315.595 346.685 315.94Z" fill="#263238"/>
<path d="M346.751 290.687C346.836 289.625 346.836 288.558 346.751 287.496C346.585 284.607 346.274 281.73 345.818 278.873C345.122 274.63 344.187 270.43 343.018 266.293C341.648 261.208 339.891 256.235 337.764 251.418C333.397 241.078 327.499 232.623 322.319 227.378C321.185 226.176 319.973 225.051 318.689 224.01C318.129 223.534 317.644 223.076 317.14 222.694L315.731 221.761C314.885 221.119 313.989 220.545 313.053 220.043C312.894 220.249 316.851 222.572 321.834 227.882C328.18 234.952 333.27 243.054 336.887 251.838C338.977 256.626 340.745 261.549 342.178 266.573C343.383 270.67 344.38 274.825 345.164 279.022C345.818 282.606 346.2 285.555 346.434 287.57C346.458 288.616 346.564 289.658 346.751 290.687Z" fill="#263238"/>
<path d="M322.338 335.229L329.869 373.631H365.415L371.938 335.229H322.338Z" fill="#E04E39"/>
<path d="M377.239 321.567H318.036V335.229H377.239V321.567Z" fill="#D8422D"/>
<path d="M370.118 346.558C370.065 346.673 369.996 346.78 369.913 346.876L369.278 347.753L366.787 351.075L366.675 351.224L366.572 351.066L360.45 342.256H360.805L354.776 351.141L354.59 351.42L354.375 351.159L347.236 342.303H347.647L347.255 342.816C345.034 345.709 342.897 348.518 340.862 351.159L340.657 351.439L340.452 351.15L334.432 342.266H334.778L327.312 351.075L327.181 351.234L327.079 351.057L324.755 346.988L324.158 345.905C324.084 345.784 324.022 345.656 323.971 345.523C323.971 345.523 324.074 345.625 324.223 345.859L324.886 346.904L327.321 350.898H327.088L334.395 341.986L334.582 341.752L334.75 341.995L340.825 350.842H340.414L346.788 342.443C346.928 342.275 347.059 342.098 347.18 341.93L347.385 341.668L347.6 341.93C350.092 345.037 352.499 348.042 354.72 350.795H354.319L360.404 341.958L360.581 341.696L360.758 341.958L366.749 350.87H366.525L369.12 347.632L369.81 346.801C370.016 346.642 370.109 346.549 370.118 346.558Z" fill="white"/>
<path d="M372.554 334.996C372.554 335.154 361.355 335.276 347.637 335.276C333.919 335.276 322.711 335.154 322.711 334.996C322.711 334.837 333.91 334.716 347.637 334.716C361.365 334.716 372.554 334.846 372.554 334.996Z" fill="#263238"/>
<defs>
<clipPath id="clip0_3373_9589">
<rect width="153" height="192" fill="white" transform="matrix(-1 0 0 1 243 93)"/>
</clipPath>
</defs>
</svg>
