<svg width="40" height="41" viewBox="0 0 40 41" fill="none" xmlns="http://www.w3.org/2000/svg">
<circle cx="20" cy="20.0022" r="19.5" fill="#F7F9FA" stroke="#E04E39"/>
<path fill-rule="evenodd" clip-rule="evenodd" d="M13 19.7522C13 19.338 13.3358 19.0022 13.75 19.0022L26.8929 19.0022C27.3071 19.0022 27.6429 19.338 27.6429 19.7522C27.6429 20.1664 27.3071 20.5022 26.8929 20.5022L13.75 20.5022C13.3358 20.5022 13 20.1664 13 19.7522Z" fill="#E04E39"/>
<path fill-rule="evenodd" clip-rule="evenodd" d="M22.3625 15.2219C22.6554 14.929 23.1303 14.929 23.4232 15.2219L27.4232 19.2219C27.716 19.5148 27.716 19.9896 27.4232 20.2825L23.4232 24.2825C23.1303 24.5754 22.6554 24.5754 22.3625 24.2825C22.0696 23.9896 22.0696 23.5148 22.3625 23.2219L25.8322 19.7522L22.3625 16.2825C22.0696 15.9896 22.0696 15.5148 22.3625 15.2219Z" fill="#E04E39"/>
</svg>
